<?xml version="1.0" encoding="UTF-8"?>
<svg width="28px" height="40px" viewBox="0 0 28 40" version="1.1" xmlns="http://www.w3.org/2000/svg" xmlns:xlink="http://www.w3.org/1999/xlink">
    <title>684908</title>
    <g id="Page-1" stroke="none" stroke-width="1" fill="none" fill-rule="evenodd">
        <g id="maptco_homepage_mobile" transform="translate(-174.000000, -4665.000000)" fill-rule="nonzero">
            <g id="684908" transform="translate(174.000000, 4665.000000)">
                <path d="M14,0 C6.27651111,0 0,6.3046875 0,14.0625 C0,16.6875 0.723488889,19.2422656 2.10007778,21.4453906 L13.0509556,39.4464844 C13.2377778,39.7511719 13.5177778,39.93875 13.8445222,39.985625 C14.2877,40.0558594 14.7779333,39.8684375 15.0345222,39.423125 L26.0167444,21.2578125 C27.3232556,19.1016406 28,16.5938281 28,14.0625 C28,6.3046875 21.7234889,0 14,0 Z M14,21.09375 C10.0801556,21.09375 7,17.90625 7,14.0625 C7,10.1952344 10.1499222,7.03125 14,7.03125 C17.8500778,7.03125 21,10.1952344 21,14.0625 C21,17.8828125 17.9665889,21.09375 14,21.09375 Z" id="Shape" fill="#FD003A"></path>
                <path d="M14,0 L14,7.03125 C17.8500778,7.03125 21,10.1952344 21,14.0625 C21,17.8828125 17.9665889,21.09375 14,21.09375 L14,39.9996193 C14.3981444,40.0085937 14.8075667,39.816875 15.0344444,39.423125 L26.0166667,21.2578125 C27.3232556,19.1016406 28,16.5938281 28,14.0625 C28,6.3046875 21.7234889,0 14,0 Z" id="Path" fill="#E50027"></path>
            </g>
        </g>
    </g>
</svg>