<?xml version="1.0" encoding="UTF-8"?>
<svg width="126px" height="32px" viewBox="0 0 126 32" version="1.1" xmlns="http://www.w3.org/2000/svg" xmlns:xlink="http://www.w3.org/1999/xlink">
    <title>pasted-svg-7937x20</title>
    <g id="Symbols" stroke="none" stroke-width="1" fill="none" fill-rule="evenodd">
        <g id="Header_Mobile" transform="translate(-125.000000, -34.000000)" fill="#00783E" fill-rule="nonzero">
            <g id="pasted-svg-7937x20" transform="translate(125.000000, 34.000000)">
                <path d="M35.6178947,14.6112315 L27.9221053,1.30522167 C27.5068421,0.587980296 26.4884211,0 25.6578947,0 L10.2710526,0 C9.44052632,0 8.42052632,0.587980296 8.00842105,1.30522167 L0.312631579,14.6112315 C-0.104210526,15.3284729 -0.104210526,16.5028571 0.312631579,17.2200985 L8.00842105,30.5261084 C8.42210526,31.2433498 9.44052632,31.83133 10.2726316,31.83133 L25.6594737,31.83133 C26.4884211,31.83133 27.5084211,31.2433498 27.9236842,30.5261084 L35.6194737,17.2200985 C36.0331579,16.5028571 36.0331579,15.3284729 35.6178947,14.6112315 Z M30.7247368,16.4571429 L24.8336842,26.6750739 C24.66,26.9745813 24.2368421,27.2204926 23.8910526,27.2204926 L22.6657895,27.2204926 C22.32,27.2204926 22.1794737,26.9761576 22.35,26.6750739 L28.2378947,16.4571429 C28.41,16.1607882 28.41,15.6689655 28.2378947,15.3694581 L23.5736842,7.30325123 C23.4015789,7.00216749 22.9736842,6.75783251 22.6294737,6.75783251 L19.6689474,6.75783251 C19.3215789,6.75783251 19.0405263,7.04157635 19.0405263,7.38522167 L19.0405263,26.5931034 C19.0405263,26.9383251 18.7578947,27.222069 18.4105263,27.222069 L17.5168421,27.222069 C17.1694737,27.222069 16.89,26.9383251 16.89,26.5931034 L16.89,7.38679803 C16.89,7.04315271 16.6057895,6.75940887 16.26,6.75940887 L13.2978947,6.75940887 C12.9521053,6.75940887 12.5289474,7.00374384 12.3536842,7.30482759 L7.69105263,15.3694581 C7.51894737,15.6689655 7.51894737,16.1607882 7.69105263,16.4571429 L13.5994737,26.6766502 C13.7731579,26.9761576 13.6294737,27.2204926 13.2852632,27.2204926 L12.0584211,27.2204926 C11.7126316,27.2204926 11.2894737,26.9761576 11.1142105,26.6766502 L5.20421053,16.4571429 C5.03210526,16.1607882 5.03210526,15.6689655 5.20421053,15.3694581 L11.1110526,5.1546798 C11.2847368,4.85674877 11.7094737,4.61083744 12.0568421,4.61083744 L23.8705263,4.61083744 C24.2178947,4.61083744 24.6426316,4.85517241 24.8163158,5.1546798 L30.7231579,15.3694581 C30.8968421,15.6689655 30.8968421,16.1607882 30.7247368,16.4571429 Z" id="Shape"></path>
                <g id="Group" transform="translate(42.631579, 4.256158)">
                    <path d="M25.7636842,14.8476847 L25.7636842,9.30995074 L18.8826316,9.30995074 L18.8826316,14.8476847 L16.5947368,14.8476847 L16.5947368,2.74128079 C16.5947368,2.65300493 17.2642105,1.8017734 18.7910526,0.365714286 L25.6721053,0.365714286 C25.7605263,0.365714286 26.6147368,1.21852217 28.0515789,2.74128079 L28.0515789,14.8476847 L25.7636842,14.8476847 Z M18.8810526,2.84216749 L18.8810526,7.01477833 L25.7621053,7.01477833 L25.7621053,2.84216749 L18.8810526,2.84216749 Z" id="Shape"></path>
                    <path d="M73.2568421,0.354679803 L80.4536842,0.354679803 C80.5484211,0.354679803 81.2936842,1.13182266 82.6894737,2.61990148 L82.6894737,12.6423645 C82.6894737,12.7369458 81.9442105,13.4526108 80.4536842,14.8461084 L73.2568421,14.8461084 C73.1621053,14.8461084 72.4184211,14.1304433 71.0194737,12.6423645 L71.0194737,2.61990148 C71.0194737,2.52689655 71.7663158,1.74975369 73.2568421,0.354679803 Z M73.3578947,2.72078818 L73.3578947,12.6423645 L80.4126316,12.6423645 L80.4126316,2.72078818 L73.3578947,2.72078818 Z" id="Shape"></path>
                    <polygon id="Path" points="41.6194737 0.354679803 43.7873684 2.56 48.5542105 2.56 48.5542105 14.8476847 50.6384211 14.8476847 50.6384211 2.58995074 55.41 2.58995074 57.6757895 0.354679803"></polygon>
                    <path d="M30.1721053,0.365714286 L30.1721053,0.567487685 L30.1721053,14.8476847 L32.3984211,14.8476847 L32.3984211,9.10660099 L39.4910526,9.10660099 C40.9768421,7.71940887 41.7189474,6.97852217 41.7189474,6.88236453 L41.7189474,2.74128079 C40.2536842,1.19330049 39.4784211,0.365714286 39.39,0.365714286 L30.3710526,0.365714286 L30.1721053,0.365714286 Z M39.4910526,6.88236453 L32.2957895,6.88236453 L32.2957895,2.74128079 L39.4910526,2.74128079 L39.4910526,6.88236453 Z" id="Shape"></path>
                    <polygon id="Path" points="68.9289474 12.6738916 59.6510526 12.6738916 59.6510526 2.59940887 68.9289474 2.59940887 68.9289474 0.354679803 59.6510526 0.354679803 57.4547368 2.59940887 57.4547368 12.6833498 59.6510526 14.8476847 68.9289474 14.8476847"></polygon>
                    <polygon id="Path" points="12.3394737 0.356256158 7.22052632 7.38995074 2.14894737 0.387783251 0.0552631579 0.387783251 0.0552631579 14.8461084 0.107368421 14.8476847 2.12684211 14.8476847 2.12684211 3.63034483 6.06473684 9.04669951 8.11894737 9.04669951 12.3189474 3.44906404 12.3189474 14.8461084 14.5168421 14.8461084 14.5168421 0.356256158"></polygon>
                </g>
                <g id="Group" transform="translate(42.631579, 21.044335)">
                    <polygon id="Path" points="3.71526316 0.561182266 3.71526316 1.18857143 0.768947368 1.18857143 0.768947368 2.97458128 3.35368421 2.97458128 3.35368421 3.6035468 0.768947368 3.6035468 0.768947368 6.17615764 0.0205263158 6.17615764 0.0205263158 0.559605911 3.71526316 0.559605911"></polygon>
                    <path d="M11.3257895,0.561182266 L13.5268421,6.17773399 L12.6994737,6.17773399 L12.0836842,4.48630542 L9.70421053,4.48630542 L9.07421053,6.17773399 L8.31157895,6.17773399 L10.5031579,0.561182266 L11.3257895,0.561182266 L11.3257895,0.561182266 Z M11.8468421,3.85418719 L10.9089474,1.23428571 L10.8947368,1.23428571 L9.94105263,3.85418719 L11.8468421,3.85418719 L11.8468421,3.85418719 Z" id="Shape"></path>
                    <path d="M21.7578947,1.32729064 C21.5068421,1.14600985 21.1894737,1.05615764 20.7994737,1.05615764 C20.6415789,1.05615764 20.4868421,1.07192118 20.3336842,1.10187192 C20.1821053,1.13339901 20.0463158,1.18541872 19.9294737,1.25950739 C19.8110526,1.33359606 19.7163158,1.43133005 19.6436842,1.55586207 C19.5726316,1.67881773 19.5394737,1.83330049 19.5394737,2.01458128 C19.5394737,2.18640394 19.5915789,2.32827586 19.6942105,2.43704433 C19.7952632,2.54423645 19.9326316,2.63251232 20.1031579,2.70029557 C20.2736842,2.76965517 20.4694737,2.82482759 20.6826316,2.86896552 C20.8989474,2.91310345 21.1152632,2.96197044 21.3394737,3.0155665 C21.5636842,3.06758621 21.7831579,3.12906404 21.9994737,3.2 C22.2142105,3.27093596 22.4068421,3.3670936 22.5773684,3.48689655 C22.7463158,3.60669951 22.8852632,3.75960591 22.9863158,3.94246305 C23.0889474,4.12689655 23.1410526,4.35862069 23.1410526,4.63605911 C23.1410526,4.93399015 23.0747368,5.19093596 22.9405263,5.40216749 C22.8047368,5.61497537 22.6357895,5.78679803 22.4242105,5.92236453 C22.2142105,6.05477833 21.9805263,6.15251232 21.72,6.21241379 C21.4594737,6.27389163 21.2005263,6.30541872 20.9447368,6.30541872 C20.6305263,6.30541872 20.3289474,6.26600985 20.0494737,6.18719212 C19.7684211,6.10837438 19.5205263,5.99014778 19.3089474,5.82778325 C19.0957895,5.66699507 18.9284211,5.46522167 18.8052632,5.21458128 C18.6821053,4.96551724 18.6189474,4.66916256 18.6189474,4.32866995 L19.3294737,4.32866995 C19.3294737,4.5635468 19.3752632,4.76689655 19.4668421,4.93871921 C19.56,5.10896552 19.6815789,5.24926108 19.83,5.35960591 C19.98,5.46995074 20.1552632,5.55034483 20.3542105,5.60236453 C20.5531579,5.65596059 20.7584211,5.68275862 20.97,5.68275862 C21.1357895,5.68275862 21.3063158,5.66699507 21.4768421,5.63546798 C21.6473684,5.60236453 21.8021053,5.55034483 21.9394737,5.4746798 C22.0736842,5.39901478 22.1857895,5.29655172 22.2694737,5.16413793 C22.3547368,5.03330049 22.3973684,4.8662069 22.3973684,4.66285714 C22.3973684,4.46896552 22.3436842,4.30975369 22.2410526,4.18837438 C22.1384211,4.06857143 22.0026316,3.96926108 21.8321053,3.89359606 C21.6615789,3.81793103 21.4673684,3.7564532 21.2526316,3.71073892 C21.0363158,3.66187192 20.8184211,3.61300493 20.5957895,3.56256158 C20.3715789,3.51369458 20.1521053,3.45536946 19.9357895,3.39073892 C19.7194737,3.32610837 19.5284211,3.23940887 19.3578947,3.13221675 C19.1873684,3.02502463 19.05,2.88630542 18.9473684,2.71448276 C18.8447368,2.54423645 18.7942105,2.33142857 18.7942105,2.0729064 C18.7942105,1.78916256 18.8494737,1.54482759 18.9647368,1.33674877 C19.0815789,1.13024631 19.2347368,0.961576355 19.4273684,0.826009852 C19.6184211,0.693596059 19.8363158,0.59270936 20.0810526,0.528078818 C20.3242105,0.463448276 20.5752632,0.430344828 20.8326316,0.430344828 C21.1231579,0.430344828 21.39,0.463448276 21.6378947,0.531231527 C21.8857895,0.599014778 22.1005263,0.706206897 22.2884211,0.854384236 C22.4731579,1.00256158 22.6215789,1.18699507 22.7273684,1.40768473 C22.8347368,1.63310345 22.8963158,1.89793103 22.9042105,2.20847291 L22.1968421,2.20847291 C22.1510526,1.79862069 22.0057895,1.50857143 21.7578947,1.32729064 Z" id="Path"></path>
                    <polygon id="Path" points="28.3089474 1.18857143 28.3089474 0.561182266 32.8105263 0.561182266 32.8105263 1.18857143 30.9315789 1.18857143 30.9315789 6.17615764 30.1847368 6.17615764 30.1847368 1.18857143 28.3089474 1.18857143"></polygon>
                    <polygon id="Path" points="42.1768421 0.561182266 42.1768421 1.18857143 39.0394737 1.18857143 39.0394737 2.97458128 41.9636842 2.97458128 41.9636842 3.6035468 39.0394737 3.6035468 39.0394737 5.54719212 42.2005263 5.54719212 42.2005263 6.17615764 38.2926316 6.17615764 38.2926316 0.559605911 42.1768421 0.559605911"></polygon>
                    <polygon id="Path" points="48.7563158 0.561182266 51.7184211 5.11527094 51.7342105 5.11527094 51.7342105 0.561182266 52.4431579 0.561182266 52.4431579 6.17773399 51.6252632 6.17773399 48.6852632 1.67093596 48.6710526 1.67093596 48.6710526 6.17773399 47.9621053 6.17773399 47.9621053 0.561182266 48.7563158 0.561182266"></polygon>
                    <polygon id="Path" points="62.4047368 0.561182266 62.4047368 1.18857143 59.2689474 1.18857143 59.2689474 2.97458128 62.1931579 2.97458128 62.1931579 3.6035468 59.2689474 3.6035468 59.2689474 5.54719212 62.4268421 5.54719212 62.4268421 6.17615764 58.5189474 6.17615764 58.5189474 0.559605911 62.4047368 0.559605911"></polygon>
                    <path d="M70.8442105,0.561182266 C71.3810526,0.561182266 71.7994737,0.69044335 72.1010526,0.952118227 C72.4026316,1.21536946 72.5542105,1.57477833 72.5542105,2.03192118 C72.5542105,2.37241379 72.4768421,2.67034483 72.3221053,2.928867 C72.1673684,3.18423645 71.9178947,3.35921182 71.5784211,3.45536946 L71.5784211,3.471133 C71.7410526,3.50108374 71.8752632,3.5546798 71.9747368,3.62876847 C72.0773684,3.70285714 72.1594737,3.78955665 72.2194737,3.8920197 C72.2794737,3.99448276 72.3236842,4.10955665 72.3536842,4.23566502 C72.3836842,4.3617734 72.4042105,4.49103448 72.4184211,4.62975369 C72.4310526,4.7653202 72.4389474,4.90403941 72.4452632,5.04591133 C72.45,5.18778325 72.4626316,5.32650246 72.4815789,5.46364532 C72.5036842,5.60078818 72.5336842,5.73004926 72.5731579,5.85300493 C72.6126316,5.97596059 72.6726316,6.08315271 72.75,6.17931034 L71.9178947,6.17931034 C71.8657895,6.12098522 71.8278947,6.04374384 71.8105263,5.94285714 C71.7931579,5.84512315 71.7805263,5.73320197 71.7757895,5.61024631 C71.7710526,5.48571429 71.7647368,5.35487685 71.7584211,5.21300493 C71.7536842,5.06955665 71.7394737,4.93083744 71.7126316,4.79369458 C71.6921053,4.65812808 71.6668421,4.528867 71.6336842,4.40591133 C71.6021053,4.28295567 71.5515789,4.17418719 71.4821053,4.08275862 C71.4157895,3.98975369 71.3257895,3.91724138 71.2152632,3.86206897 C71.1047368,3.80847291 70.9594737,3.78009852 70.7747368,3.78009852 L68.9478947,3.78009852 L68.9478947,6.17931034 L68.1947368,6.17931034 L68.1947368,0.562758621 L70.8442105,0.562758621 L70.8442105,0.561182266 Z M71.0005263,3.10699507 C71.1584211,3.0817734 71.2973684,3.02975369 71.4157895,2.95408867 C71.5326316,2.87842365 71.6289474,2.77753695 71.7,2.64827586 C71.7710526,2.51901478 71.8042105,2.35192118 71.8042105,2.15014778 C71.8042105,1.86482759 71.7268421,1.63625616 71.5673684,1.45812808 C71.4110526,1.28 71.1568421,1.19014778 70.8063158,1.19014778 L68.9463158,1.19014778 L68.9463158,3.1479803 L70.5047368,3.1479803 C70.6784211,3.14640394 70.8442105,3.1337931 71.0005263,3.10699507 Z" id="Shape"></path>
                    <path d="M81.2731579,1.32729064 C81.0221053,1.14600985 80.7031579,1.05615764 80.3147368,1.05615764 C80.1568421,1.05615764 80.0036842,1.07192118 79.8505263,1.10187192 C79.6973684,1.13339901 79.5615789,1.18541872 79.4447368,1.25950739 C79.3263158,1.33359606 79.23,1.43133005 79.1605263,1.55586207 C79.0878947,1.67881773 79.0531579,1.83330049 79.0531579,2.01458128 C79.0531579,2.18640394 79.1052632,2.32827586 79.2078947,2.43704433 C79.3121053,2.54423645 79.4463158,2.63251232 79.6184211,2.70029557 C79.7889474,2.76965517 79.9815789,2.82482759 80.1978947,2.86896552 C80.4142105,2.91310345 80.6321053,2.96197044 80.8547368,3.0155665 C81.0789474,3.06758621 81.2984211,3.12906404 81.5147368,3.2 C81.7310526,3.27093596 81.9221053,3.3670936 82.0926316,3.48689655 C82.2615789,3.60669951 82.3989474,3.75960591 82.5031579,3.94246305 C82.6042105,4.12689655 82.6563158,4.35862069 82.6563158,4.63605911 C82.6563158,4.93399015 82.59,5.19093596 82.4557895,5.40216749 C82.3215789,5.61497537 82.1494737,5.78679803 81.9378947,5.92236453 C81.7310526,6.05477833 81.4942105,6.15251232 81.2352632,6.21241379 C80.9747368,6.27389163 80.7173684,6.30541872 80.4584211,6.30541872 C80.1442105,6.30541872 79.8442105,6.26600985 79.5647368,6.18719212 C79.2836842,6.10837438 79.0373684,5.99014778 78.8226316,5.82778325 C78.6110526,5.66699507 78.4436842,5.46522167 78.3221053,5.21458128 C78.1973684,4.96551724 78.1357895,4.66916256 78.1357895,4.32866995 L78.8447368,4.32866995 C78.8447368,4.5635468 78.8905263,4.76689655 78.9821053,4.93871921 C79.0736842,5.10896552 79.1952632,5.24926108 79.3436842,5.35960591 C79.4936842,5.46995074 79.6689474,5.55034483 79.8694737,5.60236453 C80.0668421,5.65596059 80.2721053,5.68275862 80.4836842,5.68275862 C80.6510526,5.68275862 80.82,5.66699507 80.9905263,5.63546798 C81.1610526,5.60236453 81.3142105,5.55034483 81.4515789,5.4746798 C81.5889474,5.39901478 81.6978947,5.29655172 81.7831579,5.16413793 C81.8668421,5.03330049 81.9094737,4.8662069 81.9094737,4.66285714 C81.9094737,4.46896552 81.8573684,4.30975369 81.7547368,4.18837438 C81.6536842,4.06857143 81.5163158,3.96926108 81.3457895,3.89359606 C81.1752632,3.81793103 80.9794737,3.7564532 80.7647368,3.71073892 C80.5484211,3.66187192 80.3321053,3.61300493 80.1078947,3.56256158 C79.8836842,3.51369458 79.6657895,3.45536946 79.4494737,3.39073892 C79.2347368,3.32610837 79.0405263,3.23940887 78.8715789,3.13221675 C78.7010526,3.02502463 78.5636842,2.88630542 78.4626316,2.71448276 C78.3584211,2.54423645 78.3063158,2.33142857 78.3063158,2.0729064 C78.3063158,1.78916256 78.3631579,1.54482759 78.4784211,1.33674877 C78.5952632,1.13024631 78.7484211,0.961576355 78.9410526,0.826009852 C79.1321053,0.693596059 79.35,0.59270936 79.5947368,0.528078818 C79.8378947,0.463448276 80.0889474,0.430344828 80.3478947,0.430344828 C80.6384211,0.430344828 80.9052632,0.463448276 81.1515789,0.531231527 C81.3978947,0.599014778 81.6142105,0.706206897 81.8021053,0.854384236 C81.9884211,1.00256158 82.1352632,1.18699507 82.2426316,1.40768473 C82.3484211,1.63310345 82.4084211,1.89793103 82.4178947,2.20847291 L81.7105263,2.20847291 C81.6663158,1.79862069 81.5210526,1.50857143 81.2731579,1.32729064 Z" id="Path"></path>
                </g>
            </g>
        </g>
    </g>
</svg>