<?xml version="1.0" encoding="UTF-8"?>
<svg width="20px" height="20px" viewBox="0 0 20 20" version="1.1" xmlns="http://www.w3.org/2000/svg" xmlns:xlink="http://www.w3.org/1999/xlink">
    <title>Shape 2</title>
    <g id="Symbols" stroke="none" stroke-width="1" fill="none" fill-rule="evenodd">
        <g id="Header_Mobile" transform="translate(-334.000000, -40.000000)" fill="#4B4B4B" fill-rule="nonzero">
            <g id="Shape-2" transform="translate(334.000000, 40.000000)">
                <path d="M19.8226164,18.9800443 L14.962306,14.1197339 C16.2660754,12.6208426 17.0554324,10.6651885 17.0554324,8.52771619 C17.0554324,3.82261641 13.2283814,0 8.52771619,0 C3.82261641,0 1.97372982e-15,3.827051 1.97372982e-15,8.52771619 C1.97372982e-15,13.2283814 3.827051,17.0554324 8.52771619,17.0554324 C10.6651885,17.0554324 12.6208426,16.2660754 14.1197339,14.962306 L18.9800443,19.8226164 C19.0953437,19.9379157 19.2505543,20 19.4013304,20 C19.5521064,20 19.7073171,19.9423503 19.8226164,19.8226164 C20.0532151,19.5920177 20.0532151,19.210643 19.8226164,18.9800443 Z M1.19290466,8.52771619 C1.19290466,4.48337029 4.48337029,1.19733925 8.5232816,1.19733925 C12.5676275,1.19733925 15.8536585,4.48780488 15.8536585,8.52771619 C15.8536585,12.5676275 12.5676275,15.8625277 8.5232816,15.8625277 C4.48337029,15.8625277 1.19290466,12.5720621 1.19290466,8.52771619 Z" id="Shape"></path>
            </g>
        </g>
    </g>
</svg>