<?xml version="1.0" encoding="UTF-8"?>
<svg width="335px" height="48px" viewBox="0 0 335 48" version="1.1" xmlns="http://www.w3.org/2000/svg" xmlns:xlink="http://www.w3.org/1999/xlink">
    <title>Group 8</title>
    <g id="Page-1" stroke="none" stroke-width="1" fill="none" fill-rule="evenodd">
        <g id="maptco_homepage_mobile" transform="translate(-20.000000, -338.000000)" fill="#FFFFFF" fill-rule="nonzero">
            <g id="Group-8" transform="translate(20.000000, 338.000000)">
                <path d="M19.5293877,27.7679625 C20.1599759,27.7679625 20.7203084,27.6376768 21.2103851,27.3771054 C21.7004618,27.1165339 22.0945795,26.7685339 22.3927381,26.3331054 C22.6908966,25.8976768 22.8811012,25.4125339 22.9633519,24.8776768 L22.9633519,24.8776768 L22.9633519,23.7565339 L19.3134798,23.7565339 L19.3134798,24.6205339 L21.9763442,24.6205339 C21.8872393,25.2719625 21.626779,25.7845339 21.1949631,26.1582482 C20.7631473,26.5319625 20.2456537,26.7188197 19.6424823,26.7188197 C19.1489785,26.7188197 18.7154491,26.6142482 18.3418941,26.4051054 C17.9683391,26.1959625 17.6787483,25.8925339 17.4731217,25.4948197 C17.2674951,25.0971054 17.1646818,24.6205339 17.1646818,24.0651054 C17.1646818,23.5371054 17.2657815,23.0776768 17.467981,22.6868197 C17.6701805,22.2959625 17.9512035,21.9942482 18.3110501,21.7816768 C18.6708966,21.5691054 19.0770092,21.4628197 19.5293877,21.4628197 C20.0228915,21.4628197 20.4495667,21.5793911 20.8094133,21.8125339 C21.1692598,22.0456768 21.4280066,22.3576768 21.5856537,22.7485339 L21.5856537,22.7485339 L22.8194133,22.7485339 C22.6343493,22.0148197 22.2539401,21.4353911 21.6781856,21.0102482 C21.1024312,20.5851054 20.3827381,20.3725339 19.5191063,20.3725339 C18.8131217,20.3725339 18.1911012,20.5285339 17.653045,20.8405339 C17.1149887,21.1525339 16.6985948,21.5879625 16.4038634,22.1468197 C16.1091319,22.7056768 15.9617662,23.3451054 15.9617662,24.0651054 C15.9617662,24.7851054 16.1091319,25.4245339 16.4038634,25.9833911 C16.6985948,26.5422482 17.1167023,26.9793911 17.6581856,27.2948197 C18.199669,27.6102482 18.823403,27.7679625 19.5293877,27.7679625 Z M26.8702572,27.7371054 C27.6790552,27.7371054 28.295935,27.5022482 28.7208966,27.0325339 C29.1458583,26.5628197 29.3583391,25.9473911 29.3583391,25.1862482 C29.3583391,24.7542482 29.277802,24.3599625 29.1167278,24.0033911 C28.9556537,23.6468197 28.7071882,23.3605339 28.3713314,23.1445339 C28.0354746,22.9285339 27.6139401,22.8205339 27.1067278,22.8205339 C26.7434542,22.8205339 26.4110245,22.8839625 26.1094388,23.0108197 C25.8078532,23.1376768 25.5748097,23.3073911 25.4103084,23.5199625 L25.4103084,23.5199625 L25.4103084,21.3599625 L28.9984925,21.3599625 L28.9984925,20.3211054 L24.3307688,20.3211054 L24.3307688,24.5073911 L25.4719964,24.5073911 C25.5816639,24.2811054 25.7547329,24.0993911 25.9912035,23.9622482 C26.2276741,23.8251054 26.5035565,23.7565339 26.8188506,23.7565339 C27.2643749,23.7565339 27.6070859,23.8816768 27.8469836,24.1319625 C28.0868813,24.3822482 28.2068301,24.7268197 28.2068301,25.1656768 C28.2068301,25.6319625 28.0903084,26.0056768 27.8572649,26.2868197 C27.6242214,26.5679625 27.2746562,26.7085339 26.8085693,26.7085339 C26.4315872,26.7085339 26.1214337,26.6022482 25.8781089,26.3896768 C25.6347841,26.1771054 25.4822777,25.8856768 25.4205897,25.5153911 L25.4205897,25.5153911 L24.2690808,25.5153911 C24.3102061,26.1873911 24.5638122,26.7256768 25.0298992,27.1302482 C25.4959861,27.5348197 26.1094388,27.7371054 26.8702572,27.7371054 Z" id="G5"></path>
                <path d="M20.127136,0.622096237 L2.68983317,10.0834133 C1.03232252,10.9827631 9.74043239e-14,12.7177715 9.74043239e-14,14.6041742 L9.74043239e-14,33.0734651 C9.74043239e-14,34.9598678 1.03232252,36.6948762 2.68983317,37.594226 L20.127136,47.0555431 C21.6558422,47.8850047 23.5000934,47.8850047 25.0287996,47.0555431 L42.4661025,37.594226 C44.1236131,36.6948762 45.1559357,34.9598678 45.1559357,33.0734651 L45.1559357,14.6041742 C45.1559357,12.7177715 44.1236131,10.9827631 42.4661025,10.0834133 L25.0287996,0.622096237 C23.5000934,-0.207365412 21.6558422,-0.207365412 20.127136,0.622096237 Z M24.2118557,2.12901654 L41.6491586,11.5903336 C42.7541657,12.1899001 43.4423807,13.3465724 43.4423807,14.6041742 L43.4423807,33.0734651 C43.4423807,34.3310669 42.7541657,35.4877392 41.6491586,36.0873057 L24.2118557,45.5486228 C23.1927182,46.1015972 21.9632174,46.1015972 20.94408,45.5486228 L3.5067771,36.0873057 C2.40177,35.4877392 1.71355499,34.3310669 1.71355499,33.0734651 L1.71355499,14.6041742 C1.71355499,13.3465724 2.40177,12.1899001 3.5067771,11.5903336 L20.94408,2.12901654 C21.9632174,1.57604211 23.1927182,1.57604211 24.2118557,2.12901654 Z" id="Polygon"></path>
                <polygon id="Path-4" points="23.4347453 1.12453395 23.4347453 16.5531054 21.7211903 16.5531054 21.7211903 1.12453395"></polygon>
                <polygon id="Path-4-Copy" points="14.2408095 27.1586947 15.0647426 28.6618017 1.78469142 35.947516 0.960758304 34.444409"></polygon>
                <polygon id="Path-4-Copy-2" transform="translate(37.143185, 31.553105) scale(1, -1) translate(-37.143185, -31.553105) " points="43.3712442 27.1586947 44.1951774 28.6618017 30.9151262 35.947516 30.0911931 34.444409"></polygon>
                <path d="M77.7902572,27.7679625 C78.4208455,27.7679625 78.981178,27.6376768 79.4712547,27.3771054 C79.9613314,27.1165339 80.3554491,26.7685339 80.6536076,26.3331054 C80.9517662,25.8976768 81.1419708,25.4125339 81.2242214,24.8776768 L81.2242214,24.8776768 L81.2242214,23.7565339 L77.5743493,23.7565339 L77.5743493,24.6205339 L80.2372138,24.6205339 C80.1481089,25.2719625 79.8876485,25.7845339 79.4558327,26.1582482 C79.0240168,26.5319625 78.5065232,26.7188197 77.9033519,26.7188197 C77.409848,26.7188197 76.9763186,26.6142482 76.6027636,26.4051054 C76.2292087,26.1959625 75.9396179,25.8925339 75.7339913,25.4948197 C75.5283647,25.0971054 75.4255514,24.6205339 75.4255514,24.0651054 C75.4255514,23.5371054 75.5266511,23.0776768 75.7288506,22.6868197 C75.9310501,22.2959625 76.2120731,21.9942482 76.5719196,21.7816768 C76.9317662,21.5691054 77.3378787,21.4628197 77.7902572,21.4628197 C78.2837611,21.4628197 78.7104363,21.5793911 79.0702828,21.8125339 C79.4301294,22.0456768 79.6888762,22.3576768 79.8465232,22.7485339 L79.8465232,22.7485339 L81.0802828,22.7485339 C80.8952189,22.0148197 80.5148097,21.4353911 79.9390552,21.0102482 C79.3633007,20.5851054 78.6436076,20.3725339 77.7799759,20.3725339 C77.0739913,20.3725339 76.4519708,20.5285339 75.9139145,20.8405339 C75.3758583,21.1525339 74.9594644,21.5879625 74.6647329,22.1468197 C74.3700015,22.7056768 74.2226358,23.3451054 74.2226358,24.0651054 C74.2226358,24.7851054 74.3700015,25.4245339 74.6647329,25.9833911 C74.9594644,26.5422482 75.3775718,26.9793911 75.9190552,27.2948197 C76.4605386,27.6102482 77.0842726,27.7679625 77.7902572,27.7679625 Z M84.9357815,27.8811054 C85.7445795,27.8811054 86.3991575,27.6839625 86.8995156,27.2896768 C87.3998736,26.8953911 87.6500526,26.3451054 87.6500526,25.6388197 C87.6500526,25.1793911 87.5266767,24.7902482 87.2799248,24.4713911 C87.0331728,24.1525339 86.6801805,23.9211054 86.2209478,23.7771054 C86.632201,23.6468197 86.9423544,23.4376768 87.1514081,23.1496768 C87.3604618,22.8616768 87.4649887,22.5188197 87.4649887,22.1211054 C87.4649887,21.7645339 87.3673161,21.4388197 87.1719708,21.1439625 C86.9766255,20.8491054 86.6887483,20.6125339 86.3083391,20.4342482 C85.9279299,20.2559625 85.4704107,20.1668197 84.9357815,20.1668197 C84.4011524,20.1668197 83.9436332,20.2559625 83.563224,20.4342482 C83.1828148,20.6125339 82.8966511,20.8491054 82.7047329,21.1439625 C82.5128148,21.4388197 82.4168557,21.7645339 82.4168557,22.1211054 C82.4168557,22.5188197 82.5213826,22.8616768 82.7304363,23.1496768 C82.93949,23.4376768 83.2496434,23.6468197 83.6608966,23.7771054 C83.2016639,23.9211054 82.8486716,24.1525339 82.6019196,24.4713911 C82.3551677,24.7902482 82.2317918,25.1793911 82.2317918,25.6388197 C82.2317918,26.3451054 82.4802572,26.8953911 82.9771882,27.2896768 C83.4741191,27.6839625 84.1269836,27.8811054 84.9357815,27.8811054 Z M84.9357815,23.4685339 C84.5176741,23.4685339 84.186958,23.3673911 83.9436332,23.1651054 C83.7003084,22.9628197 83.578646,22.6765339 83.578646,22.3062482 C83.578646,21.9359625 83.702022,21.6479625 83.9487739,21.4422482 C84.1955258,21.2365339 84.5245283,21.1336768 84.9357815,21.1336768 C85.3470347,21.1336768 85.6777509,21.2365339 85.9279299,21.4422482 C86.1781089,21.6479625 86.3031984,21.9359625 86.3031984,22.3062482 C86.3031984,22.6765339 86.1798225,22.9628197 85.9330705,23.1651054 C85.6863186,23.3673911 85.353889,23.4685339 84.9357815,23.4685339 Z M84.9357815,26.9142482 C84.4559861,26.9142482 84.0755769,26.7959625 83.7945539,26.5593911 C83.5135309,26.3228197 83.3730194,25.9953911 83.3730194,25.5771054 C83.3730194,25.1588197 83.5203851,24.8399625 83.8151166,24.6205339 C84.109848,24.4011054 84.483403,24.2913911 84.9357815,24.2913911 C85.3950143,24.2913911 85.7702828,24.3993911 86.0615872,24.6153911 C86.3528915,24.8313911 86.4985437,25.1519625 86.4985437,25.5771054 C86.4985437,25.9953911 86.3580322,26.3228197 86.0770092,26.5593911 C85.7959861,26.7959625 85.4155769,26.9142482 84.9357815,26.9142482 Z" id="G8"></path>
                <path d="M78.3880056,0.622096237 L60.9507027,10.0834133 C59.2931921,10.9827631 58.2608696,12.7177715 58.2608696,14.6041742 L58.2608696,33.0734651 C58.2608696,34.9598678 59.2931921,36.6948762 60.9507027,37.594226 L78.3880056,47.0555431 C79.9167118,47.8850047 81.760963,47.8850047 83.2896692,47.0555431 L100.726972,37.594226 C102.384483,36.6948762 103.416805,34.9598678 103.416805,33.0734651 L103.416805,14.6041742 C103.416805,12.7177715 102.384483,10.9827631 100.726972,10.0834133 L83.2896692,0.622096237 C81.760963,-0.207365412 79.9167118,-0.207365412 78.3880056,0.622096237 Z M82.4727253,2.12901654 L99.9100281,11.5903336 C101.015035,12.1899001 101.70325,13.3465724 101.70325,14.6041742 L101.70325,33.0734651 C101.70325,34.3310669 101.015035,35.4877392 99.9100281,36.0873057 L82.4727253,45.5486228 C81.4535878,46.1015972 80.224087,46.1015972 79.2049495,45.5486228 L61.7676467,36.0873057 C60.6626396,35.4877392 59.9744246,34.3310669 59.9744246,33.0734651 L59.9744246,14.6041742 C59.9744246,13.3465724 60.6626396,12.1899001 61.7676467,11.5903336 L79.2049495,2.12901654 C80.224087,1.57604211 81.4535878,1.57604211 82.4727253,2.12901654 Z" id="Polygon-Copy"></path>
                <polygon id="Path-4-Copy-3" points="81.6956149 1.12453395 81.6956149 16.5531054 79.9820599 16.5531054 79.9820599 1.12453395"></polygon>
                <polygon id="Path-4-Copy-5" transform="translate(95.404055, 31.553105) scale(1, -1) translate(-95.404055, -31.553105) " points="101.632114 27.1586947 102.456047 28.6618017 89.1759958 35.947516 88.3520627 34.444409"></polygon>
                <polygon id="Path-4-Copy-4" points="72.501679 27.1586947 73.3256121 28.6618017 60.045561 35.947516 59.2216279 34.444409"></polygon>
                <path d="M130.910462,27.7679625 C131.54105,27.7679625 132.101383,27.6376768 132.591459,27.3771054 C133.081536,27.1165339 133.475654,26.7685339 133.773812,26.3331054 C134.071971,25.8976768 134.262175,25.4125339 134.344426,24.8776768 L134.344426,24.8776768 L134.344426,23.7565339 L130.694554,23.7565339 L130.694554,24.6205339 L133.357418,24.6205339 C133.268314,25.2719625 133.007853,25.7845339 132.576037,26.1582482 C132.144221,26.5319625 131.626728,26.7188197 131.023556,26.7188197 C130.530053,26.7188197 130.096523,26.6142482 129.722968,26.4051054 C129.349413,26.1959625 129.059822,25.8925339 128.854196,25.4948197 C128.648569,25.0971054 128.545756,24.6205339 128.545756,24.0651054 C128.545756,23.5371054 128.646856,23.0776768 128.849055,22.6868197 C129.051255,22.2959625 129.332278,21.9942482 129.692124,21.7816768 C130.051971,21.5691054 130.458083,21.4628197 130.910462,21.4628197 C131.403966,21.4628197 131.830641,21.5793911 132.190487,21.8125339 C132.550334,22.0456768 132.809081,22.3576768 132.966728,22.7485339 L132.966728,22.7485339 L134.200487,22.7485339 C134.015423,22.0148197 133.635014,21.4353911 133.05926,21.0102482 C132.483505,20.5851054 131.763812,20.3725339 130.900181,20.3725339 C130.194196,20.3725339 129.572175,20.5285339 129.034119,20.8405339 C128.496063,21.1525339 128.079669,21.5879625 127.784938,22.1468197 C127.490206,22.7056768 127.34284,23.3451054 127.34284,24.0651054 C127.34284,24.7851054 127.490206,25.4245339 127.784938,25.9833911 C128.079669,26.5422482 128.497776,26.9793911 129.03926,27.2948197 C129.580743,27.6102482 130.204477,27.7679625 130.910462,27.7679625 Z M140.040283,27.6959625 L140.040283,26.1325339 L141.058134,26.1325339 L141.058134,25.1039625 L140.040283,25.1039625 L140.040283,20.3725339 L138.785961,20.3725339 L135.177214,25.1451054 L135.177214,26.1325339 L138.85793,26.1325339 L138.85793,27.6959625 L140.040283,27.6959625 Z M138.940181,25.1039625 L136.390411,25.1039625 L138.940181,21.7713911 L138.940181,25.1039625 Z M142.980743,27.6959625 L142.980743,26.3999625 L141.654452,26.3999625 L141.654452,27.6959625 L142.980743,27.6959625 Z M146.682022,27.7679625 C147.223505,27.7679625 147.679311,27.6599625 148.049439,27.4439625 C148.419567,27.2279625 148.697163,26.9365339 148.882227,26.5696768 C149.06729,26.2028197 149.159822,25.7862482 149.159822,25.3199625 C149.159822,24.5451054 148.957623,23.9451054 148.553224,23.5199625 C148.148825,23.0948197 147.590206,22.8822482 146.877367,22.8822482 C146.41128,22.8822482 146.006881,22.9919625 145.66417,23.2113911 C145.321459,23.4308197 145.098697,23.7256768 144.995884,24.0959625 L144.995884,24.0959625 L144.985603,23.7462482 C144.985603,22.8616768 145.115833,22.2119625 145.376293,21.7971054 C145.636753,21.3822482 146.027444,21.1748197 146.548365,21.1748197 C147.268058,21.1748197 147.689592,21.5793911 147.812968,22.3885339 L147.812968,22.3885339 L148.923352,22.3885339 C148.861664,21.7508197 148.640615,21.2296768 148.260206,20.8251054 C147.879797,20.4205339 147.333173,20.2182482 146.620334,20.2182482 C145.667597,20.2182482 144.982175,20.5405339 144.564068,21.1851054 C144.145961,21.8296768 143.936907,22.8033911 143.936907,24.1062482 C143.936907,25.2445339 144.132252,26.1393911 144.522943,26.7908197 C144.913633,27.4422482 145.633326,27.7679625 146.682022,27.7679625 Z M146.640897,26.7496768 C146.133684,26.7496768 145.749848,26.6005339 145.489388,26.3022482 C145.228927,26.0039625 145.098697,25.6319625 145.098697,25.1862482 C145.098697,24.7405339 145.24949,24.3976768 145.551076,24.1576768 C145.852661,23.9176768 146.205654,23.7976768 146.610053,23.7976768 C147.055577,23.7976768 147.408569,23.9279625 147.66903,24.1885339 C147.92949,24.4491054 148.05972,24.8228197 148.05972,25.3096768 C148.05972,25.7622482 147.931204,26.1153911 147.67417,26.3691054 C147.417137,26.6228197 147.072712,26.7496768 146.640897,26.7496768 Z" id="G4.6"></path>
                <path d="M135.792098,0.622096237 L118.354795,10.0834133 C116.697284,10.9827631 115.664962,12.7177715 115.664962,14.6041742 L115.664962,33.0734651 C115.664962,34.9598678 116.697284,36.6948762 118.354795,37.594226 L135.792098,47.0555431 C137.320804,47.8850047 139.165055,47.8850047 140.693761,47.0555431 L158.131064,37.594226 C159.788575,36.6948762 160.820897,34.9598678 160.820897,33.0734651 L160.820897,14.6041742 C160.820897,12.7177715 159.788575,10.9827631 158.131064,10.0834133 L140.693761,0.622096237 C139.165055,-0.207365412 137.320804,-0.207365412 135.792098,0.622096237 Z M139.876817,2.12901654 L157.31412,11.5903336 C158.419127,12.1899001 159.107342,13.3465724 159.107342,14.6041742 L159.107342,33.0734651 C159.107342,34.3310669 158.419127,35.4877392 157.31412,36.0873057 L139.876817,45.5486228 C138.85768,46.1015972 137.628179,46.1015972 136.609042,45.5486228 L119.171739,36.0873057 C118.066732,35.4877392 117.378517,34.3310669 117.378517,33.0734651 L117.378517,14.6041742 C117.378517,13.3465724 118.066732,12.1899001 119.171739,11.5903336 L136.609042,2.12901654 C137.628179,1.57604211 138.85768,1.57604211 139.876817,2.12901654 Z" id="Polygon-Copy-2"></path>
                <path d="M189.171331,27.7679625 C189.80192,27.7679625 190.362252,27.6376768 190.852329,27.3771054 C191.342406,27.1165339 191.736523,26.7685339 192.034682,26.3331054 C192.33284,25.8976768 192.523045,25.4125339 192.605296,24.8776768 L192.605296,24.8776768 L192.605296,23.7565339 L188.955423,23.7565339 L188.955423,24.6205339 L191.618288,24.6205339 C191.529183,25.2719625 191.268723,25.7845339 190.836907,26.1582482 C190.405091,26.5319625 189.887597,26.7188197 189.284426,26.7188197 C188.790922,26.7188197 188.357393,26.6142482 187.983838,26.4051054 C187.610283,26.1959625 187.320692,25.8925339 187.115065,25.4948197 C186.909439,25.0971054 186.806626,24.6205339 186.806626,24.0651054 C186.806626,23.5371054 186.907725,23.0776768 187.109925,22.6868197 C187.312124,22.2959625 187.593147,21.9942482 187.952994,21.7816768 C188.31284,21.5691054 188.718953,21.4628197 189.171331,21.4628197 C189.664835,21.4628197 190.09151,21.5793911 190.451357,21.8125339 C190.811204,22.0456768 191.06995,22.3576768 191.227597,22.7485339 L191.227597,22.7485339 L192.461357,22.7485339 C192.276293,22.0148197 191.895884,21.4353911 191.320129,21.0102482 C190.744375,20.5851054 190.024682,20.3725339 189.16105,20.3725339 C188.455065,20.3725339 187.833045,20.5285339 187.294989,20.8405339 C186.756932,21.1525339 186.340539,21.5879625 186.045807,22.1468197 C185.751076,22.7056768 185.60371,23.3451054 185.60371,24.0651054 C185.60371,24.7851054 185.751076,25.4245339 186.045807,25.9833911 C186.340539,26.5422482 186.758646,26.9793911 187.300129,27.2948197 C187.841613,27.6102482 188.465347,27.7679625 189.171331,27.7679625 Z M196.316856,27.8811054 C197.125654,27.8811054 197.780232,27.6839625 198.28059,27.2896768 C198.780948,26.8953911 199.031127,26.3451054 199.031127,25.6388197 C199.031127,25.1793911 198.907751,24.7902482 198.660999,24.4713911 C198.414247,24.1525339 198.061255,23.9211054 197.602022,23.7771054 C198.013275,23.6468197 198.323429,23.4376768 198.532482,23.1496768 C198.741536,22.8616768 198.846063,22.5188197 198.846063,22.1211054 C198.846063,21.7645339 198.74839,21.4388197 198.553045,21.1439625 C198.3577,20.8491054 198.069822,20.6125339 197.689413,20.4342482 C197.309004,20.2559625 196.851485,20.1668197 196.316856,20.1668197 C195.782227,20.1668197 195.324707,20.2559625 194.944298,20.4342482 C194.563889,20.6125339 194.277725,20.8491054 194.085807,21.1439625 C193.893889,21.4388197 193.79793,21.7645339 193.79793,22.1211054 C193.79793,22.5188197 193.902457,22.8616768 194.11151,23.1496768 C194.320564,23.4376768 194.630718,23.6468197 195.041971,23.7771054 C194.582738,23.9211054 194.229746,24.1525339 193.982994,24.4713911 C193.736242,24.7902482 193.612866,25.1793911 193.612866,25.6388197 C193.612866,26.3451054 193.861331,26.8953911 194.358262,27.2896768 C194.855193,27.6839625 195.508058,27.8811054 196.316856,27.8811054 Z M196.316856,23.4685339 C195.898748,23.4685339 195.568032,23.3673911 195.324707,23.1651054 C195.081383,22.9628197 194.95972,22.6765339 194.95972,22.3062482 C194.95972,21.9359625 195.083096,21.6479625 195.329848,21.4422482 C195.5766,21.2365339 195.905603,21.1336768 196.316856,21.1336768 C196.728109,21.1336768 197.058825,21.2365339 197.309004,21.4422482 C197.559183,21.6479625 197.684273,21.9359625 197.684273,22.3062482 C197.684273,22.6765339 197.560897,22.9628197 197.314145,23.1651054 C197.067393,23.3673911 196.734963,23.4685339 196.316856,23.4685339 Z M196.316856,26.9142482 C195.83706,26.9142482 195.456651,26.7959625 195.175628,26.5593911 C194.894605,26.3228197 194.754094,25.9953911 194.754094,25.5771054 C194.754094,25.1588197 194.901459,24.8399625 195.196191,24.6205339 C195.490922,24.4011054 195.864477,24.2913911 196.316856,24.2913911 C196.776088,24.2913911 197.151357,24.3993911 197.442661,24.6153911 C197.733966,24.8313911 197.879618,25.1519625 197.879618,25.5771054 C197.879618,25.9953911 197.739106,26.3228197 197.458083,26.5593911 C197.17706,26.7959625 196.796651,26.9142482 196.316856,26.9142482 Z M201.200487,27.6959625 L201.200487,26.3999625 L199.874196,26.3999625 L199.874196,27.6959625 L201.200487,27.6959625 Z M204.757828,27.8811054 C205.566626,27.8811054 206.221204,27.6839625 206.721562,27.2896768 C207.22192,26.8953911 207.472099,26.3451054 207.472099,25.6388197 C207.472099,25.1793911 207.348723,24.7902482 207.101971,24.4713911 C206.855219,24.1525339 206.502227,23.9211054 206.042994,23.7771054 C206.454247,23.6468197 206.7644,23.4376768 206.973454,23.1496768 C207.182508,22.8616768 207.287035,22.5188197 207.287035,22.1211054 C207.287035,21.7645339 207.189362,21.4388197 206.994017,21.1439625 C206.798672,20.8491054 206.510794,20.6125339 206.130385,20.4342482 C205.749976,20.2559625 205.292457,20.1668197 204.757828,20.1668197 C204.223198,20.1668197 203.765679,20.2559625 203.38527,20.4342482 C203.004861,20.6125339 202.718697,20.8491054 202.526779,21.1439625 C202.334861,21.4388197 202.238902,21.7645339 202.238902,22.1211054 C202.238902,22.5188197 202.343429,22.8616768 202.552482,23.1496768 C202.761536,23.4376768 203.071689,23.6468197 203.482943,23.7771054 C203.02371,23.9211054 202.670718,24.1525339 202.423966,24.4713911 C202.177214,24.7902482 202.053838,25.1793911 202.053838,25.6388197 C202.053838,26.3451054 202.302303,26.8953911 202.799234,27.2896768 C203.296165,27.6839625 203.94903,27.8811054 204.757828,27.8811054 Z M204.757828,23.4685339 C204.33972,23.4685339 204.009004,23.3673911 203.765679,23.1651054 C203.522354,22.9628197 203.400692,22.6765339 203.400692,22.3062482 C203.400692,21.9359625 203.524068,21.6479625 203.77082,21.4422482 C204.017572,21.2365339 204.346574,21.1336768 204.757828,21.1336768 C205.169081,21.1336768 205.499797,21.2365339 205.749976,21.4422482 C206.000155,21.6479625 206.125244,21.9359625 206.125244,22.3062482 C206.125244,22.6765339 206.001868,22.9628197 205.755117,23.1651054 C205.508365,23.3673911 205.175935,23.4685339 204.757828,23.4685339 Z M204.757828,26.9142482 C204.278032,26.9142482 203.897623,26.7959625 203.6166,26.5593911 C203.335577,26.3228197 203.195065,25.9953911 203.195065,25.5771054 C203.195065,25.1588197 203.342431,24.8399625 203.637163,24.6205339 C203.931894,24.4011054 204.305449,24.2913911 204.757828,24.2913911 C205.21706,24.2913911 205.592329,24.3993911 205.883633,24.6153911 C206.174938,24.8313911 206.32059,25.1519625 206.32059,25.5771054 C206.32059,25.9953911 206.180078,26.3228197 205.899055,26.5593911 C205.618032,26.7959625 205.237623,26.9142482 204.757828,26.9142482 Z" id="G8.8"></path>
                <path d="M194.052967,0.622096237 L176.615664,10.0834133 C174.958154,10.9827631 173.925831,12.7177715 173.925831,14.6041742 L173.925831,33.0734651 C173.925831,34.9598678 174.958154,36.6948762 176.615664,37.594226 L194.052967,47.0555431 C195.581673,47.8850047 197.425925,47.8850047 198.954631,47.0555431 L216.391934,37.594226 C218.049444,36.6948762 219.081767,34.9598678 219.081767,33.0734651 L219.081767,14.6041742 C219.081767,12.7177715 218.049444,10.9827631 216.391934,10.0834133 L198.954631,0.622096237 C197.425925,-0.207365412 195.581673,-0.207365412 194.052967,0.622096237 Z M198.137687,2.12901654 L215.57499,11.5903336 C216.679997,12.1899001 217.368212,13.3465724 217.368212,14.6041742 L217.368212,33.0734651 C217.368212,34.3310669 216.679997,35.4877392 215.57499,36.0873057 L198.137687,45.5486228 C197.118549,46.1015972 195.889049,46.1015972 194.869911,45.5486228 L177.432608,36.0873057 C176.327601,35.4877392 175.639386,34.3310669 175.639386,33.0734651 L175.639386,14.6041742 C175.639386,13.3465724 176.327601,12.1899001 177.432608,11.5903336 L194.869911,2.12901654 C195.889049,1.57604211 197.118549,1.57604211 198.137687,2.12901654 Z" id="Polygon-Copy-3"></path>
                <path d="M245.718646,27.7679625 C246.349234,27.7679625 246.909567,27.6376768 247.399643,27.3771054 C247.88972,27.1165339 248.283838,26.7685339 248.581996,26.3331054 C248.880155,25.8976768 249.07036,25.4125339 249.15261,24.8776768 L249.15261,24.8776768 L249.15261,23.7565339 L245.502738,23.7565339 L245.502738,24.6205339 L248.165603,24.6205339 C248.076498,25.2719625 247.816037,25.7845339 247.384221,26.1582482 C246.952406,26.5319625 246.434912,26.7188197 245.831741,26.7188197 C245.338237,26.7188197 244.904707,26.6142482 244.531152,26.4051054 C244.157597,26.1959625 243.868007,25.8925339 243.66238,25.4948197 C243.456753,25.0971054 243.35394,24.6205339 243.35394,24.0651054 C243.35394,23.5371054 243.45504,23.0776768 243.657239,22.6868197 C243.859439,22.2959625 244.140462,21.9942482 244.500308,21.7816768 C244.860155,21.5691054 245.266267,21.4628197 245.718646,21.4628197 C246.21215,21.4628197 246.638825,21.5793911 246.998672,21.8125339 C247.358518,22.0456768 247.617265,22.3576768 247.774912,22.7485339 L247.774912,22.7485339 L249.008672,22.7485339 C248.823608,22.0148197 248.443198,21.4353911 247.867444,21.0102482 C247.291689,20.5851054 246.571996,20.3725339 245.708365,20.3725339 C245.00238,20.3725339 244.38036,20.5285339 243.842303,20.8405339 C243.304247,21.1525339 242.887853,21.5879625 242.593122,22.1468197 C242.29839,22.7056768 242.151025,23.3451054 242.151025,24.0651054 C242.151025,24.7851054 242.29839,25.4245339 242.593122,25.9833911 C242.887853,26.5422482 243.305961,26.9793911 243.847444,27.2948197 C244.388927,27.6102482 245.012661,27.7679625 245.718646,27.7679625 Z M252.082789,27.6959625 L252.082789,20.4342482 L249.759209,20.4342482 L249.759209,21.5348197 L250.84903,21.5348197 L250.84903,27.6959625 L252.082789,27.6959625 Z M255.989695,27.7165339 C256.949285,27.7165339 257.634707,27.3873911 258.045961,26.7291054 C258.457214,26.0708197 258.66284,25.1656768 258.66284,24.0136768 C258.66284,22.8685339 258.457214,21.9685339 258.045961,21.3136768 C257.634707,20.6588197 256.949285,20.3313911 255.989695,20.3313911 C255.030104,20.3313911 254.344682,20.6571054 253.933429,21.3085339 C253.522175,21.9599625 253.316549,22.8616768 253.316549,24.0136768 C253.316549,25.1725339 253.522175,26.0793911 253.933429,26.7342482 C254.344682,27.3891054 255.030104,27.7165339 255.989695,27.7165339 Z M255.989695,26.6056768 C255.393377,26.6056768 254.992406,26.3828197 254.786779,25.9371054 C254.581152,25.4913911 254.478339,24.8502482 254.478339,24.0136768 C254.478339,23.1839625 254.581152,22.5496768 254.786779,22.1108197 C254.992406,21.6719625 255.393377,21.4525339 255.989695,21.4525339 C256.579158,21.4525339 256.976702,21.6736768 257.182329,22.1159625 C257.387955,22.5582482 257.490769,23.1908197 257.490769,24.0136768 C257.490769,24.8502482 257.387955,25.4913911 257.182329,25.9371054 C256.976702,26.3828197 256.579158,26.6056768 255.989695,26.6056768 Z M260.82192,27.6959625 L260.82192,26.3999625 L259.495628,26.3999625 L259.495628,27.6959625 L260.82192,27.6959625 Z M264.245603,27.7782482 C265.177776,27.7782482 265.844349,27.4422482 266.245321,26.7702482 C266.646293,26.0982482 266.846779,25.1211054 266.846779,23.8388197 C266.846779,22.7073911 266.64972,21.8211054 266.255603,21.1799625 C265.861485,20.5388197 265.140078,20.2182482 264.091383,20.2182482 C263.549899,20.2182482 263.094094,20.3262482 262.723966,20.5422482 C262.353838,20.7582482 262.076242,21.0513911 261.891178,21.4216768 C261.706114,21.7919625 261.613582,22.2102482 261.613582,22.6765339 C261.613582,23.4445339 261.815782,24.0428197 262.220181,24.4713911 C262.624579,24.8999625 263.183198,25.1142482 263.896037,25.1142482 C264.35527,25.1142482 264.757955,25.0028197 265.104094,24.7799625 C265.450232,24.5571054 265.678134,24.2605339 265.787802,23.8902482 L265.787802,23.8902482 L265.798083,24.2399625 C265.798083,25.1313911 265.669567,25.7845339 265.412533,26.1993911 C265.1555,26.6142482 264.766523,26.8216768 264.245603,26.8216768 C263.875475,26.8216768 263.582457,26.7153911 263.366549,26.5028197 C263.150641,26.2902482 263.01527,25.9885339 262.960436,25.5976768 L262.960436,25.5976768 L261.850053,25.5976768 C261.911741,26.2353911 262.146498,26.7582482 262.554324,27.1662482 C262.96215,27.5742482 263.525909,27.7782482 264.245603,27.7782482 Z M264.163352,24.1988197 C263.717828,24.1988197 263.366549,24.0685339 263.109516,23.8079625 C262.852482,23.5473911 262.723966,23.1736768 262.723966,22.6868197 C262.723966,22.2273911 262.852482,21.8708197 263.109516,21.6171054 C263.366549,21.3633911 263.707546,21.2365339 264.132508,21.2365339 C264.646574,21.2365339 265.032124,21.3856768 265.289158,21.6839625 C265.546191,21.9822482 265.674707,22.3542482 265.674707,22.7999625 C265.674707,23.1016768 265.602738,23.3571054 265.458799,23.5662482 C265.314861,23.7753911 265.128083,23.9331054 264.898467,24.0393911 C264.668851,24.1456768 264.423812,24.1988197 264.163352,24.1988197 Z" id="G10.9"></path>
                <path d="M251.457059,0.622096237 L234.019756,10.0834133 C232.362246,10.9827631 231.329923,12.7177715 231.329923,14.6041742 L231.329923,33.0734651 C231.329923,34.9598678 232.362246,36.6948762 234.019756,37.594226 L251.457059,47.0555431 C252.985766,47.8850047 254.830017,47.8850047 256.358723,47.0555431 L273.796026,37.594226 C275.453536,36.6948762 276.485859,34.9598678 276.485859,33.0734651 L276.485859,14.6041742 C276.485859,12.7177715 275.453536,10.9827631 273.796026,10.0834133 L256.358723,0.622096237 C254.830017,-0.207365412 252.985766,-0.207365412 251.457059,0.622096237 Z M255.541779,2.12901654 L272.979082,11.5903336 C274.084089,12.1899001 274.772304,13.3465724 274.772304,14.6041742 L274.772304,33.0734651 C274.772304,34.3310669 274.084089,35.4877392 272.979082,36.0873057 L255.541779,45.5486228 C254.522642,46.1015972 253.293141,46.1015972 252.274003,45.5486228 L234.8367,36.0873057 C233.731693,35.4877392 233.043478,34.3310669 233.043478,33.0734651 L233.043478,14.6041742 C233.043478,13.3465724 233.731693,12.1899001 234.8367,11.5903336 L252.274003,2.12901654 C253.293141,1.57604211 254.522642,1.57604211 255.541779,2.12901654 Z" id="Polygon-Copy-4"></path>
                <path d="M303.122738,27.7679625 C303.753326,27.7679625 304.313659,27.6376768 304.803736,27.3771054 C305.293812,27.1165339 305.68793,26.7685339 305.986088,26.3331054 C306.284247,25.8976768 306.474452,25.4125339 306.556702,24.8776768 L306.556702,24.8776768 L306.556702,23.7565339 L302.90683,23.7565339 L302.90683,24.6205339 L305.569695,24.6205339 C305.48059,25.2719625 305.220129,25.7845339 304.788314,26.1582482 C304.356498,26.5319625 303.839004,26.7188197 303.235833,26.7188197 C302.742329,26.7188197 302.308799,26.6142482 301.935244,26.4051054 C301.561689,26.1959625 301.272099,25.8925339 301.066472,25.4948197 C300.860845,25.0971054 300.758032,24.6205339 300.758032,24.0651054 C300.758032,23.5371054 300.859132,23.0776768 301.061331,22.6868197 C301.263531,22.2959625 301.544554,21.9942482 301.9044,21.7816768 C302.264247,21.5691054 302.67036,21.4628197 303.122738,21.4628197 C303.616242,21.4628197 304.042917,21.5793911 304.402764,21.8125339 C304.76261,22.0456768 305.021357,22.3576768 305.179004,22.7485339 L305.179004,22.7485339 L306.412764,22.7485339 C306.2277,22.0148197 305.84729,21.4353911 305.271536,21.0102482 C304.695782,20.5851054 303.976088,20.3725339 303.112457,20.3725339 C302.406472,20.3725339 301.784452,20.5285339 301.246395,20.8405339 C300.708339,21.1525339 300.291945,21.5879625 299.997214,22.1468197 C299.702482,22.7056768 299.555117,23.3451054 299.555117,24.0651054 C299.555117,24.7851054 299.702482,25.4245339 299.997214,25.9833911 C300.291945,26.5422482 300.710053,26.9793911 301.251536,27.2948197 C301.793019,27.6102482 302.416753,27.7679625 303.122738,27.7679625 Z M309.486881,27.6959625 L309.486881,20.4342482 L307.163301,20.4342482 L307.163301,21.5348197 L308.253122,21.5348197 L308.253122,27.6959625 L309.486881,27.6959625 Z M315.635117,27.6445339 L315.635117,26.6879625 L312.190871,26.6879625 C312.7255,26.3588197 313.242994,25.9662482 313.743352,25.5102482 C314.24371,25.0542482 314.656677,24.5553911 314.982252,24.0136768 C315.307828,23.4719625 315.470615,22.9371054 315.470615,22.4091054 C315.470615,21.7508197 315.270129,21.2348197 314.869158,20.8611054 C314.468186,20.4873911 313.914707,20.3005339 313.208723,20.3005339 C312.48903,20.3005339 311.897853,20.5199625 311.435193,20.9588197 C310.972533,21.3976768 310.717214,22.0319625 310.669234,22.8616768 L310.669234,22.8616768 L311.810462,22.8616768 C311.837879,22.3611054 311.957828,21.9753911 312.170308,21.7045339 C312.382789,21.4336768 312.698083,21.2982482 313.116191,21.2982482 C313.52059,21.2982482 313.813608,21.4079625 313.995244,21.6273911 C314.176881,21.8468197 314.2677,22.1416768 314.2677,22.5119625 C314.2677,23.1359625 313.933556,23.8131054 313.26527,24.5433911 C312.596984,25.2736768 311.707649,26.0193911 310.597265,26.7805339 L310.597265,26.7805339 L310.597265,27.6445339 L315.635117,27.6445339 Z M317.650257,27.6959625 L317.650257,26.3999625 L316.323966,26.3999625 L316.323966,27.6959625 L317.650257,27.6959625 Z M321.07394,27.7782482 C322.006114,27.7782482 322.672687,27.4422482 323.073659,26.7702482 C323.474631,26.0982482 323.675117,25.1211054 323.675117,23.8388197 C323.675117,22.7073911 323.478058,21.8211054 323.08394,21.1799625 C322.689822,20.5388197 321.968416,20.2182482 320.91972,20.2182482 C320.378237,20.2182482 319.922431,20.3262482 319.552303,20.5422482 C319.182175,20.7582482 318.904579,21.0513911 318.719516,21.4216768 C318.534452,21.7919625 318.44192,22.2102482 318.44192,22.6765339 C318.44192,23.4445339 318.644119,24.0428197 319.048518,24.4713911 C319.452917,24.8999625 320.011536,25.1142482 320.724375,25.1142482 C321.183608,25.1142482 321.586293,25.0028197 321.932431,24.7799625 C322.278569,24.5571054 322.506472,24.2605339 322.61614,23.8902482 L322.61614,23.8902482 L322.626421,24.2399625 C322.626421,25.1313911 322.497904,25.7845339 322.240871,26.1993911 C321.983838,26.6142482 321.594861,26.8216768 321.07394,26.8216768 C320.703812,26.8216768 320.410794,26.7153911 320.194886,26.5028197 C319.978978,26.2902482 319.843608,25.9885339 319.788774,25.5976768 L319.788774,25.5976768 L318.67839,25.5976768 C318.740078,26.2353911 318.974835,26.7582482 319.382661,27.1662482 C319.790487,27.5742482 320.354247,27.7782482 321.07394,27.7782482 Z M320.991689,24.1988197 C320.546165,24.1988197 320.194886,24.0685339 319.937853,23.8079625 C319.68082,23.5473911 319.552303,23.1736768 319.552303,22.6868197 C319.552303,22.2273911 319.68082,21.8708197 319.937853,21.6171054 C320.194886,21.3633911 320.535884,21.2365339 320.960845,21.2365339 C321.474912,21.2365339 321.860462,21.3856768 322.117495,21.6839625 C322.374528,21.9822482 322.503045,22.3542482 322.503045,22.7999625 C322.503045,23.1016768 322.431076,23.3571054 322.287137,23.5662482 C322.143198,23.7753911 321.956421,23.9331054 321.726805,24.0393911 C321.497188,24.1456768 321.25215,24.1988197 320.991689,24.1988197 Z" id="G12.9"></path>
                <path d="M309.717929,0.622096237 L292.280626,10.0834133 C290.623115,10.9827631 289.590793,12.7177715 289.590793,14.6041742 L289.590793,33.0734651 C289.590793,34.9598678 290.623115,36.6948762 292.280626,37.594226 L309.717929,47.0555431 C311.246635,47.8850047 313.090886,47.8850047 314.619592,47.0555431 L332.056895,37.594226 C333.714406,36.6948762 334.746728,34.9598678 334.746728,33.0734651 L334.746728,14.6041742 C334.746728,12.7177715 333.714406,10.9827631 332.056895,10.0834133 L314.619592,0.622096237 C313.090886,-0.207365412 311.246635,-0.207365412 309.717929,0.622096237 Z M313.802649,2.12901654 L331.239951,11.5903336 C332.344959,12.1899001 333.033174,13.3465724 333.033174,14.6041742 L333.033174,33.0734651 C333.033174,34.3310669 332.344959,35.4877392 331.239951,36.0873057 L313.802649,45.5486228 C312.783511,46.1015972 311.55401,46.1015972 310.534873,45.5486228 L293.09757,36.0873057 C291.992563,35.4877392 291.304348,34.3310669 291.304348,33.0734651 L291.304348,14.6041742 C291.304348,13.3465724 291.992563,12.1899001 293.09757,11.5903336 L310.534873,2.12901654 C311.55401,1.57604211 312.783511,1.57604211 313.802649,2.12901654 Z" id="Polygon-Copy-5"></path>
            </g>
        </g>
    </g>
</svg>