<?xml version="1.0" encoding="UTF-8"?>
<svg width="70px" height="70px" viewBox="0 0 70 70" version="1.1" xmlns="http://www.w3.org/2000/svg" xmlns:xlink="http://www.w3.org/1999/xlink">
    <title>Group 2 Copy 8</title>
    <defs>
        <filter x="-54.0%" y="-54.0%" width="208.0%" height="208.0%" filterUnits="objectBoundingBox" id="filter-1">
            <feOffset dx="0" dy="4" in="SourceAlpha" result="shadowOffsetOuter1"></feOffset>
            <feGaussianBlur stdDeviation="5" in="shadowOffsetOuter1" result="shadowBlurOuter1"></feGaussianBlur>
            <feColorMatrix values="0 0 0 0 0   0 0 0 0 0   0 0 0 0 0  0 0 0 0.13013549 0" type="matrix" in="shadowBlurOuter1" result="shadowMatrixOuter1"></feColorMatrix>
            <feMerge>
                <feMergeNode in="shadowMatrixOuter1"></feMergeNode>
                <feMergeNode in="SourceGraphic"></feMergeNode>
            </feMerge>
        </filter>
    </defs>
    <g id="Symbols" stroke="none" stroke-width="1" fill="none" fill-rule="evenodd">
        <g id="footer_mobile" transform="translate(-296.000000, 6.000000)">
            <g id="Group-2-Copy-8" filter="url(#filter-1)" transform="translate(306.000000, 0.000000)">
                <circle id="Oval" fill="#00A757" cx="25" cy="25" r="25"></circle>
                <path d="M25,12.1621622 C31.7169767,12.1621622 37.1621622,17.6073476 37.1621622,24.3243243 C37.1621622,30.7790675 32.1338419,36.0593836 25.7806369,36.4618369 L25.7670635,36.4864865 C22.5015176,37.5952368 20.8687447,38.0748852 20.8687447,37.9254315 L20.8737841,37.8809199 C20.9023409,37.6992624 21.0522637,37.0455057 21.3235526,35.91965 L21.2107951,35.8846073 C16.3492074,34.2920717 12.8378378,29.7182601 12.8378378,24.3243243 C12.8378378,17.6073476 18.2830233,12.1621622 25,12.1621622 Z M32.0871714,29.7308844 L31.7143865,29.7708555 C30.2514975,29.9243443 29.1276177,30.0010887 28.342747,30.0010887 C27.4924705,30.0010887 26.244329,29.9110206 24.5983227,29.7308844 C25.7419346,31.3985189 26.990076,32.2323361 28.342747,32.2323361 C29.6954181,32.2323361 30.9435595,31.3985189 32.0871714,29.7308844 L32.0871714,29.7308844 Z" id="Combined-Shape" fill="#FFFFFF"></path>
            </g>
        </g>
    </g>
</svg>