<?xml version="1.0" encoding="UTF-8"?>
<svg width="100px" height="30px" viewBox="0 0 100 30" version="1.1" xmlns="http://www.w3.org/2000/svg" xmlns:xlink="http://www.w3.org/1999/xlink">
    <title>pasted-svg-69826x20 copy 20</title>
    <g id="Symbols" stroke="none" stroke-width="1" fill="none" fill-rule="evenodd">
        <g id="footer_mobile" transform="translate(-175.000000, -94.000000)" fill="#FFFFFF" fill-rule="nonzero">
            <g id="pasted-svg-69826x20-copy-20" transform="translate(175.000000, 94.000000)">
                <path d="M21.7171429,1.81857143 C21.7171429,1.81857143 22.68,3.46142857 23.2114286,4.73285714 C23.7671429,5.09142857 25.3471429,6.30142857 25.8542857,6.93142857 C26.0885714,6.54857143 26.4714286,6.01714286 26.4714286,6.01714286 C26.4714286,6.01714286 24.8528571,3.51142857 21.7171429,1.81857143 Z" id="Path"></path>
                <path d="M19.6914286,0.892857143 C19.6914286,0.892857143 20.9014286,2.61 21.9385714,4.79571429 C21.4685714,6.38857143 20.8142857,8.59857143 20.8142857,8.59857143 L18.4571429,6.75857143 C18.4571429,6.75857143 17.0128571,2.94285714 13.7271429,0.0285714286 C13.7271429,0.0285714286 17.0242857,-0.242857143 19.6914286,0.892857143 Z" id="Path"></path>
                <path d="M12.06,0.275714286 C12.06,0.275714286 15.1971429,2.54714286 17.1357143,6.85714286 L16.2585714,9.77142857 L14.2214286,8.24 C14.2214286,8.24 12.48,3.96714286 8.29428571,1.47285714 C8.66428571,1.28857143 9.98428571,0.608571429 12.06,0.275714286 Z" id="Path"></path>
                <path d="M7.04571429,2.12714286 C7.04571429,2.12714286 5.94714286,2.84285714 4.82285714,3.80714286 C5.25571429,3.96714286 8.73714286,5.4 10.7257143,9.53714286 C11.06,9.79714286 12.5785714,10.9571429 12.5785714,10.9571429 L13.1714286,8.92 C13.1714286,8.92 11.7257143,4.89428571 7.04571429,2.12714286 Z" id="Path"></path>
                <path d="M3.92142857,4.69571429 L2.98285714,5.77142857 C2.98285714,5.77142857 6.82285714,6.76 8.68857143,11.1685714 C8.97285714,11.44 9.46714286,11.8471429 9.46714286,11.8471429 L9.86142857,10.5 C9.86142857,10.5 8.39142857,6.48714286 3.92142857,4.69571429 Z" id="Path"></path>
                <path d="M2.26714286,6.84571429 C2.26714286,6.84571429 5.7,7.62285714 7.42857143,11.3157143 L7.10714286,12.4142857 L6.31714286,11.8471429 C6.31714286,11.8471429 5.20571429,8.84571429 1.66142857,7.94428571 L2.26714286,6.84571429 Z" id="Path"></path>
                <path d="M1.13,9.08 L0.81,9.85857143 C0.81,9.85857143 3.45285714,10.0814286 4.66285714,13.1057143 C4.81142857,12.6357143 5.00857143,11.92 5.00857143,11.92 C5.00857143,11.92 4.05714286,9.77142857 1.13,9.08 Z" id="Path"></path>
                <path d="M21.7171429,27.5271429 C21.7171429,27.5271429 22.68,25.8842857 23.2114286,24.6128571 C23.7671429,24.2542857 25.3471429,23.0442857 25.8542857,22.4142857 C26.0885714,22.7971429 26.4714286,23.3285714 26.4714286,23.3285714 C26.4714286,23.3285714 24.8528571,25.8357143 21.7171429,27.5271429 Z" id="Path"></path>
                <path d="M19.6914286,28.4542857 C19.6914286,28.4542857 20.9014286,26.7371429 21.9385714,24.5514286 C21.4685714,22.9585714 20.8142857,20.7471429 20.8142857,20.7471429 L18.4557143,22.5871429 C18.4557143,22.5871429 17.0114286,26.4028571 13.7257143,29.3171429 C13.7271429,29.3185714 17.0242857,29.59 19.6914286,28.4542857 Z" id="Path"></path>
                <path d="M12.06,29.0714286 C12.06,29.0714286 15.1971429,26.7985714 17.1357143,22.49 L16.2585714,19.5757143 L14.2214286,21.1071429 C14.2214286,21.1071429 12.48,25.38 8.29428571,27.8742857 C8.66428571,28.0585714 9.98428571,28.7371429 12.06,29.0714286 Z" id="Path"></path>
                <path d="M7.04571429,27.2185714 C7.04571429,27.2185714 5.94714286,26.5028571 4.82285714,25.5385714 C5.25571429,25.3785714 8.73714286,23.9457143 10.7257143,19.8085714 C11.0585714,19.5485714 12.5785714,18.3885714 12.5785714,18.3885714 L13.1714286,20.4257143 C13.1714286,20.4271429 11.7257143,24.4528571 7.04571429,27.2185714 Z" id="Path"></path>
                <path d="M3.92142857,24.65 L2.98285714,23.5757143 C2.98285714,23.5757143 6.82285714,22.5871429 8.68857143,18.1785714 C8.97285714,17.9071429 9.46714286,17.4985714 9.46714286,17.4985714 L9.86285714,18.8442857 C9.86142857,18.8457143 8.39142857,22.86 3.92142857,24.65 Z" id="Path"></path>
                <path d="M2.26714286,22.5014286 C2.26714286,22.5014286 5.7,21.7228571 7.42857143,18.0314286 L7.10714286,16.9328571 L6.31714286,17.5 C6.31714286,17.5 5.20571429,20.5014286 1.66142857,21.4028571 L2.26714286,22.5014286 Z" id="Path"></path>
                <path d="M1.13,20.2657143 L0.808571429,19.4871429 C0.808571429,19.4871429 3.45142857,19.2642857 4.66142857,16.2385714 C4.81,16.7071429 5.00714286,17.4242857 5.00714286,17.4242857 C5.00714286,17.4242857 4.05714286,19.5742857 1.13,20.2657143 Z" id="Path"></path>
                <path d="M0.438571429,11.0314286 C0.438571429,11.0314286 -0.548571429,14.3528571 0.438571429,18.33 C0.488571429,18.4414286 3.24142857,17.4414286 3.16714286,16.1442857 C3.09285714,14.8471429 1.45,14.6857143 1.45,14.6857143 C1.45,14.6857143 3.23142857,14.2685714 3.16857143,13.1071429 C3.10714286,11.9457143 1.09428571,11.13 0.438571429,11.0314286 Z" id="Path"></path>
                <path d="M26.8542857,28.3485714 C26.0285714,28.3485714 25.3557143,27.6771429 25.3557143,26.85 C25.3557143,26.0242857 26.0271429,25.3514286 26.8542857,25.3514286 C27.68,25.3514286 28.3528571,26.0242857 28.3528571,26.85 C28.3514286,27.6757143 27.68,28.3485714 26.8542857,28.3485714 Z M26.8542857,25.5985714 C26.1642857,25.5985714 25.6028571,26.16 25.6028571,26.85 C25.6028571,27.54 26.1642857,28.1014286 26.8542857,28.1014286 C27.5442857,28.1014286 28.1057143,27.54 28.1057143,26.85 C28.1057143,26.16 27.5442857,25.5985714 26.8542857,25.5985714 Z" id="Shape"></path>
                <path d="M26.0942857,25.9571429 L26.8914286,25.9571429 C27.1157143,25.9571429 27.2928571,26.0228571 27.4071429,26.1357143 C27.5014286,26.2328571 27.5557143,26.3657143 27.5557143,26.5214286 L27.5557143,26.5271429 C27.5557143,26.82 27.3785714,26.9971429 27.1314286,27.0685714 L27.6142857,27.7457143 L27.2414286,27.7457143 L26.8028571,27.1228571 L26.41,27.1228571 L26.41,27.7457143 L26.0957143,27.7457143 L26.0957143,25.9571429 L26.0942857,25.9571429 Z M26.8685714,26.8428571 C27.0928571,26.8428571 27.2357143,26.7257143 27.2357143,26.5442857 L27.2357143,26.54 C27.2357143,26.3485714 27.0985714,26.2442857 26.8657143,26.2442857 L26.4085714,26.2442857 L26.4085714,26.8442857 L26.8685714,26.8442857 L26.8685714,26.8428571 Z" id="Shape"></path>
                <path d="M39.6657143,11.36 L39.6657143,9.91 L43.4142857,9.91 L43.4142857,13.3414286 C43.05,13.6942857 42.5228571,14.0042857 41.8314286,14.2742857 C41.14,14.5414286 40.44,14.6757143 39.7314286,14.6757143 C38.83,14.6757143 38.0457143,14.4871429 37.3757143,14.11 C36.7057143,13.7314286 36.2028571,13.1914286 35.8671429,12.4885714 C35.53,11.7857143 35.3614286,11.0214286 35.3614286,10.1942857 C35.3614286,9.29714286 35.5485714,8.5 35.9257143,7.80285714 C36.3014286,7.10571429 36.8514286,6.57 37.5771429,6.19857143 C38.1285714,5.91285714 38.8171429,5.77 39.6385714,5.77 C40.7071429,5.77 41.5428571,5.99428571 42.1442857,6.44285714 C42.7457143,6.89142857 43.1314286,7.51142857 43.3042857,8.30285714 L41.5771429,8.62571429 C41.4557143,8.20285714 41.2271429,7.86857143 40.8928571,7.62428571 C40.5585714,7.37857143 40.14,7.25714286 39.6385714,7.25714286 C38.8785714,7.25714286 38.2742857,7.49714286 37.8257143,7.98 C37.3771429,8.46142857 37.1528571,9.17571429 37.1528571,10.1242857 C37.1528571,11.1471429 37.38,11.9128571 37.8342857,12.4242857 C38.2885714,12.9357143 38.8842857,13.19 39.62,13.19 C39.9842857,13.19 40.3485714,13.12 40.7157143,12.9757143 C41.0814286,12.8328571 41.3957143,12.66 41.6585714,12.4557143 L41.6585714,11.36 L39.6657143,11.36 Z" id="Path"></path>
                <polygon id="Path" points="45.0185714 14.5271429 45.0185714 5.91428571 51.4042857 5.91428571 51.4042857 7.37142857 46.7571429 7.37142857 46.7571429 9.28142857 51.08 9.28142857 51.08 10.7328571 46.7571429 10.7328571 46.7571429 13.0771429 51.5685714 13.0771429 51.5685714 14.5285714 45.0185714 14.5285714"></polygon>
                <polygon id="Path" points="53.02 14.5271429 53.02 5.91428571 55.6228571 5.91428571 57.1857143 11.79 58.7314286 5.91428571 61.3385714 5.91428571 61.3385714 14.5271429 59.7228571 14.5271429 59.7228571 7.74714286 58.0128571 14.5271429 56.3385714 14.5271429 54.6357143 7.74714286 54.6357143 14.5271429"></polygon>
                <polygon id="Path" points="62.8671429 12.23 62.8671429 10.5785714 66.11 10.5785714 66.11 12.23"></polygon>
                <polygon id="Path" points="69.3357143 14.5271429 69.3357143 10.9028571 66.1814286 5.91428571 68.22 5.91428571 70.2471429 9.32142857 72.2328571 5.91428571 74.2357143 5.91428571 71.0685714 10.9142857 71.0685714 14.5271429"></polygon>
                <polygon id="Path" points="75.0985714 14.5271429 75.0985714 5.91428571 81.4842857 5.91428571 81.4842857 7.37142857 76.8371429 7.37142857 76.8371429 9.28142857 81.1614286 9.28142857 81.1614286 10.7328571 76.8371429 10.7328571 76.8371429 13.0771429 81.6485714 13.0771429 81.6485714 14.5285714 75.0985714 14.5285714"></polygon>
                <path d="M90.8914286,14.5271429 L89,14.5271429 L88.2471429,12.5714286 L84.8042857,12.5714286 L84.0928571,14.5271429 L82.2485714,14.5271429 L85.6028571,5.91428571 L87.4414286,5.91428571 L90.8914286,14.5271429 Z M87.6885714,11.12 L86.5014286,7.92428571 L85.3385714,11.12 L87.6885714,11.12 Z" id="Shape"></path>
                <path d="M91.82,14.5271429 L91.82,5.91428571 L95.48,5.91428571 C96.4,5.91428571 97.0685714,5.99142857 97.4857143,6.14571429 C97.9028571,6.3 98.2371429,6.57571429 98.4871429,6.97142857 C98.7371429,7.36714286 98.8628571,7.82 98.8628571,8.32857143 C98.8628571,8.97428571 98.6728571,9.50857143 98.2928571,9.93 C97.9128571,10.35 97.3442857,10.6157143 96.5885714,10.7257143 C96.9642857,10.9457143 97.2757143,11.1857143 97.52,11.4485714 C97.7657143,11.7114286 98.0942857,12.1771429 98.51,12.8471429 L99.5614286,14.5271429 L97.4814286,14.5271429 L96.2242857,12.6528571 C95.7785714,11.9828571 95.4728571,11.56 95.3085714,11.3857143 C95.1442857,11.2114286 94.97,11.0914286 94.7857143,11.0271429 C94.6014286,10.9628571 94.31,10.93 93.9114286,10.93 L93.5585714,10.93 L93.5585714,14.5257143 L91.82,14.5257143 L91.82,14.5271429 Z M93.5585714,9.55714286 L94.8457143,9.55714286 C95.68,9.55714286 96.2014286,9.52142857 96.4085714,9.45142857 C96.6157143,9.38142857 96.7785714,9.25857143 96.8971429,9.08714286 C97.0142857,8.91428571 97.0728571,8.69857143 97.0728571,8.44142857 C97.0728571,8.15142857 96.9957143,7.91714286 96.8414286,7.74 C96.6857143,7.56142857 96.4685714,7.44857143 96.1857143,7.40142857 C96.0442857,7.38142857 95.6214286,7.37142857 94.9157143,7.37142857 L93.5585714,7.37142857 L93.5585714,9.55714286 L93.5585714,9.55714286 Z" id="Shape"></path>
                <polygon id="Path" points="38.94 19.3714286 38.94 19.7071429 36.7142857 19.7071429 36.7142857 21.1971429 38.6914286 21.1971429 38.6914286 21.5328571 36.7142857 21.5328571 36.7142857 23.4971429 36.3228571 23.4971429 36.3228571 19.3714286"></polygon>
                <path d="M44.7985714,19.3714286 L46.4157143,23.4971429 L45.9928571,23.4971429 L45.4914286,22.2142857 L43.6142857,22.2142857 L43.1171429,23.4971429 L42.7,23.4971429 L44.3585714,19.3714286 L44.7985714,19.3714286 Z M45.3585714,21.88 L44.5614286,19.7657143 L43.7342857,21.88 L45.3585714,21.88 Z" id="Shape"></path>
                <path d="M51.12,22.6728571 C51.19,22.8142857 51.2842857,22.9285714 51.4057143,23.0128571 C51.5271429,23.0971429 51.6714286,23.1585714 51.8371429,23.1957143 C52.0028571,23.2328571 52.18,23.25 52.3685714,23.25 C52.4771429,23.25 52.5942857,23.2342857 52.7214286,23.2028571 C52.8485714,23.1728571 52.9671429,23.1228571 53.0771429,23.0557143 C53.1871429,22.9885714 53.2785714,22.9014286 53.3514286,22.7957143 C53.4242857,22.69 53.46,22.5614286 53.46,22.4114286 C53.46,22.2957143 53.4342857,22.1957143 53.3828571,22.1114286 C53.33,22.0271429 53.2642857,21.9557143 53.1814286,21.8971429 C53.0971429,21.84 53.0057143,21.7928571 52.9057143,21.7557143 C52.8057143,21.7185714 52.7071429,21.6885714 52.61,21.6657143 L51.69,21.44 C51.5714286,21.41 51.4542857,21.3714286 51.3414286,21.3257143 C51.2285714,21.2785714 51.1285714,21.2171429 51.0428571,21.14 C50.9585714,21.0628571 50.89,20.9685714 50.8371429,20.8571429 C50.7857143,20.7457143 50.7585714,20.6085714 50.7585714,20.4471429 C50.7585714,20.3471429 50.7785714,20.23 50.8171429,20.0942857 C50.8557143,19.96 50.9271429,19.8328571 51.0328571,19.7128571 C51.14,19.5942857 51.2842857,19.4928571 51.4685714,19.41 C51.6542857,19.3271429 51.89,19.2857143 52.18,19.2857143 C52.3842857,19.2857143 52.5785714,19.3128571 52.7628571,19.3671429 C52.9485714,19.4214286 53.11,19.5028571 53.2485714,19.61 C53.3885714,19.7185714 53.4971429,19.8514286 53.5814286,20.0114286 C53.6642857,20.1714286 53.7057143,20.3571429 53.7057143,20.5685714 L53.3128571,20.5685714 C53.3057143,20.41 53.27,20.2728571 53.2057143,20.1557143 C53.1428571,20.0385714 53.06,19.94 52.9571429,19.8614286 C52.8542857,19.7828571 52.7385714,19.7228571 52.6042857,19.6828571 C52.4714286,19.6428571 52.3314286,19.6228571 52.1857143,19.6228571 C52.05,19.6228571 51.92,19.6371429 51.7957143,19.6657143 C51.67,19.6942857 51.56,19.7414286 51.4671429,19.8042857 C51.3714286,19.8685714 51.2971429,19.9514286 51.2385714,20.0557143 C51.1814286,20.16 51.1514286,20.2885714 51.1514286,20.4428571 C51.1514286,20.54 51.1671429,20.6228571 51.2,20.6942857 C51.2328571,20.7657143 51.2785714,20.8271429 51.3371429,20.8757143 C51.3942857,20.9257143 51.4614286,20.9671429 51.5371429,20.9971429 C51.6114286,21.0285714 51.6914286,21.0528571 51.7771429,21.0714286 L52.7828571,21.32 C52.9285714,21.3585714 53.0671429,21.4057143 53.1957143,21.4614286 C53.3242857,21.5171429 53.4385714,21.5871429 53.5357143,21.67 C53.6342857,21.7528571 53.7114286,21.8528571 53.7671429,21.9728571 C53.8228571,22.0928571 53.85,22.2371429 53.85,22.4071429 C53.85,22.4528571 53.8457143,22.5142857 53.8357143,22.5914286 C53.8257143,22.6685714 53.8028571,22.75 53.7657143,22.8371429 C53.7285714,22.9228571 53.6771429,23.0114286 53.61,23.1 C53.5428571,23.1885714 53.45,23.2685714 53.3328571,23.34 C53.2157143,23.4114286 53.07,23.47 52.8971429,23.5142857 C52.7228571,23.5585714 52.5157143,23.58 52.2728571,23.58 C52.03,23.58 51.8042857,23.5528571 51.5971429,23.4971429 C51.3885714,23.4414286 51.2114286,23.3557143 51.0657143,23.24 C50.9185714,23.1242857 50.8071429,22.9757143 50.7271429,22.7942857 C50.6485714,22.6142857 50.6157143,22.3957143 50.6257143,22.1414286 L51.0185714,22.1414286 C51.0185714,22.3528571 51.05,22.53 51.12,22.6728571 Z" id="Path"></path>
                <polygon id="Path" points="61.3471429 19.3714286 61.3471429 19.7071429 59.9085714 19.7071429 59.9085714 23.4971429 59.5157143 23.4971429 59.5157143 19.7071429 58.0842857 19.7071429 58.0842857 19.3714286"></polygon>
                <polygon id="Path" points="68.6285714 19.3714286 68.6285714 19.7071429 66.1728571 19.7071429 66.1728571 21.1971429 68.4728571 21.1971429 68.4728571 21.5328571 66.1728571 21.5328571 66.1728571 23.1628571 68.6585714 23.1628571 68.6585714 23.4971429 65.7814286 23.4971429 65.7814286 19.3714286"></polygon>
                <polygon id="Path" points="73.6842857 19.3714286 76.0885714 22.8614286 76.1 22.8614286 76.1 19.3714286 76.4928571 19.3714286 76.4928571 23.4971429 76.0542857 23.4971429 73.65 20.0071429 73.6385714 20.0071429 73.6385714 23.4971429 73.2457143 23.4971429 73.2457143 19.3714286"></polygon>
                <polygon id="Path" points="84.2128571 19.3714286 84.2128571 19.7071429 81.7571429 19.7071429 81.7571429 21.1971429 84.0571429 21.1971429 84.0571429 21.5328571 81.7571429 21.5328571 81.7571429 23.1628571 84.2414286 23.1628571 84.2414286 23.4971429 81.3642857 23.4971429 81.3642857 19.3714286"></polygon>
                <path d="M90.7257143,19.3714286 C90.8957143,19.3714286 91.0557143,19.3928571 91.2085714,19.4357143 C91.36,19.4771429 91.4942857,19.5428571 91.6071429,19.6285714 C91.72,19.7157143 91.8114286,19.8271429 91.8785714,19.9628571 C91.9471429,20.1 91.98,20.2614286 91.98,20.4457143 C91.98,20.7071429 91.9128571,20.9342857 91.7785714,21.1271429 C91.6428571,21.32 91.4428571,21.4428571 91.1771429,21.4971429 L91.1771429,21.5085714 C91.3114286,21.5271429 91.4242857,21.5628571 91.5128571,21.6157143 C91.6014286,21.6671429 91.6742857,21.7342857 91.73,21.8142857 C91.7857143,21.8957143 91.8257143,21.9885714 91.8514286,22.0942857 C91.8757143,22.2 91.8928571,22.3157143 91.9014286,22.4385714 C91.9042857,22.5085714 91.91,22.5928571 91.9128571,22.6928571 C91.9171429,22.7928571 91.9242857,22.8942857 91.9357143,22.9957143 C91.9471429,23.0985714 91.9657143,23.1942857 91.9914286,23.2842857 C92.0157143,23.3757143 92.05,23.4457143 92.0928571,23.4957143 L91.6585714,23.4957143 C91.6357143,23.4571429 91.6171429,23.41 91.6042857,23.3542857 C91.59,23.2985714 91.5814286,23.24 91.5757143,23.18 C91.57,23.12 91.5642857,23.0614286 91.5614286,23.0042857 C91.5571429,22.9457143 91.5542857,22.8957143 91.55,22.8542857 C91.5414286,22.7085714 91.53,22.5628571 91.5128571,22.4171429 C91.4957143,22.2728571 91.4585714,22.1442857 91.4028571,22.03 C91.3471429,21.9157143 91.2671429,21.8242857 91.16,21.7557143 C91.0542857,21.6857143 90.9085714,21.6557143 90.7242857,21.6628571 L89.2285714,21.6628571 L89.2285714,23.4942857 L88.8357143,23.4942857 L88.8357143,19.3714286 L90.7257143,19.3714286 Z M90.6957143,21.3314286 C90.8157143,21.3314286 90.9285714,21.3128571 91.0371429,21.2771429 C91.1457143,21.2414286 91.24,21.1871429 91.32,21.1185714 C91.4,21.05 91.4657143,20.9657143 91.5128571,20.8671429 C91.5614286,20.7685714 91.5857143,20.6557143 91.5857143,20.5285714 C91.5857143,20.2742857 91.5128571,20.0742857 91.3657143,19.9285714 C91.2185714,19.7828571 90.9957143,19.7085714 90.6957143,19.7085714 L89.2285714,19.7085714 L89.2285714,21.3328571 L90.6957143,21.3328571 L90.6957143,21.3314286 Z" id="Shape"></path>
                <path d="M97.0171429,22.6728571 C97.0857143,22.8142857 97.1814286,22.9285714 97.3028571,23.0128571 C97.4242857,23.0971429 97.5671429,23.1585714 97.7342857,23.1957143 C97.9,23.2328571 98.0771429,23.25 98.2657143,23.25 C98.3728571,23.25 98.4914286,23.2342857 98.6185714,23.2028571 C98.7457143,23.1728571 98.8642857,23.1228571 98.9728571,23.0557143 C99.0828571,22.9885714 99.1742857,22.9014286 99.2471429,22.7957143 C99.3214286,22.69 99.3571429,22.5614286 99.3571429,22.4114286 C99.3571429,22.2957143 99.3314286,22.1957143 99.28,22.1114286 C99.2271429,22.0271429 99.16,21.9557143 99.0771429,21.8971429 C98.9942857,21.84 98.9028571,21.7928571 98.8028571,21.7557143 C98.7028571,21.7185714 98.6042857,21.6885714 98.5085714,21.6657143 L97.59,21.44 C97.4714286,21.41 97.3542857,21.3714286 97.2414286,21.3257143 C97.1271429,21.2785714 97.0285714,21.2171429 96.9442857,21.14 C96.86,21.0628571 96.7914286,20.9685714 96.7385714,20.8571429 C96.6857143,20.7457143 96.66,20.6085714 96.66,20.4471429 C96.66,20.3471429 96.6785714,20.23 96.7171429,20.0942857 C96.7557143,19.96 96.8271429,19.8328571 96.9342857,19.7128571 C97.04,19.5942857 97.1857143,19.4928571 97.37,19.41 C97.5557143,19.3271429 97.7914286,19.2857143 98.0814286,19.2857143 C98.2857143,19.2857143 98.48,19.3128571 98.6642857,19.3671429 C98.8485714,19.4214286 99.0114286,19.5028571 99.15,19.61 C99.2885714,19.7185714 99.3985714,19.8514286 99.4828571,20.0114286 C99.5657143,20.1714286 99.6071429,20.3571429 99.6071429,20.5685714 L99.2142857,20.5685714 C99.2071429,20.41 99.1714286,20.2728571 99.1071429,20.1557143 C99.0442857,20.0385714 98.9614286,19.94 98.8585714,19.8614286 C98.7557143,19.7828571 98.6385714,19.7228571 98.5057143,19.6828571 C98.3728571,19.6428571 98.2328571,19.6228571 98.0871429,19.6228571 C97.9528571,19.6228571 97.8228571,19.6371429 97.6971429,19.6657143 C97.5714286,19.6942857 97.4628571,19.7414286 97.3671429,19.8042857 C97.2728571,19.8685714 97.1971429,19.9514286 97.1385714,20.0557143 C97.0814286,20.16 97.0528571,20.2885714 97.0528571,20.4428571 C97.0528571,20.54 97.0685714,20.6228571 97.1014286,20.6942857 C97.1342857,20.7657143 97.18,20.8271429 97.2371429,20.8757143 C97.2942857,20.9257143 97.3614286,20.9671429 97.4371429,20.9971429 C97.5114286,21.0285714 97.5914286,21.0528571 97.6771429,21.0714286 L98.6828571,21.32 C98.8285714,21.3585714 98.9671429,21.4057143 99.0957143,21.4614286 C99.2242857,21.5171429 99.3385714,21.5871429 99.4371429,21.67 C99.5357143,21.7528571 99.6128571,21.8528571 99.6685714,21.9728571 C99.7242857,22.0928571 99.7528571,22.2371429 99.7528571,22.4071429 C99.7528571,22.4528571 99.7485714,22.5142857 99.7385714,22.5914286 C99.7285714,22.6685714 99.7057143,22.75 99.6685714,22.8371429 C99.6328571,22.9228571 99.58,23.0114286 99.5128571,23.1 C99.4457143,23.1885714 99.3528571,23.2685714 99.2357143,23.34 C99.1185714,23.4114286 98.9728571,23.47 98.8,23.5142857 C98.6271429,23.5585714 98.4185714,23.58 98.1757143,23.58 C97.9328571,23.58 97.7071429,23.5528571 97.5,23.4971429 C97.2914286,23.4414286 97.1142857,23.3557143 96.9685714,23.24 C96.8228571,23.1242857 96.71,22.9757143 96.63,22.7942857 C96.5514286,22.6142857 96.5185714,22.3957143 96.5285714,22.1414286 L96.9214286,22.1414286 C96.9157143,22.3528571 96.9485714,22.53 97.0171429,22.6728571 Z" id="Path"></path>
            </g>
        </g>
    </g>
</svg>