<?xml version="1.0" encoding="UTF-8"?>
<svg width="118px" height="30px" viewBox="0 0 118 30" version="1.1" xmlns="http://www.w3.org/2000/svg" xmlns:xlink="http://www.w3.org/1999/xlink">
    <title>pasted-svg-7937x20 copy 20</title>
    <g id="Symbols" stroke="none" stroke-width="1" fill="none" fill-rule="evenodd">
        <g id="footer_mobile" transform="translate(-32.000000, -94.000000)" fill="#FFFFFF" fill-rule="nonzero">
            <g id="pasted-svg-7937x20-copy-20" transform="translate(32.000000, 94.000000)">
                <path d="M33.316058,13.6980296 L26.1176155,1.22364532 C25.729189,0.551231527 24.7765843,0 23.9997315,0 L9.60727712,0 C8.83042427,0 7.87634264,0.551231527 7.49087003,1.22364532 L0.292427497,13.6980296 C-0.0974758324,14.3704433 -0.0974758324,15.4714286 0.292427497,16.1438424 L7.49087003,28.6182266 C7.87781955,29.2906404 8.83042427,29.8418719 9.60875403,29.8418719 L24.0012084,29.8418719 C24.7765843,29.8418719 25.730666,29.2906404 26.1190924,28.6182266 L33.3175349,16.1438424 C33.7044844,15.4714286 33.7044844,14.3704433 33.316058,13.6980296 Z M28.7391246,15.4285714 L23.2287863,25.0078818 C23.0663265,25.28867 22.6705156,25.5192118 22.347073,25.5192118 L21.2009936,25.5192118 C20.877551,25.5192118 20.7461063,25.2901478 20.9056122,25.0078818 L26.4129968,15.4285714 C26.5739796,15.1507389 26.5739796,14.6896552 26.4129968,14.408867 L22.0502148,6.84679803 C21.889232,6.56453202 21.4889903,6.33546798 21.1670247,6.33546798 L18.3978249,6.33546798 C18.0729055,6.33546798 17.8100161,6.60147783 17.8100161,6.92364532 L17.8100161,24.9310345 C17.8100161,25.2546798 17.5456498,25.5206897 17.2207304,25.5206897 L16.3848013,25.5206897 C16.0598818,25.5206897 15.7984694,25.2546798 15.7984694,24.9310345 L15.7984694,6.92512315 C15.7984694,6.60295567 15.5326262,6.33694581 15.2091837,6.33694581 L12.438507,6.33694581 C12.1150644,6.33694581 11.7192535,6.56600985 11.5553169,6.84827586 L7.19401182,14.408867 C7.033029,14.6896552 7.033029,15.1507389 7.19401182,15.4285714 L12.7205961,25.0093596 C12.8830559,25.2901478 12.7486574,25.5192118 12.4266917,25.5192118 L11.2791353,25.5192118 C10.9556928,25.5192118 10.5598818,25.2901478 10.3959452,25.0093596 L4.867884,15.4285714 C4.70690118,15.1507389 4.70690118,14.6896552 4.867884,14.408867 L10.3929914,4.83251232 C10.5554511,4.55320197 10.952739,4.3226601 11.2776584,4.3226601 L22.3278733,4.3226601 C22.6527927,4.3226601 23.0500806,4.55172414 23.2125403,4.83251232 L28.7376477,14.408867 C28.9001074,14.6896552 28.9001074,15.1507389 28.7391246,15.4285714 Z" id="Shape"></path>
                <path d="M63.9751611,17.9098522 L63.9751611,12.7182266 L57.5388024,12.7182266 L57.5388024,17.9098522 L55.3987648,17.9098522 L55.3987648,6.56009852 C55.3987648,6.4773399 56.0249731,5.67931034 57.4531418,4.33300493 L63.8895005,4.33300493 C63.9722073,4.33300493 64.7712137,5.13251232 66.1151987,6.56009852 L66.1151987,17.9098522 L63.9751611,17.9098522 Z M57.5373255,6.6546798 L57.5373255,10.5665025 L63.9736842,10.5665025 L63.9736842,6.6546798 L57.5373255,6.6546798 Z" id="Shape"></path>
                <path d="M108.399033,4.3226601 L115.130773,4.3226601 C115.219388,4.3226601 115.916488,5.05123153 117.222073,6.44630542 L117.222073,15.8423645 C117.222073,15.9310345 116.524973,16.6019704 115.130773,17.9083744 L108.399033,17.9083744 C108.310419,17.9083744 107.614796,17.2374384 106.306257,15.8423645 L106.306257,6.44630542 C106.306257,6.3591133 107.004834,5.63054187 108.399033,4.3226601 Z M108.493555,6.5408867 L108.493555,15.8423645 L115.092374,15.8423645 L115.092374,6.5408867 L108.493555,6.5408867 Z" id="Shape"></path>
                <polygon id="Path" points="78.8062567 4.3226601 80.8340494 6.39014778 85.2928303 6.39014778 85.2928303 17.9098522 87.2423469 17.9098522 87.2423469 6.4182266 91.7055585 6.4182266 93.8249194 4.3226601"></polygon>
                <path d="M68.0986842,4.33300493 L68.0986842,4.52216749 L68.0986842,17.9098522 L70.1811224,17.9098522 L70.1811224,12.5275862 L76.8153867,12.5275862 C78.2051557,11.2270936 78.8993018,10.5325123 78.8993018,10.4423645 L78.8993018,6.56009852 C77.5287325,5.108867 76.8035714,4.33300493 76.7208647,4.33300493 L68.2847744,4.33300493 L68.0986842,4.33300493 Z M76.8153867,10.4423645 L70.0851235,10.4423645 L70.0851235,6.56009852 L76.8153867,6.56009852 L76.8153867,10.4423645 Z" id="Shape"></path>
                <polygon id="Path" points="104.350832 15.8719212 95.6725295 15.8719212 95.6725295 6.4270936 104.350832 6.4270936 104.350832 4.3226601 95.6725295 4.3226601 93.6181525 6.4270936 93.6181525 15.8807882 95.6725295 17.9098522 104.350832 17.9098522"></polygon>
                <polygon id="Path" points="51.4185016 4.32413793 46.6303706 10.9182266 41.8865467 4.35369458 39.9281686 4.35369458 39.9281686 17.9083744 39.9769066 17.9098522 41.86587 17.9098522 41.86587 7.39359606 45.549275 12.4714286 47.4707304 12.4714286 51.3993018 7.22364532 51.3993018 17.9083744 53.4551557 17.9083744 53.4551557 4.32413793"></polygon>
                <polygon id="Path" points="43.351638 20.8433498 40.5957304 20.8433498 40.5957304 22.517734 43.0134264 22.517734 43.0134264 23.1073892 40.5957304 23.1073892 40.5957304 25.5192118 39.8956767 25.5192118 39.8956767 20.2536946 43.351638 20.2536946"></polygon>
                <path d="M52.5291353,25.5206897 L51.7552363,25.5206897 L51.1792427,23.9349754 L48.9535446,23.9349754 L48.3642589,25.5206897 L47.650913,25.5206897 L49.7008593,20.2551724 L50.4703276,20.2551724 L52.5291353,25.5206897 Z M50.0804243,20.8862069 L50.0671321,20.8862069 L49.1750806,23.3423645 L50.9577068,23.3423645 L50.0804243,20.8862069 Z" id="Shape"></path>
                <path d="M60.2282492,20.973399 C59.9934211,20.8034483 59.6965628,20.7192118 59.3317669,20.7192118 C59.1840763,20.7192118 59.0393394,20.7339901 58.8960795,20.762069 C58.7542965,20.7916256 58.6272825,20.8403941 58.5179914,20.9098522 C58.4072234,20.9793103 58.318609,21.070936 58.2506713,21.1876847 C58.1842105,21.3029557 58.1531955,21.4477833 58.1531955,21.617734 C58.1531955,21.7788177 58.2019334,21.9118227 58.2979323,22.0137931 C58.3924544,22.1142857 58.5209452,22.1970443 58.6804511,22.2605911 C58.839957,22.3256158 59.0230934,22.3773399 59.2224758,22.4187192 C59.424812,22.4600985 59.6271482,22.5059113 59.836869,22.5561576 C60.0465897,22.6049261 60.2518797,22.6625616 60.4542159,22.729064 C60.6550752,22.7955665 60.8352578,22.8857143 60.9947637,22.9980296 C61.1527927,23.1103448 61.2827605,23.2536946 61.3772825,23.4251232 C61.4732814,23.5980296 61.5220193,23.8152709 61.5220193,24.0753695 C61.5220193,24.3546798 61.4599893,24.5955665 61.3344522,24.7935961 C61.2074382,24.9931034 61.0494092,25.1541872 60.8515038,25.2812808 C60.6550752,25.4054187 60.436493,25.4970443 60.1928034,25.553202 C59.9491139,25.6108374 59.7069012,25.6403941 59.4676423,25.6403941 C59.1737379,25.6403941 58.8916488,25.6034483 58.6302363,25.5295567 C58.3673469,25.455665 58.1354726,25.3448276 57.9375671,25.1926108 C57.7381847,25.0418719 57.5816327,24.8527094 57.4664339,24.617734 C57.3512352,24.3842365 57.292159,24.1064039 57.292159,23.7871921 L57.9567669,23.7871921 C57.9567669,24.0073892 57.9995972,24.1980296 58.0852578,24.3591133 C58.1723953,24.5187192 58.2861171,24.6502463 58.4249463,24.7536946 C58.5652524,24.8571429 58.729189,24.9325123 58.9152793,24.9812808 C59.1013695,25.0315271 59.2933673,25.0566502 59.4912728,25.0566502 C59.646348,25.0566502 59.8058539,25.0418719 59.9653598,25.0123153 C60.1248657,24.9812808 60.2696026,24.9325123 60.3980934,24.8615764 C60.5236305,24.7906404 60.6284909,24.6945813 60.7067669,24.5704433 C60.7865199,24.4477833 60.8263963,24.291133 60.8263963,24.1004926 C60.8263963,23.9187192 60.7761815,23.7694581 60.6801826,23.655665 C60.5841837,23.5433498 60.4571697,23.4502463 60.2976638,23.3793103 C60.1381579,23.3083744 59.9564984,23.2507389 59.7556391,23.2078818 C59.5533029,23.162069 59.3494898,23.1162562 59.141246,23.0689655 C58.9315252,23.0231527 58.7262352,22.9684729 58.523899,22.9078818 C58.3215628,22.8472906 58.1428571,22.7660099 57.9833512,22.6655172 C57.8238453,22.5650246 57.6953545,22.4349754 57.5993555,22.2738916 C57.5033566,22.1142857 57.4560956,21.9147783 57.4560956,21.6724138 C57.4560956,21.4064039 57.5077873,21.1773399 57.6156015,20.982266 C57.7248926,20.78867 57.8681525,20.6305419 58.0483351,20.5034483 C58.2270408,20.3793103 58.4308539,20.2847291 58.6597744,20.2241379 C58.887218,20.1635468 59.1220462,20.1325123 59.362782,20.1325123 C59.6345328,20.1325123 59.88413,20.1635468 60.1160043,20.2270936 C60.3478786,20.2906404 60.5487379,20.391133 60.7244898,20.5300493 C60.8972879,20.6689655 61.0361171,20.8418719 61.1350698,21.0487685 C61.2354995,21.2600985 61.2930988,21.5083744 61.3004834,21.7995074 L60.6388292,21.7995074 C60.5959989,21.4152709 60.4601235,21.1433498 60.2282492,20.973399 Z" id="Path"></path>
                <polygon id="Path" points="66.3559345 20.2551724 70.5665951 20.2551724 70.5665951 20.8433498 68.8090763 20.8433498 68.8090763 25.5192118 68.1104995 25.5192118 68.1104995 20.8433498 66.3559345 20.8433498"></polygon>
                <polygon id="Path" points="79.3276047 20.8433498 76.3929914 20.8433498 76.3929914 22.517734 79.1282223 22.517734 79.1282223 23.1073892 76.3929914 23.1073892 76.3929914 24.9295567 79.3497583 24.9295567 79.3497583 25.5192118 75.6944146 25.5192118 75.6944146 20.2536946 79.3276047 20.2536946"></polygon>
                <polygon id="Path" points="88.252551 24.5246305 88.2673201 24.5246305 88.2673201 20.2551724 88.9304511 20.2551724 88.9304511 25.5206897 88.1654135 25.5206897 85.4154135 21.2955665 85.4021214 21.2955665 85.4021214 25.5206897 84.7389903 25.5206897 84.7389903 20.2551724 85.4818743 20.2551724"></polygon>
                <polygon id="Path" points="98.2482546 20.8433498 95.3151182 20.8433498 95.3151182 22.517734 98.0503491 22.517734 98.0503491 23.1073892 95.3151182 23.1073892 95.3151182 24.9295567 98.2689313 24.9295567 98.2689313 25.5192118 94.6135875 25.5192118 94.6135875 20.2536946 98.2482546 20.2536946"></polygon>
                <path d="M107.317938,20.6216749 C107.600027,20.8684729 107.74181,21.2054187 107.74181,21.6339901 C107.74181,21.953202 107.669441,22.2325123 107.524705,22.4748768 C107.379968,22.7142857 107.146617,22.8783251 106.829082,22.9684729 L106.829082,22.9832512 C106.981203,23.01133 107.10674,23.0615764 107.199785,23.1310345 C107.295784,23.2004926 107.372583,23.2817734 107.428706,23.3778325 C107.484828,23.4738916 107.526182,23.5817734 107.554243,23.7 C107.582304,23.8182266 107.601504,23.9394089 107.614796,24.0694581 C107.626611,24.1965517 107.633996,24.326601 107.639903,24.4596059 C107.644334,24.5926108 107.656149,24.7226601 107.673872,24.8512315 C107.694549,24.979803 107.72261,25.1009852 107.759533,25.2162562 C107.796455,25.3315271 107.852578,25.4320197 107.924946,25.5221675 L107.146617,25.5221675 C107.097879,25.4674877 107.062433,25.3950739 107.046187,25.3004926 C107.029941,25.208867 107.018126,25.1039409 107.013695,24.98867 C107.009264,24.8719212 107.003357,24.7492611 106.997449,24.6162562 C106.993018,24.4817734 106.979726,24.3517241 106.954619,24.2231527 C106.935419,24.0960591 106.911788,23.9748768 106.880773,23.8596059 C106.851235,23.744335 106.803974,23.6423645 106.73899,23.5566502 C106.67696,23.4694581 106.592777,23.4014778 106.489393,23.3497537 C106.38601,23.2995074 106.250134,23.2729064 106.077336,23.2729064 L104.368555,23.2729064 L104.368555,25.5221675 L103.664071,25.5221675 L103.664071,20.2566369 L106.14232,20.2566369 C106.644468,20.2551724 107.035849,20.3763547 107.317938,20.6216749 Z M106.288534,22.6418719 C106.436224,22.6182266 106.566192,22.5694581 106.67696,22.4985222 C106.786251,22.4275862 106.876343,22.3330049 106.942803,22.2118227 C107.009264,22.0906404 107.040279,21.9339901 107.040279,21.7448276 C107.040279,21.4773399 106.967911,21.2630542 106.818743,21.0960591 C106.67253,20.929064 106.434748,20.8448276 106.106874,20.8448276 L104.367078,20.8448276 L104.367078,22.6802956 L105.824785,22.6802956 C105.987245,22.6788177 106.14232,22.6669951 106.288534,22.6418719 Z" id="Shape"></path>
                <path d="M115.897288,20.973399 C115.66246,20.8034483 115.364125,20.7192118 115.000806,20.7192118 C114.853115,20.7192118 114.709855,20.7339901 114.566595,20.762069 C114.423335,20.7916256 114.296321,20.8403941 114.18703,20.9098522 C114.076262,20.9793103 113.986171,21.070936 113.921187,21.1876847 C113.853249,21.3029557 113.820757,21.4477833 113.820757,21.617734 C113.820757,21.7788177 113.869495,21.9118227 113.965494,22.0137931 C114.06297,22.1142857 114.188507,22.1970443 114.34949,22.2605911 C114.508996,22.3256158 114.689178,22.3773399 114.891515,22.4187192 C115.093851,22.4600985 115.297664,22.5059113 115.505908,22.5561576 C115.715628,22.6049261 115.920918,22.6625616 116.123255,22.729064 C116.325591,22.7955665 116.504296,22.8857143 116.663802,22.9980296 C116.821831,23.1103448 116.950322,23.2536946 117.047798,23.4251232 C117.14232,23.5980296 117.191058,23.8152709 117.191058,24.0753695 C117.191058,24.3546798 117.129028,24.5955665 117.003491,24.7935961 C116.877954,24.9931034 116.716971,25.1541872 116.519066,25.2812808 C116.325591,25.4054187 116.104055,25.4970443 115.861842,25.553202 C115.618153,25.6108374 115.377417,25.6403941 115.135204,25.6403941 C114.8413,25.6403941 114.560687,25.6034483 114.299275,25.5295567 C114.036386,25.455665 113.805988,25.3448276 113.605129,25.1926108 C113.407223,25.0418719 113.250671,24.8527094 113.13695,24.617734 C113.020274,24.3842365 112.962675,24.1064039 112.962675,23.7871921 L113.625806,23.7871921 C113.625806,24.0073892 113.668636,24.1980296 113.754296,24.3591133 C113.839957,24.5187192 113.953679,24.6502463 114.092508,24.7536946 C114.232814,24.8571429 114.396751,24.9325123 114.584318,24.9812808 C114.768931,25.0315271 114.960929,25.0566502 115.158835,25.0566502 C115.315387,25.0566502 115.473416,25.0418719 115.632922,25.0123153 C115.792427,24.9812808 115.935687,24.9325123 116.064178,24.8615764 C116.192669,24.7906404 116.294576,24.6945813 116.374329,24.5704433 C116.452605,24.4477833 116.492481,24.291133 116.492481,24.1004926 C116.492481,23.9187192 116.443743,23.7694581 116.347744,23.655665 C116.253222,23.5433498 116.124731,23.4502463 115.965226,23.3793103 C115.80572,23.3083744 115.622583,23.2507389 115.421724,23.2078818 C115.219388,23.162069 115.017052,23.1162562 114.807331,23.0689655 C114.59761,23.0231527 114.393797,22.9684729 114.191461,22.9078818 C113.990602,22.8472906 113.808942,22.7660099 113.650913,22.6655172 C113.491407,22.5650246 113.362916,22.4349754 113.268394,22.2738916 C113.170918,22.1142857 113.12218,21.9147783 113.12218,21.6724138 C113.12218,21.4064039 113.175349,21.1773399 113.283163,20.982266 C113.392454,20.78867 113.535714,20.6305419 113.715897,20.5034483 C113.894603,20.3793103 114.098416,20.2847291 114.327336,20.2241379 C114.55478,20.1635468 114.789608,20.1325123 115.031821,20.1325123 C115.303571,20.1325123 115.553169,20.1635468 115.783566,20.2270936 C116.013963,20.2906404 116.2163,20.391133 116.392052,20.5300493 C116.566327,20.6689655 116.703679,20.8418719 116.804108,21.0487685 C116.903061,21.2600985 116.959184,21.5083744 116.968045,21.7995074 L116.306391,21.7995074 C116.265038,21.4152709 116.129162,21.1433498 115.897288,20.973399 Z" id="Path"></path>
            </g>
        </g>
    </g>
</svg>