<?xml version="1.0" encoding="UTF-8"?>
<svg width="266px" height="79px" viewBox="0 0 266 79" version="1.1" xmlns="http://www.w3.org/2000/svg" xmlns:xlink="http://www.w3.org/1999/xlink">
    <title>pasted-svg-69826x20 copy</title>
    <g id="Page-1" stroke="none" stroke-width="1" fill="none" fill-rule="evenodd">
        <g id="maptco_homepage_pc" transform="translate(-265.000000, -2234.000000)" fill-rule="nonzero">
            <g id="pasted-svg-69826x20-copy" transform="translate(265.000000, 2234.000000)">
                <g id="Group" transform="translate(0.000000, 0.627631)" fill="#2B3990">
                    <path d="M58.0852537,4.84637681 C58.0852537,4.84637681 60.6605373,9.22448626 62.0819104,12.6127623 C63.5682388,13.5683323 67.7941493,16.792905 69.1505672,18.4718148 C69.777194,17.451525 70.801194,16.0353018 70.801194,16.0353018 C70.801194,16.0353018 66.4721194,9.35773307 58.0852537,4.84637681 Z" id="Path"></path>
                    <path d="M52.6672239,2.37940731 C52.6672239,2.37940731 55.9035224,6.95548345 58.6774925,12.7802726 C57.4204179,17.0251352 55.6704478,22.9146442 55.6704478,22.9146442 L49.3659701,18.0111616 C49.3659701,18.0111616 45.5030448,7.8425265 36.7149851,0.076141034 C36.7149851,0.076141034 45.5336119,-0.647198789 52.6672239,2.37940731 Z" id="Path"></path>
                    <path d="M32.256,0.734760978 C32.256,0.734760978 40.6466866,6.78797318 45.8316418,18.2738482 L43.4856119,26.0402336 L38.0370149,21.9590742 C38.0370149,21.9590742 33.3793433,10.5721826 22.1841194,3.9250703 C23.1737313,3.43396063 26.7042388,1.62180402 32.256,0.734760978 Z" id="Path"></path>
                    <path d="M18.8446567,5.66869998 C18.8446567,5.66869998 15.9063881,7.57603288 12.8993433,10.1457928 C14.0570746,10.5721826 23.368597,14.3906554 28.6872836,25.4158771 C29.5813731,26.1087605 33.6429851,29.2000865 33.6429851,29.2000865 L35.2286567,23.7712308 C35.2286567,23.7712308 31.3619104,13.0429591 18.8446567,5.66869998 Z" id="Path"></path>
                    <path d="M10.4883582,12.5137789 L7.97802985,15.3804889 C7.97802985,15.3804889 18.248597,18.0149686 23.2386866,29.7635302 C23.9990448,30.48687 25.3210746,31.5718797 25.3210746,31.5718797 L26.3756418,27.98183 C26.3756418,27.98183 22.4439403,17.2878218 10.4883582,12.5137789 Z" id="Path"></path>
                    <path d="M6.06376119,18.2433917 C6.06376119,18.2433917 15.2453731,20.3144279 19.8686567,30.1556565 L19.0089552,33.0832793 L16.896,31.5718797 C16.896,31.5718797 13.9233433,23.5732641 4.44370149,21.1710145 L6.06376119,18.2433917 Z" id="Path"></path>
                    <path d="M3.02232836,24.1976206 L2.16644776,26.2724638 C2.16644776,26.2724638 9.23510448,26.8663638 12.471403,34.9258923 C12.8687761,33.6733723 13.3960597,31.7660394 13.3960597,31.7660394 C13.3960597,31.7660394 10.8513433,26.0402336 3.02232836,24.1976206 Z" id="Path"></path>
                    <path d="M58.0852537,73.3580792 C58.0852537,73.3580792 60.6605373,68.9799697 62.0819104,65.5916937 C63.5682388,64.6361237 67.7941493,61.4115509 69.1505672,59.7326411 C69.777194,60.752931 70.801194,62.1691542 70.801194,62.1691542 C70.801194,62.1691542 66.4721194,68.85053 58.0852537,73.3580792 Z" id="Path"></path>
                    <path d="M52.6672239,75.8288557 C52.6672239,75.8288557 55.9035224,71.2527796 58.6774925,65.4279905 C57.4204179,61.1831278 55.6704478,55.2898118 55.6704478,55.2898118 L49.3621493,60.1932944 C49.3621493,60.1932944 45.4992239,70.3619295 36.7111642,78.1283149 C36.7149851,78.132122 45.5336119,78.8554618 52.6672239,75.8288557 Z" id="Path"></path>
                    <path d="M32.256,77.4735021 C32.256,77.4735021 40.6466866,71.4164828 45.8316418,59.9344149 L43.4856119,52.1680294 L38.0370149,56.2491888 C38.0370149,56.2491888 33.3793433,67.6360805 22.1841194,74.2831927 C23.1737313,74.7743024 26.7042388,76.582652 32.256,77.4735021 Z" id="Path"></path>
                    <path d="M18.8446567,72.535756 C18.8446567,72.535756 15.9063881,70.6284231 12.8993433,68.0586632 C14.0570746,67.6322734 23.368597,63.8138006 28.6872836,52.7885788 C29.5775522,52.0956954 33.6429851,49.0043695 33.6429851,49.0043695 L35.2286567,54.4332252 C35.2286567,54.4370322 31.3619104,65.1653039 18.8446567,72.535756 Z" id="Path"></path>
                    <path d="M10.4883582,65.690677 L7.97802985,62.8277742 C7.97802985,62.8277742 18.248597,60.1932944 23.2386866,48.4447329 C23.9990448,47.721393 25.3210746,46.6325762 25.3210746,46.6325762 L26.3794627,50.2188189 C26.3756418,50.222626 22.4439403,60.9204413 10.4883582,65.690677 Z" id="Path"></path>
                    <path d="M6.06376119,59.9648713 C6.06376119,59.9648713 15.2453731,57.8900281 19.8686567,48.0526065 L19.0089552,45.1249838 L16.896,46.6363833 C16.896,46.6363833 13.9233433,54.6349989 4.44370149,57.0372485 L6.06376119,59.9648713 Z" id="Path"></path>
                    <path d="M3.02232836,54.0068354 L2.16262687,51.9319922 C2.16262687,51.9319922 9.23128358,51.3380921 12.4675821,43.2747567 C12.8649552,44.5234696 13.3922388,46.4346096 13.3922388,46.4346096 C13.3922388,46.4346096 10.8513433,52.1642224 3.02232836,54.0068354 Z" id="Path"></path>
                    <path d="M1.17301493,29.3980532 C1.17301493,29.3980532 -1.46722388,38.2494484 1.17301493,48.8482803 C1.30674627,49.1452304 8.66961194,46.4802942 8.47092537,43.0234912 C8.27223881,39.5666883 3.87820896,39.1364915 3.87820896,39.1364915 C3.87820896,39.1364915 8.64286567,38.0248324 8.47474627,34.9296993 C8.31044776,31.8345663 2.92680597,29.6607398 1.17301493,29.3980532 Z" id="Path"></path>
                    <path d="M71.825194,75.5471339 C69.6167164,75.5471339 67.8170746,73.7578196 67.8170746,71.5535367 C67.8170746,69.3530608 69.6128955,67.5599394 71.825194,67.5599394 C74.0336716,67.5599394 75.8333134,69.3530608 75.8333134,71.5535367 C75.8294925,73.7540125 74.0336716,75.5471339 71.825194,75.5471339 Z M71.825194,68.2185594 C69.9797015,68.2185594 68.4780896,69.7147307 68.4780896,71.5535367 C68.4780896,73.3923426 69.9797015,74.888514 71.825194,74.888514 C73.6706866,74.888514 75.1722985,73.3923426 75.1722985,71.5535367 C75.1722985,69.7147307 73.6706866,68.2185594 71.825194,68.2185594 Z" id="Shape"></path>
                    <path d="M69.7924776,69.1741294 L71.9245373,69.1741294 C72.5244179,69.1741294 72.998209,69.3492537 73.3038806,69.6500108 C73.5560597,69.9088903 73.7012537,70.2629461 73.7012537,70.6779148 L73.7012537,70.693143 C73.7012537,71.4735886 73.2274627,71.945663 72.5664478,72.1360156 L73.8579104,73.9405581 L72.8606567,73.9405581 L71.6876418,72.2806835 L70.6368955,72.2806835 L70.6368955,73.9405581 L69.7962985,73.9405581 L69.7962985,69.1741294 L69.7924776,69.1741294 Z M71.863403,71.5345014 C72.4632836,71.5345014 72.8453731,71.2223232 72.8453731,70.7388276 L72.8453731,70.7274064 C72.8453731,70.2172615 72.4785672,69.9393467 71.8557612,69.9393467 L70.6330746,69.9393467 L70.6330746,71.5383085 L71.863403,71.5383085 L71.863403,71.5345014 Z" id="Shape"></path>
                </g>
                <g id="Group" transform="translate(93.134328, 16.150019)" fill="#000000">
                    <g>
                        <path d="M12.0722887,14.8651031 L12.0722887,11.0472691 L22.0820076,11.0472691 L22.0820076,20.0821825 C21.1092643,21.0112514 19.7016476,21.827478 17.8553427,22.538385 C16.0090379,23.2417692 14.1398449,23.595342 12.2477639,23.595342 C9.84070119,23.595342 7.74644216,23.0988355 5.95735749,22.1058225 C4.16827282,21.1090482 2.82550565,19.6872342 1.92905598,17.8366191 C1.02879163,15.986004 0.578659449,13.9736482 0.578659449,11.7957903 C0.578659449,9.43362309 1.07838246,7.3347548 2.08545784,5.49918539 C3.08871854,3.66361599 4.55737013,2.25308622 6.4952273,1.27511891 C7.96769357,0.522836368 9.80636907,0.146695096 11.9998098,0.146695096 C14.85319,0.146695096 17.0847775,0.737236892 18.6907575,1.91832049 C20.2967376,3.09940408 21.326701,4.7318572 21.7882773,6.81567984 L17.1763298,7.66575912 C16.852082,6.55238095 16.2417333,5.67221038 15.3490983,5.0290088 C14.4564633,4.38204581 13.3387623,4.06232573 11.9998098,4.06232573 C9.97040029,4.06232573 8.35679087,4.69424307 7.15898152,5.96560057 C5.96117217,7.23319665 5.3622675,9.11390301 5.3622675,11.6114811 C5.3622675,14.3046526 5.96880153,16.3207698 7.1818696,17.6673555 C8.39493767,19.0139413 9.985659,19.6834727 11.9502189,19.6834727 C12.9229622,19.6834727 13.8957055,19.4991635 14.8760781,19.1192608 C15.852636,18.7431196 16.6918655,18.2879886 17.3937665,17.7501066 L17.3937665,14.8651031 L12.0722887,14.8651031 Z" id="Path"></path>
                        <polygon id="Path" points="26.3658926 23.204155 26.3658926 0.52659778 43.4175098 0.52659778 43.4175098 4.36323875 31.0083575 4.36323875 31.0083575 9.39224755 42.5515776 9.39224755 42.5515776 13.2138429 31.0083575 13.2138429 31.0083575 19.3863211 43.856198 19.3863211 43.856198 23.2079165 26.3658926 23.2079165"></polygon>
                        <polygon id="Path" points="47.7319123 23.204155 47.7319123 0.52659778 54.6822583 0.52659778 58.8555176 15.9972883 62.9830008 0.52659778 69.9447908 0.52659778 69.9447908 23.204155 65.6303883 23.204155 65.6303883 5.3524903 61.064217 23.204155 56.5934127 23.204155 52.0463148 5.3524903 52.0463148 23.204155"></polygon>
                        <polygon id="Path" points="74.0264978 17.1558034 74.0264978 12.8076103 82.6858202 12.8076103 82.6858202 17.1558034"></polygon>
                        <polygon id="Path" points="91.2993664 23.204155 91.2993664 13.661451 82.8765542 0.52659778 88.3201018 0.52659778 93.7331319 9.49756711 99.0355364 0.52659778 104.383717 0.52659778 95.9265726 13.6915423 95.9265726 23.204155"></polygon>
                        <polygon id="Path" points="106.687783 23.204155 106.687783 0.52659778 123.739401 0.52659778 123.739401 4.36323875 111.330248 4.36323875 111.330248 9.39224755 122.877283 9.39224755 122.877283 13.2138429 111.330248 13.2138429 111.330248 19.3863211 124.178089 19.3863211 124.178089 23.2079165 106.687783 23.2079165"></polygon>
                        <path d="M148.859065,23.204155 L143.808429,23.204155 L141.798093,18.054781 L132.604716,18.054781 L130.705005,23.204155 L125.780254,23.204155 L134.737121,0.52659778 L139.646614,0.52659778 L148.859065,23.204155 Z M140.306554,14.2331857 L137.136555,5.81890547 L134.031406,14.2331857 L140.306554,14.2331857 Z" id="Shape"></path>
                        <path d="M151.338607,23.204155 L151.338607,0.52659778 L161.111815,0.52659778 C163.568469,0.52659778 165.353739,0.729714067 166.467625,1.13594664 C167.581512,1.54217921 168.474147,2.26813187 169.141716,3.31004319 C169.809284,4.35195451 170.144976,5.54432234 170.144976,6.88338527 C170.144976,8.58354382 169.637624,9.99031218 168.622919,11.0999289 C167.608214,12.2057843 166.089972,12.905407 164.072007,13.1950358 C165.075267,13.7742934 165.906867,14.4062107 166.559178,15.0983106 C167.215302,15.7904106 168.092679,17.0166311 169.20275,18.7807337 L172.010355,23.204155 L166.456181,23.204155 L163.099263,18.2691816 C161.909083,16.505079 161.092742,15.3917008 160.654054,14.9328085 C160.215366,14.4739161 159.749975,14.1579575 159.257881,13.9886939 C158.765787,13.8194303 157.987593,13.7329178 156.923297,13.7329178 L155.981071,13.7329178 L155.981071,23.2003936 L151.338607,23.2003936 L151.338607,23.204155 Z M155.981071,10.1182002 L159.418098,10.1182002 C161.64587,10.1182002 163.038228,10.0241649 163.591357,9.83985567 C164.144485,9.65554644 164.579359,9.33206495 164.895977,8.88069542 C165.208781,8.42556449 165.365183,7.85759117 165.365183,7.18053688 C165.365183,6.41697009 165.15919,5.80009841 164.747205,5.33368323 C164.331405,4.86350664 163.751573,4.56635504 162.996267,4.44222842 C162.618614,4.38956864 161.489469,4.36323875 159.605017,4.36323875 L155.981071,4.36323875 L155.981071,10.1182002 L155.981071,10.1182002 Z" id="Shape"></path>
                    </g>
                    <g transform="translate(2.667782, 34.989886)">
                        <polygon id="Path" points="7.46664913 0.969219835 7.46664913 1.85315182 1.52337853 1.85315182 1.52337853 5.77630529 6.80289491 5.77630529 6.80289491 6.66023728 1.52337853 6.66023728 1.52337853 11.8321798 0.478156358 11.8321798 0.478156358 0.969219835"></polygon>
                        <path d="M23.1106496,0.969219835 L27.4288668,11.8321798 L26.2997216,11.8321798 L24.9607692,8.45443114 L19.9482803,8.45443114 L18.6207719,11.8321798 L17.5068855,11.8321798 L21.9357283,0.969219835 L23.1106496,0.969219835 Z M24.606004,7.57426057 L22.4774128,2.00736974 L20.2687134,7.57426057 L24.606004,7.57426057 Z" id="Shape"></path>
                        <path d="M39.9906062,9.66184462 C40.1775255,10.0342245 40.4292944,10.3351375 40.7535421,10.5570608 C41.0777899,10.7789842 41.4630725,10.9407249 41.9055753,11.0385217 C42.3480781,11.1363184 42.8210984,11.1814554 43.3246361,11.1814554 C43.6145517,11.1814554 43.9273554,11.1400798 44.2668619,11.0573287 C44.6063684,10.9783391 44.9229868,10.8466896 45.2167171,10.6699032 C45.5104474,10.4931168 45.7545869,10.2636707 45.9491356,9.98532612 C46.1436842,9.70698158 46.2390512,9.36845443 46.2390512,8.9735061 C46.2390512,8.66883167 46.170387,8.40553278 46.0330585,8.18360943 C45.8919154,7.96168608 45.7164401,7.77361544 45.4951887,7.61939752 C45.2701226,7.46894101 45.0259831,7.34481439 44.7589556,7.24701766 C44.491928,7.14922093 44.2287151,7.07023126 43.9693169,7.01004866 L41.5126633,6.41574545 C41.1960449,6.33675578 40.8832412,6.23519764 40.5818816,6.11483243 C40.2805219,5.99070581 40.0134943,5.82896506 39.7846135,5.62584878 C39.5595475,5.42273249 39.3764428,5.17447925 39.2352997,4.88108906 C39.0979712,4.58769887 39.0254923,4.22660325 39.0254923,3.80156361 C39.0254923,3.53826472 39.0788978,3.22982888 39.1818942,2.87249467 C39.2848905,2.51892187 39.4756245,2.18415614 39.7579108,1.86819747 C40.0440117,1.55600022 40.4292944,1.28893992 40.921388,1.07077798 C41.4172964,0.852616041 42.0467185,0.743535072 42.8210984,0.743535072 C43.3665976,0.743535072 43.885394,0.815001914 44.3774876,0.957935597 C44.8733959,1.10086928 45.3044547,1.3152698 45.6744786,1.59737576 C46.0483172,1.88324313 46.3382329,2.23305451 46.563299,2.65433273 C46.7845504,3.07561096 46.8951761,3.56459461 46.8951761,4.12128369 L45.8461392,4.12128369 C45.8270658,3.70376688 45.7316988,3.34267126 45.5600383,3.03423542 C45.3921924,2.72579957 45.1709409,2.4662621 44.896284,2.2593844 C44.6216271,2.0525067 44.3126381,1.89452736 43.9540582,1.78920781 C43.599293,1.68388825 43.2254544,1.63122847 42.8363571,1.63122847 C42.4739626,1.63122847 42.1268267,1.6688426 41.7949496,1.74407085 C41.4592578,1.81929911 41.1655275,1.94342573 40.9175733,2.10892789 C40.6619898,2.27819146 40.4636265,2.4963534 40.3072246,2.77093653 C40.1546375,3.04551965 40.0745292,3.3840468 40.0745292,3.79027937 C40.0745292,4.04605544 40.1164907,4.26421737 40.2042283,4.45228801 C40.2919659,4.64035865 40.4140357,4.80209939 40.5704375,4.92998743 C40.7230247,5.06163687 40.9023146,5.17071784 41.1044926,5.24970751 C41.302856,5.33245859 41.516478,5.3964026 41.7453588,5.44530097 L44.4308931,6.09978678 C44.8199904,6.20134492 45.1900143,6.32547154 45.5333355,6.47216664 C45.8766566,6.61886174 46.181831,6.80317096 46.4412292,7.0213329 C46.7044421,7.23949483 46.9104348,7.50279372 47.0592073,7.81875239 C47.2079798,8.13471106 47.2804587,8.51461374 47.2804587,8.96222186 C47.2804587,9.08258706 47.2690147,9.24432781 47.2423119,9.4474441 C47.2156091,9.65056038 47.1545743,9.86496091 47.0553926,10.0944071 C46.9562109,10.3200918 46.8188825,10.5532994 46.6395925,10.786507 C46.4603026,11.0197146 46.2123484,11.2303537 45.8995447,11.4184244 C45.586741,11.606495 45.1976437,11.7607129 44.7360675,11.8773167 C44.2706766,11.9939205 43.7175481,12.0503417 43.0690526,12.0503417 C42.4205571,12.0503417 41.8178377,11.9788749 41.2647092,11.8321798 C40.707766,11.6854847 40.2347457,11.4597999 39.8456484,11.1551255 C39.4527364,10.850451 39.1551914,10.4592641 38.9415694,9.9815647 C38.731762,9.5076267 38.6440244,8.93213056 38.6707271,8.26259909 L39.719764,8.26259909 C39.719764,8.81928817 39.8036869,9.28570335 39.9906062,9.66184462 Z" id="Path"></path>
                        <polygon id="Path" points="67.2998965 0.969219835 67.2998965 1.85315182 63.4585143 1.85315182 63.4585143 11.8321798 62.4094774 11.8321798 62.4094774 1.85315182 58.5871686 1.85315182 58.5871686 0.969219835"></polygon>
                        <polygon id="Path" points="86.7433177 0.969219835 86.7433177 1.85315182 80.1858837 1.85315182 80.1858837 5.77630529 86.3275177 5.77630529 86.3275177 6.66023728 80.1858837 6.66023728 80.1858837 10.9520092 86.823426 10.9520092 86.823426 11.8321798 79.1406616 11.8321798 79.1406616 0.969219835"></polygon>
                        <polygon id="Path" points="100.243468 0.969219835 106.663574 10.1583511 106.694091 10.1583511 106.694091 0.969219835 107.743128 0.969219835 107.743128 11.8321798 106.572022 11.8321798 100.151916 2.64304849 100.121399 2.64304849 100.121399 11.8321798 99.0723618 11.8321798 99.0723618 0.969219835"></polygon>
                        <polygon id="Path" points="128.357656 0.969219835 128.357656 1.85315182 121.800222 1.85315182 121.800222 5.77630529 127.941856 5.77630529 127.941856 6.66023728 121.800222 6.66023728 121.800222 10.9520092 128.43395 10.9520092 128.43395 11.8321798 120.751185 11.8321798 120.751185 0.969219835"></polygon>
                        <path d="M145.74878,0.969219835 C146.202727,0.969219835 146.629971,1.02564103 147.038141,1.13848341 C147.442497,1.24756438 147.801077,1.42058936 148.102437,1.64627412 C148.403797,1.8757203 148.647936,2.16911049 148.827226,2.5264447 C149.010331,2.88754032 149.098068,3.31257996 149.098068,3.7978022 C149.098068,4.48614072 148.918778,5.08420535 148.560198,5.59199606 C148.197804,6.09978678 147.663749,6.42326827 146.954218,6.56620196 L146.954218,6.59629326 C147.312798,6.64519162 147.614158,6.73922694 147.850668,6.87839921 C148.087178,7.01381007 148.281727,7.19059647 148.430499,7.40123558 C148.579272,7.61563611 148.686083,7.86012793 148.754747,8.13847247 C148.819597,8.41681701 148.865373,8.72149144 148.888261,9.04497294 C148.89589,9.22928216 148.911149,9.45120551 148.918778,9.7145044 C148.930222,9.97780329 148.949296,10.2448636 148.979813,10.5119239 C149.010331,10.7827456 149.059921,11.0347603 149.128586,11.2717293 C149.193435,11.5124597 149.284988,11.6967689 149.399428,11.8284183 L148.239765,11.8284183 C148.17873,11.7268602 148.12914,11.6027336 148.094808,11.4560385 C148.056661,11.3093434 148.033773,11.1551255 148.018514,10.9971461 C148.003255,10.8391668 147.987997,10.6849489 147.980367,10.5344924 C147.968923,10.3802745 147.961294,10.248625 147.94985,10.139544 C147.926962,9.75587994 147.896444,9.37221584 147.850668,8.98855175 C147.804892,8.60864906 147.70571,8.27012192 147.556938,7.9692089 C147.408165,7.66829588 147.194543,7.42756547 146.908442,7.24701766 C146.626156,7.06270844 146.237059,6.98371877 145.744965,7.00252583 L141.750996,7.00252583 L141.750996,11.8246569 L140.701959,11.8246569 L140.701959,0.969219835 L145.74878,0.969219835 Z M145.668671,6.12987808 C145.989104,6.12987808 146.290464,6.08097972 146.58038,5.9869444 C146.870295,5.89290908 147.122064,5.7499754 147.335686,5.56942759 C147.549308,5.38887978 147.724784,5.16695643 147.850668,4.90741895 C147.980367,4.64788147 148.045217,4.35072987 148.045217,4.01596414 C148.045217,3.34643267 147.850668,2.81983489 147.457756,2.43617079 C147.064844,2.0525067 146.469754,1.85691324 145.668671,1.85691324 L141.750996,1.85691324 L141.750996,6.13363949 L145.668671,6.13363949 L145.668671,6.12987808 Z" id="Shape"></path>
                        <path d="M162.548628,9.66184462 C162.731733,10.0342245 162.987316,10.3351375 163.311564,10.5570608 C163.635812,10.7789842 164.01728,10.9407249 164.463597,11.0385217 C164.9061,11.1363184 165.37912,11.1814554 165.882658,11.1814554 C166.168759,11.1814554 166.485377,11.1400798 166.824884,11.0573287 C167.16439,10.9783391 167.481009,10.8466896 167.770924,10.6699032 C168.064655,10.4931168 168.308794,10.2636707 168.503343,9.98532612 C168.701706,9.70698158 168.797073,9.36845443 168.797073,8.9735061 C168.797073,8.66883167 168.728409,8.40553278 168.59108,8.18360943 C168.449937,7.96168608 168.270647,7.77361544 168.049396,7.61939752 C167.828144,7.46894101 167.584005,7.34481439 167.316977,7.24701766 C167.04995,7.14922093 166.786737,7.07023126 166.531153,7.01004866 L164.078314,6.41574545 C163.761696,6.33675578 163.448892,6.23519764 163.147533,6.11483243 C162.842358,5.99070581 162.579145,5.82896506 162.354079,5.62584878 C162.129013,5.42273249 161.945909,5.17447925 161.804766,4.88108906 C161.663622,4.58769887 161.594958,4.22660325 161.594958,3.80156361 C161.594958,3.53826472 161.644549,3.22982888 161.747545,2.87249467 C161.850542,2.51892187 162.041276,2.18415614 162.327377,1.86819747 C162.609663,1.55600022 162.99876,1.28893992 163.490854,1.07077798 C163.986762,0.852616041 164.616184,0.743535072 165.390564,0.743535072 C165.936063,0.743535072 166.45486,0.815001914 166.946953,0.957935597 C167.439047,1.10086928 167.873921,1.3152698 168.243944,1.59737576 C168.613968,1.88324313 168.907699,2.23305451 169.132765,2.65433273 C169.354016,3.07561096 169.464642,3.56459461 169.464642,4.12128369 L168.415605,4.12128369 C168.396532,3.70376688 168.301165,3.34267126 168.129504,3.03423542 C167.961658,2.72579957 167.740407,2.4662621 167.46575,2.2593844 C167.191093,2.0525067 166.878289,1.89452736 166.523524,1.78920781 C166.168759,1.68388825 165.79492,1.63122847 165.405823,1.63122847 C165.047243,1.63122847 164.700107,1.6688426 164.364415,1.74407085 C164.028724,1.81929911 163.738808,1.94342573 163.483224,2.10892789 C163.231456,2.27819146 163.029278,2.4963534 162.872876,2.77093653 C162.720289,3.04551965 162.643995,3.3840468 162.643995,3.79027937 C162.643995,4.04605544 162.685956,4.26421737 162.773694,4.45228801 C162.861432,4.64035865 162.983501,4.80209939 163.136089,4.92998743 C163.288676,5.06163687 163.467966,5.17071784 163.670144,5.24970751 C163.868507,5.33245859 164.082129,5.3964026 164.31101,5.44530097 L166.996544,6.09978678 C167.385642,6.20134492 167.755665,6.32547154 168.098987,6.47216664 C168.442308,6.61886174 168.747482,6.80317096 169.010695,7.0213329 C169.273908,7.23949483 169.479901,7.50279372 169.628673,7.81875239 C169.777446,8.13471106 169.853739,8.51461374 169.853739,8.96222186 C169.853739,9.08258706 169.842295,9.24432781 169.815592,9.4474441 C169.78889,9.65056038 169.727855,9.86496091 169.628673,10.0944071 C169.533306,10.3200918 169.392163,10.5532994 169.212873,10.786507 C169.033583,11.0197146 168.785629,11.2303537 168.472825,11.4184244 C168.160022,11.606495 167.770924,11.7607129 167.309348,11.8773167 C166.847772,11.9939205 166.290829,12.0503417 165.642333,12.0503417 C164.993838,12.0503417 164.391118,11.9788749 163.83799,11.8321798 C163.281046,11.6854847 162.808026,11.4597999 162.418929,11.1551255 C162.029832,10.850451 161.728472,10.4592641 161.51485,9.9815647 C161.305043,9.5076267 161.217305,8.93213056 161.244008,8.26259909 L162.293045,8.26259909 C162.277786,8.81928817 162.365523,9.28570335 162.548628,9.66184462 Z" id="Path"></path>
                    </g>
                </g>
            </g>
        </g>
    </g>
</svg>