<?xml version="1.0" encoding="UTF-8"?>
<svg width="125px" height="48px" viewBox="0 0 125 48" version="1.1" xmlns="http://www.w3.org/2000/svg" xmlns:xlink="http://www.w3.org/1999/xlink">
    <title>pasted-svg-69826x20 copy 2</title>
    <defs>
        <filter x="-13.8%" y="-4.9%" width="129.0%" height="109.9%" filterUnits="objectBoundingBox" id="filter-1">
            <feOffset dx="8" dy="0" in="SourceAlpha" result="shadowOffsetOuter1"></feOffset>
            <feGaussianBlur stdDeviation="4" in="shadowOffsetOuter1" result="shadowBlurOuter1"></feGaussianBlur>
            <feColorMatrix values="0 0 0 0 0   0 0 0 0 0   0 0 0 0 0  0 0 0 0.5 0" type="matrix" in="shadowBlurOuter1" result="shadowMatrixOuter1"></feColorMatrix>
            <feMerge>
                <feMergeNode in="shadowMatrixOuter1"></feMergeNode>
                <feMergeNode in="SourceGraphic"></feMergeNode>
            </feMerge>
        </filter>
    </defs>
    <g id="Page-1" stroke="none" stroke-width="1" fill="none" fill-rule="evenodd">
        <g id="maptco_homepage_menu_mobile" transform="translate(-19.000000, -766.000000)" fill-rule="nonzero">
            <g id="Group-12" filter="url(#filter-1)">
                <g id="pasted-svg-69826x20-copy-2" transform="translate(19.000000, 774.000000)">
                    <g id="Group" fill="#2B3990">
                        <path d="M23.8888571,2.00042857 C23.8888571,2.00042857 24.948,3.80757143 25.5325714,5.20614286 C26.1438571,5.60057143 27.8818571,6.93157143 28.4397143,7.62457143 C28.6974286,7.20342857 29.1185714,6.61885714 29.1185714,6.61885714 C29.1185714,6.61885714 27.3381429,3.86257143 23.8888571,2.00042857 Z" id="Path"></path>
                        <path d="M21.6605714,0.982142857 C21.6605714,0.982142857 22.9915714,2.871 24.1324286,5.27528571 C23.6154286,7.02742857 22.8957143,9.45842857 22.8957143,9.45842857 L20.3028571,7.43442857 C20.3028571,7.43442857 18.7141429,3.23714286 15.0998571,0.0314285714 C15.0998571,0.0314285714 18.7267143,-0.267142857 21.6605714,0.982142857 Z" id="Path"></path>
                        <path d="M13.266,0.303285714 C13.266,0.303285714 16.7168571,2.80185714 18.8492857,7.54285714 L17.8844286,10.7485714 L15.6435714,9.064 C15.6435714,9.064 13.728,4.36385714 9.12371429,1.62014286 C9.53071429,1.41742857 10.9827143,0.669428571 13.266,0.303285714 Z" id="Path"></path>
                        <path d="M7.75028571,2.33985714 C7.75028571,2.33985714 6.54185714,3.12714286 5.30514286,4.18785714 C5.78128571,4.36385714 9.61085714,5.94 11.7982857,10.4908571 C12.166,10.7768571 13.8364286,12.0528571 13.8364286,12.0528571 L14.4885714,9.812 C14.4885714,9.812 12.8982857,5.38371429 7.75028571,2.33985714 Z" id="Path"></path>
                        <path d="M4.31357143,5.16528571 L3.28114286,6.34857143 C3.28114286,6.34857143 7.50514286,7.436 9.55742857,12.2854286 C9.87014286,12.584 10.4138571,13.0318571 10.4138571,13.0318571 L10.8475714,11.55 C10.8475714,11.55 9.23057143,7.13585714 4.31357143,5.16528571 Z" id="Path"></path>
                        <path d="M2.49385714,7.53028571 C2.49385714,7.53028571 6.27,8.38514286 8.17142857,12.4472857 L7.81785714,13.6557143 L6.94885714,13.0318571 C6.94885714,13.0318571 5.72628571,9.73028571 1.82757143,8.73871429 L2.49385714,7.53028571 Z" id="Path"></path>
                        <path d="M1.243,9.988 L0.891,10.8444286 C0.891,10.8444286 3.79814286,11.0895714 5.12914286,14.4162857 C5.29257143,13.8992857 5.50942857,13.112 5.50942857,13.112 C5.50942857,13.112 4.46285714,10.7485714 1.243,9.988 Z" id="Path"></path>
                        <path d="M23.8888571,30.2798571 C23.8888571,30.2798571 24.948,28.4727143 25.5325714,27.0741429 C26.1438571,26.6797143 27.8818571,25.3487143 28.4397143,24.6557143 C28.6974286,25.0768571 29.1185714,25.6614286 29.1185714,25.6614286 C29.1185714,25.6614286 27.3381429,28.4192857 23.8888571,30.2798571 Z" id="Path"></path>
                        <path d="M21.6605714,31.2997143 C21.6605714,31.2997143 22.9915714,29.4108571 24.1324286,27.0065714 C23.6154286,25.2544286 22.8957143,22.8218571 22.8957143,22.8218571 L20.3012857,24.8458571 C20.3012857,24.8458571 18.7125714,29.0431429 15.0982857,32.2488571 C15.0998571,32.2504286 18.7267143,32.549 21.6605714,31.2997143 Z" id="Path"></path>
                        <path d="M13.266,31.9785714 C13.266,31.9785714 16.7168571,29.4784286 18.8492857,24.739 L17.8844286,21.5332857 L15.6435714,23.2178571 C15.6435714,23.2178571 13.728,27.918 9.12371429,30.6617143 C9.53071429,30.8644286 10.9827143,31.6108571 13.266,31.9785714 Z" id="Path"></path>
                        <path d="M7.75028571,29.9404286 C7.75028571,29.9404286 6.54185714,29.1531429 5.30514286,28.0924286 C5.78128571,27.9164286 9.61085714,26.3402857 11.7982857,21.7894286 C12.1644286,21.5034286 13.8364286,20.2274286 13.8364286,20.2274286 L14.4885714,22.4682857 C14.4885714,22.4698571 12.8982857,26.8981429 7.75028571,29.9404286 Z" id="Path"></path>
                        <path d="M4.31357143,27.115 L3.28114286,25.9332857 C3.28114286,25.9332857 7.50514286,24.8458571 9.55742857,19.9964286 C9.87014286,19.6978571 10.4138571,19.2484286 10.4138571,19.2484286 L10.8491429,20.7287143 C10.8475714,20.7302857 9.23057143,25.146 4.31357143,27.115 Z" id="Path"></path>
                        <path d="M2.49385714,24.7515714 C2.49385714,24.7515714 6.27,23.8951429 8.17142857,19.8345714 L7.81785714,18.6261429 L6.94885714,19.25 C6.94885714,19.25 5.72628571,22.5515714 1.82757143,23.5431429 L2.49385714,24.7515714 Z" id="Path"></path>
                        <path d="M1.243,22.2922857 L0.889428571,21.4358571 C0.889428571,21.4358571 3.79657143,21.1907143 5.12757143,17.8624286 C5.291,18.3778571 5.50785714,19.1667143 5.50785714,19.1667143 C5.50785714,19.1667143 4.46285714,21.5317143 1.243,22.2922857 Z" id="Path"></path>
                        <path d="M0.482428571,12.1345714 C0.482428571,12.1345714 -0.603428571,15.7881429 0.482428571,20.163 C0.537428571,20.2855714 3.56557143,19.1855714 3.48385714,17.7587143 C3.40214286,16.3318571 1.595,16.1542857 1.595,16.1542857 C1.595,16.1542857 3.55457143,15.6954286 3.48542857,14.4178571 C3.41785714,13.1402857 1.20371429,12.243 0.482428571,12.1345714 Z" id="Path"></path>
                        <path d="M29.5397143,31.1834286 C28.6314286,31.1834286 27.8912857,30.4448571 27.8912857,29.535 C27.8912857,28.6267143 28.6298571,27.8865714 29.5397143,27.8865714 C30.448,27.8865714 31.1881429,28.6267143 31.1881429,29.535 C31.1865714,30.4432857 30.448,31.1834286 29.5397143,31.1834286 Z M29.5397143,28.1584286 C28.7807143,28.1584286 28.1631429,28.776 28.1631429,29.535 C28.1631429,30.294 28.7807143,30.9115714 29.5397143,30.9115714 C30.2987143,30.9115714 30.9162857,30.294 30.9162857,29.535 C30.9162857,28.776 30.2987143,28.1584286 29.5397143,28.1584286 Z" id="Shape"></path>
                        <path d="M28.7037143,28.5528571 L29.5805714,28.5528571 C29.8272857,28.5528571 30.0221429,28.6251429 30.1478571,28.7492857 C30.2515714,28.8561429 30.3112857,29.0022857 30.3112857,29.1735714 L30.3112857,29.1798571 C30.3112857,29.502 30.1164286,29.6968571 29.8445714,29.7754286 L30.3757143,30.5202857 L29.9655714,30.5202857 L29.4831429,29.8351429 L29.051,29.8351429 L29.051,30.5202857 L28.7052857,30.5202857 L28.7052857,28.5528571 L28.7037143,28.5528571 Z M29.5554286,29.5271429 C29.8021429,29.5271429 29.9592857,29.3982857 29.9592857,29.1987143 L29.9592857,29.194 C29.9592857,28.9834286 29.8084286,28.8687143 29.5522857,28.8687143 L29.0494286,28.8687143 L29.0494286,29.5287143 L29.5554286,29.5287143 L29.5554286,29.5271429 Z" id="Shape"></path>
                    </g>
                    <g id="Group" transform="translate(37.714286, 6.285714)" fill="#000000">
                        <g>
                            <path d="M5.918,6.21028571 L5.918,4.61528571 L10.0414286,4.61528571 L10.0414286,8.38985714 C9.64071429,8.778 9.06085714,9.119 8.30028571,9.416 C7.53971429,9.70985714 6.76971429,9.85757143 5.99028571,9.85757143 C4.99871429,9.85757143 4.136,9.65014286 3.399,9.23528571 C2.662,8.81885714 2.10885714,8.22485714 1.73957143,7.45171429 C1.36871429,6.67857143 1.18328571,5.83785714 1.18328571,4.928 C1.18328571,3.94114286 1.38914286,3.06428571 1.804,2.29742857 C2.21728571,1.53057143 2.82228571,0.941285714 3.62057143,0.532714286 C4.22714286,0.218428571 4.98457143,0.0612857143 5.88814286,0.0612857143 C7.06357143,0.0612857143 7.98285714,0.308 8.64442857,0.801428571 C9.306,1.29485714 9.73028571,1.97685714 9.92042857,2.84742857 L8.02057143,3.20257143 C7.887,2.73742857 7.63557143,2.36971429 7.26785714,2.101 C6.90014286,1.83071429 6.43971429,1.69714286 5.88814286,1.69714286 C5.05214286,1.69714286 4.38742857,1.96114286 3.894,2.49228571 C3.40057143,3.02185714 3.15385714,3.80757143 3.15385714,4.851 C3.15385714,5.97614286 3.40371429,6.81842857 3.90342857,7.381 C4.40314286,7.94357143 5.05842857,8.22328571 5.86771429,8.22328571 C6.26842857,8.22328571 6.66914286,8.14628571 7.073,7.98757143 C7.47528571,7.83042857 7.821,7.64028571 8.11014286,7.41557143 L8.11014286,6.21028571 L5.918,6.21028571 Z" id="Path"></path>
                            <polygon id="Path" points="11.8061429 9.69414286 11.8061429 0.22 18.8304286 0.22 18.8304286 1.82285714 13.7185714 1.82285714 13.7185714 3.92385714 18.4737143 3.92385714 18.4737143 5.52042857 13.7185714 5.52042857 13.7185714 8.09914286 19.0111429 8.09914286 19.0111429 9.69571429 11.8061429 9.69571429"></polygon>
                            <polygon id="Path" points="20.6077143 9.69414286 20.6077143 0.22 23.4708571 0.22 25.19 6.68328571 26.8902857 0.22 29.7581429 0.22 29.7581429 9.69414286 27.9808571 9.69414286 27.9808571 2.23614286 26.0998571 9.69414286 24.2581429 9.69414286 22.385 2.23614286 22.385 9.69414286"></polygon>
                            <polygon id="Path" points="31.4395714 7.16728571 31.4395714 5.35071429 35.0067143 5.35071429 35.0067143 7.16728571"></polygon>
                            <polygon id="Path" points="38.555 9.69414286 38.555 5.70742857 35.0852857 0.22 37.3277143 0.22 39.5575714 3.96785714 41.7418571 0.22 43.945 0.22 40.4611429 5.72 40.4611429 9.69414286"></polygon>
                            <polygon id="Path" points="44.8941429 9.69414286 44.8941429 0.22 51.9184286 0.22 51.9184286 1.82285714 46.8065714 1.82285714 46.8065714 3.92385714 51.5632857 3.92385714 51.5632857 5.52042857 46.8065714 5.52042857 46.8065714 8.09914286 52.0991429 8.09914286 52.0991429 9.69571429 44.8941429 9.69571429"></polygon>
                            <path d="M62.2662857,9.69414286 L60.1857143,9.69414286 L59.3575714,7.54285714 L55.5704286,7.54285714 L54.7878571,9.69414286 L52.7591429,9.69414286 L56.4488571,0.22 L58.4712857,0.22 L62.2662857,9.69414286 Z M58.7431429,5.94628571 L57.4372857,2.431 L56.1581429,5.94628571 L58.7431429,5.94628571 Z" id="Shape"></path>
                            <path d="M63.2877143,9.69414286 L63.2877143,0.22 L67.3137143,0.22 C68.3257143,0.22 69.0611429,0.304857143 69.52,0.474571429 C69.9788571,0.644285714 70.3465714,0.947571429 70.6215714,1.38285714 C70.8965714,1.81814286 71.0348571,2.31628571 71.0348571,2.87571429 C71.0348571,3.586 70.8258571,4.17371429 70.4078571,4.63728571 C69.9898571,5.09928571 69.3644286,5.39157143 68.5331429,5.51257143 C68.9464286,5.75457143 69.289,6.01857143 69.5577143,6.30771429 C69.828,6.59685714 70.1894286,7.10914286 70.6467143,7.84614286 L71.8032857,9.69414286 L69.5152857,9.69414286 L68.1324286,7.63242857 C67.6421429,6.89542857 67.3058571,6.43028571 67.1251429,6.23857143 C66.9444286,6.04685714 66.7527143,5.91485714 66.55,5.84414286 C66.3472857,5.77342857 66.0267143,5.73728571 65.5882857,5.73728571 L65.2001429,5.73728571 L65.2001429,9.69257143 L63.2877143,9.69257143 L63.2877143,9.69414286 Z M65.2001429,4.22714286 L66.616,4.22714286 C67.5337143,4.22714286 68.1072857,4.18785714 68.3351429,4.11085714 C68.563,4.03385714 68.7421429,3.89871429 68.8725714,3.71014286 C69.0014286,3.52 69.0658571,3.28271429 69.0658571,2.99985714 C69.0658571,2.68085714 68.981,2.42314286 68.8112857,2.22828571 C68.64,2.03185714 68.4011429,1.90771429 68.09,1.85585714 C67.9344286,1.83385714 67.4692857,1.82285714 66.693,1.82285714 L65.2001429,1.82285714 L65.2001429,4.22714286 L65.2001429,4.22714286 Z" id="Shape"></path>
                        </g>
                        <g transform="translate(1.571429, 14.142857)">
                            <polygon id="Path" points="3.54828571 0.88 3.54828571 1.24928571 1.1 1.24928571 1.1 2.88828571 3.27485714 2.88828571 3.27485714 3.25757143 1.1 3.25757143 1.1 5.41828571 0.669428571 5.41828571 0.669428571 0.88"></polygon>
                            <path d="M9.99271429,0.88 L11.7715714,5.41828571 L11.3064286,5.41828571 L10.7548571,4.00714286 L8.69,4.00714286 L8.14314286,5.41828571 L7.68428571,5.41828571 L9.50871429,0.88 L9.99271429,0.88 Z M10.6087143,3.63942857 L9.73185714,1.31371429 L8.822,3.63942857 L10.6087143,3.63942857 Z" id="Shape"></path>
                            <path d="M16.9462857,4.51157143 C17.0232857,4.66714286 17.127,4.79285714 17.2605714,4.88557143 C17.3941429,4.97828571 17.5528571,5.04585714 17.7351429,5.08671429 C17.9174286,5.12757143 18.1122857,5.14642857 18.3197143,5.14642857 C18.4391429,5.14642857 18.568,5.12914286 18.7078571,5.09457143 C18.8477143,5.06157143 18.9781429,5.00657143 19.0991429,4.93271429 C19.2201429,4.85885714 19.3207143,4.763 19.4008571,4.64671429 C19.481,4.53042857 19.5202857,4.389 19.5202857,4.224 C19.5202857,4.09671429 19.492,3.98671429 19.4354286,3.894 C19.3772857,3.80128571 19.305,3.72271429 19.2138571,3.65828571 C19.1211429,3.59542857 19.0205714,3.54357143 18.9105714,3.50271429 C18.8005714,3.46185714 18.6921429,3.42885714 18.5852857,3.40371429 L17.5732857,3.15542857 C17.4428571,3.12242857 17.314,3.08 17.1898571,3.02971429 C17.0657143,2.97785714 16.9557143,2.91028571 16.8614286,2.82542857 C16.7687143,2.74057143 16.6932857,2.63685714 16.6351429,2.51428571 C16.5785714,2.39171429 16.5487143,2.24085714 16.5487143,2.06328571 C16.5487143,1.95328571 16.5707143,1.82442857 16.6131429,1.67514286 C16.6555714,1.52742857 16.7341429,1.38757143 16.8504286,1.25557143 C16.9682857,1.12514286 17.127,1.01357143 17.3297143,0.922428571 C17.534,0.831285714 17.7932857,0.785714286 18.1122857,0.785714286 C18.337,0.785714286 18.5507143,0.815571429 18.7534286,0.875285714 C18.9577143,0.935 19.1352857,1.02457143 19.2877143,1.14242857 C19.4417143,1.26185714 19.5611429,1.408 19.6538571,1.584 C19.745,1.76 19.7905714,1.96428571 19.7905714,2.19685714 L19.3584286,2.19685714 C19.3505714,2.02242857 19.3112857,1.87157143 19.2405714,1.74271429 C19.1714286,1.61385714 19.0802857,1.50542857 18.9671429,1.419 C18.854,1.33257143 18.7267143,1.26657143 18.579,1.22257143 C18.4328571,1.17857143 18.2788571,1.15657143 18.1185714,1.15657143 C17.9692857,1.15657143 17.8262857,1.17228571 17.6895714,1.20371429 C17.5512857,1.23514286 17.4302857,1.287 17.3281429,1.35614286 C17.2228571,1.42685714 17.1411429,1.518 17.0767143,1.63271429 C17.0138571,1.74742857 16.9808571,1.88885714 16.9808571,2.05857143 C16.9808571,2.16542857 16.9981429,2.25657143 17.0342857,2.33514286 C17.0704286,2.41371429 17.1207143,2.48128571 17.1851429,2.53471429 C17.248,2.58971429 17.3218571,2.63528571 17.4051429,2.66828571 C17.4868571,2.70285714 17.5748571,2.72957143 17.6691429,2.75 L18.7754286,3.02342857 C18.9357143,3.06585714 19.0881429,3.11771429 19.2295714,3.179 C19.371,3.24028571 19.4967143,3.31728571 19.6035714,3.40842857 C19.712,3.49957143 19.7968571,3.60957143 19.8581429,3.74157143 C19.9194286,3.87357143 19.9492857,4.03228571 19.9492857,4.21928571 C19.9492857,4.26957143 19.9445714,4.33714286 19.9335714,4.422 C19.9225714,4.50685714 19.8974286,4.59642857 19.8565714,4.69228571 C19.8157143,4.78657143 19.7591429,4.884 19.6852857,4.98142857 C19.6114286,5.07885714 19.5092857,5.16685714 19.3804286,5.24542857 C19.2515714,5.324 19.0912857,5.38842857 18.9011429,5.43714286 C18.7094286,5.48585714 18.4815714,5.50942857 18.2144286,5.50942857 C17.9472857,5.50942857 17.699,5.47957143 17.4711429,5.41828571 C17.2417143,5.357 17.0468571,5.26271429 16.8865714,5.13542857 C16.7247143,5.00814286 16.6021429,4.84471429 16.5141429,4.64514286 C16.4277143,4.44714286 16.3915714,4.20671429 16.4025714,3.927 L16.8347143,3.927 C16.8347143,4.15957143 16.8692857,4.35442857 16.9462857,4.51157143 Z" id="Path"></path>
                            <polygon id="Path" points="28.1961429 0.88 28.1961429 1.24928571 26.6137143 1.24928571 26.6137143 5.41828571 26.1815714 5.41828571 26.1815714 1.24928571 24.607 1.24928571 24.607 0.88"></polygon>
                            <polygon id="Path" points="36.2057143 0.88 36.2057143 1.24928571 33.5044286 1.24928571 33.5044286 2.88828571 36.0344286 2.88828571 36.0344286 3.25757143 33.5044286 3.25757143 33.5044286 5.05057143 36.2387143 5.05057143 36.2387143 5.41828571 33.0738571 5.41828571 33.0738571 0.88"></polygon>
                            <polygon id="Path" points="41.767 0.88 44.4117143 4.719 44.4242857 4.719 44.4242857 0.88 44.8564286 0.88 44.8564286 5.41828571 44.374 5.41828571 41.7292857 1.57928571 41.7167143 1.57928571 41.7167143 5.41828571 41.2845714 5.41828571 41.2845714 0.88"></polygon>
                            <polygon id="Path" points="53.3484286 0.88 53.3484286 1.24928571 50.6471429 1.24928571 50.6471429 2.88828571 53.1771429 2.88828571 53.1771429 3.25757143 50.6471429 3.25757143 50.6471429 5.05057143 53.3798571 5.05057143 53.3798571 5.41828571 50.215 5.41828571 50.215 0.88"></polygon>
                            <path d="M60.5125714,0.88 C60.6995714,0.88 60.8755714,0.903571429 61.0437143,0.950714286 C61.2102857,0.996285714 61.358,1.06857143 61.4821429,1.16285714 C61.6062857,1.25871429 61.7068571,1.38128571 61.7807143,1.53057143 C61.8561429,1.68142857 61.8922857,1.859 61.8922857,2.06171429 C61.8922857,2.34928571 61.8184286,2.59914286 61.6707143,2.81128571 C61.5214286,3.02342857 61.3014286,3.15857143 61.0091429,3.21828571 L61.0091429,3.23085714 C61.1568571,3.25128571 61.281,3.29057143 61.3784286,3.34871429 C61.4758571,3.40528571 61.556,3.47914286 61.6172857,3.56714286 C61.6785714,3.65671429 61.7225714,3.75885714 61.7508571,3.87514286 C61.7775714,3.99142857 61.7964286,4.11871429 61.8058571,4.25385714 C61.809,4.33085714 61.8152857,4.42357143 61.8184286,4.53357143 C61.8231429,4.64357143 61.831,4.75514286 61.8435714,4.86671429 C61.8561429,4.97985714 61.8765714,5.08514286 61.9048571,5.18414286 C61.9315714,5.28471429 61.9692857,5.36171429 62.0164286,5.41671429 L61.5387143,5.41671429 C61.5135714,5.37428571 61.4931429,5.32242857 61.479,5.26114286 C61.4632857,5.19985714 61.4538571,5.13542857 61.4475714,5.06942857 C61.4412857,5.00342857 61.435,4.939 61.4318571,4.87614286 C61.4271429,4.81171429 61.424,4.75671429 61.4192857,4.71114286 C61.4098571,4.55085714 61.3972857,4.39057143 61.3784286,4.23028571 C61.3595714,4.07157143 61.3187143,3.93014286 61.2574286,3.80442857 C61.1961429,3.67871429 61.1081429,3.57814286 60.9902857,3.50271429 C60.874,3.42571429 60.7137143,3.39271429 60.511,3.40057143 L58.8657143,3.40057143 L58.8657143,5.41514286 L58.4335714,5.41514286 L58.4335714,0.88 L60.5125714,0.88 Z M60.4795714,3.036 C60.6115714,3.036 60.7357143,3.01557143 60.8551429,2.97628571 C60.9745714,2.937 61.0782857,2.87728571 61.1662857,2.80185714 C61.2542857,2.72642857 61.3265714,2.63371429 61.3784286,2.52528571 C61.4318571,2.41685714 61.4585714,2.29271429 61.4585714,2.15285714 C61.4585714,1.87314286 61.3784286,1.65314286 61.2165714,1.49285714 C61.0547143,1.33257143 60.8095714,1.25085714 60.4795714,1.25085714 L58.8657143,1.25085714 L58.8657143,3.03757143 L60.4795714,3.03757143 L60.4795714,3.036 Z" id="Shape"></path>
                            <path d="M67.4331429,4.51157143 C67.5085714,4.66714286 67.6138571,4.79285714 67.7474286,4.88557143 C67.881,4.97828571 68.0381429,5.04585714 68.222,5.08671429 C68.4042857,5.12757143 68.5991429,5.14642857 68.8065714,5.14642857 C68.9244286,5.14642857 69.0548571,5.12914286 69.1947143,5.09457143 C69.3345714,5.06157143 69.465,5.00657143 69.5844286,4.93271429 C69.7054286,4.85885714 69.806,4.763 69.8861429,4.64671429 C69.9678571,4.53042857 70.0071429,4.389 70.0071429,4.224 C70.0071429,4.09671429 69.9788571,3.98671429 69.9222857,3.894 C69.8641429,3.80128571 69.7902857,3.72271429 69.6991429,3.65828571 C69.608,3.59542857 69.5074286,3.54357143 69.3974286,3.50271429 C69.2874286,3.46185714 69.179,3.42885714 69.0737143,3.40371429 L68.0632857,3.15542857 C67.9328571,3.12242857 67.804,3.08 67.6798571,3.02971429 C67.5541429,2.97785714 67.4457143,2.91028571 67.353,2.82542857 C67.2602857,2.74057143 67.1848571,2.63685714 67.1267143,2.51428571 C67.0685714,2.39171429 67.0402857,2.24085714 67.0402857,2.06328571 C67.0402857,1.95328571 67.0607143,1.82442857 67.1031429,1.67514286 C67.1455714,1.52742857 67.2241429,1.38757143 67.342,1.25557143 C67.4582857,1.12514286 67.6185714,1.01357143 67.8212857,0.922428571 C68.0255714,0.831285714 68.2848571,0.785714286 68.6038571,0.785714286 C68.8285714,0.785714286 69.0422857,0.815571429 69.245,0.875285714 C69.4477143,0.935 69.6268571,1.02457143 69.7792857,1.14242857 C69.9317143,1.26185714 70.0527143,1.408 70.1454286,1.584 C70.2365714,1.76 70.2821429,1.96428571 70.2821429,2.19685714 L69.85,2.19685714 C69.8421429,2.02242857 69.8028571,1.87157143 69.7321429,1.74271429 C69.663,1.61385714 69.5718571,1.50542857 69.4587143,1.419 C69.3455714,1.33257143 69.2167143,1.26657143 69.0705714,1.22257143 C68.9244286,1.17857143 68.7704286,1.15657143 68.6101429,1.15657143 C68.4624286,1.15657143 68.3194286,1.17228571 68.1811429,1.20371429 C68.0428571,1.23514286 67.9234286,1.287 67.8181429,1.35614286 C67.7144286,1.42685714 67.6311429,1.518 67.5667143,1.63271429 C67.5038571,1.74742857 67.4724286,1.88885714 67.4724286,2.05857143 C67.4724286,2.16542857 67.4897143,2.25657143 67.5258571,2.33514286 C67.562,2.41371429 67.6122857,2.48128571 67.6751429,2.53471429 C67.738,2.58971429 67.8118571,2.63528571 67.8951429,2.66828571 C67.9768571,2.70285714 68.0648571,2.72957143 68.1591429,2.75 L69.2654286,3.02342857 C69.4257143,3.06585714 69.5781429,3.11771429 69.7195714,3.179 C69.861,3.24028571 69.9867143,3.31728571 70.0951429,3.40842857 C70.2035714,3.49957143 70.2884286,3.60957143 70.3497143,3.74157143 C70.411,3.87357143 70.4424286,4.03228571 70.4424286,4.21928571 C70.4424286,4.26957143 70.4377143,4.33714286 70.4267143,4.422 C70.4157143,4.50685714 70.3905714,4.59642857 70.3497143,4.69228571 C70.3104286,4.78657143 70.2522857,4.884 70.1784286,4.98142857 C70.1045714,5.07885714 70.0024286,5.16685714 69.8735714,5.24542857 C69.7447143,5.324 69.5844286,5.38842857 69.3942857,5.43714286 C69.2041429,5.48585714 68.9747143,5.50942857 68.7075714,5.50942857 C68.4404286,5.50942857 68.1921429,5.47957143 67.9642857,5.41828571 C67.7348571,5.357 67.54,5.26271429 67.3797143,5.13542857 C67.2194286,5.00814286 67.0952857,4.84471429 67.0072857,4.64514286 C66.9208571,4.44714286 66.8847143,4.20671429 66.8957143,3.927 L67.3278571,3.927 C67.3215714,4.15957143 67.3577143,4.35442857 67.4331429,4.51157143 Z" id="Path"></path>
                        </g>
                    </g>
                </g>
            </g>
        </g>
    </g>
</svg>