<?xml version="1.0" encoding="UTF-8"?>
<svg width="20px" height="21px" viewBox="0 0 20 21" version="1.1" xmlns="http://www.w3.org/2000/svg" xmlns:xlink="http://www.w3.org/1999/xlink">
    <title>1374128 copy 3</title>
    <g id="Page-1" stroke="none" stroke-width="1" fill="none" fill-rule="evenodd">
        <g id="maptco_homepage_pc" transform="translate(-793.000000, -1771.000000)" fill="#00783E" fill-rule="nonzero">
            <g id="1374128-copy-3" transform="translate(793.000000, 1771.000000)">
                <path d="M19.4854208,3.82474165 C19.1117126,3.39782236 18.5789862,3.16267839 17.985513,3.16267839 L3.63788756,3.16267839 L3.49347933,2.08000122 C3.33784449,0.913662638 2.52583661,0 1.64477732,0 L0.590551181,0 C0.264363937,0 2.84217094e-14,0.264363937 2.84217094e-14,0.590551181 C2.84217094e-14,0.916738425 0.264363937,1.18110236 0.590551181,1.18110236 L1.64477732,1.18110236 C1.83424583,1.18110236 2.23548228,1.58172366 2.32268087,2.23609744 L4.01313362,14.9148007 C4.08756768,15.4736713 4.37469244,15.9968627 4.82160433,16.3881028 C5.15302043,16.6783034 5.54472197,16.8713091 5.95503197,16.9520485 C5.78786295,17.2594734 5.6928211,17.6116511 5.6928211,17.985513 C5.6928211,19.1832246 6.66723055,20.1574803 7.86478839,20.1574803 C9.06234622,20.1574803 10.0367557,19.1832246 10.0367557,17.985513 C10.0367557,17.6287217 9.94971087,17.2920768 9.79653665,16.9948019 L12.8910864,16.9948019 C12.7379122,17.2920768 12.6508674,17.6287217 12.6508674,17.985513 C12.6508674,19.1832246 13.6252768,20.1574803 14.8228346,20.1574803 C16.0203925,20.1574803 16.9948019,19.1832246 16.9948019,17.985513 C16.9948019,17.6287217 16.9077571,17.2920768 16.7545829,16.9948019 L18.3018578,16.9948019 C18.6278913,16.9948019 18.892409,16.7302842 18.892409,16.4042507 C18.892409,16.0780635 18.6278913,15.8136996 18.3018578,15.8136996 L6.38887181,15.8136996 C5.81185409,15.8136996 5.26005783,15.3304933 5.18377831,14.7585507 L5.06028543,13.8319697 L9.65658835,13.8319697 C9.65674213,13.8319697 9.65689591,13.8321235 9.65704969,13.8321235 C9.6572035,13.8321235 9.65735728,13.8319697 9.65766488,13.8319697 L13.4516486,13.8319697 C13.4518024,13.8319697 13.4519562,13.8321235 13.4522638,13.8321235 C13.4524176,13.8321235 13.4524176,13.8319697 13.4525713,13.8319697 L16.7204417,13.8319697 C17.2842335,13.8319697 17.8407972,13.6165108 18.2877091,13.2254244 C18.7346211,12.8341843 19.0217458,12.3108391 19.0961799,11.7519685 L19.9432517,5.39892961 C20.0216843,4.81068528 19.8591289,4.25166094 19.4854208,3.82474165 L19.4854208,3.82474165 Z M8.85565331,17.985513 C8.85565331,18.5319267 8.41120201,18.976378 7.86478839,18.976378 C7.31852854,18.976378 6.87392346,18.5319267 6.87392346,17.985513 C6.87392346,17.4392532 7.31852854,16.9948019 7.86478839,16.9948019 C8.41120201,16.9948019 8.85565331,17.4392532 8.85565331,17.985513 L8.85565331,17.985513 Z M15.8136996,17.985513 C15.8136996,18.5319267 15.3692483,18.976378 14.8228346,18.976378 C14.276421,18.976378 13.8319697,18.5319267 13.8319697,17.985513 C13.8319697,17.4392532 14.276421,16.9948019 14.8228346,16.9948019 C15.3692483,16.9948019 15.8136996,17.4392532 15.8136996,17.985513 L15.8136996,17.985513 Z M18.596672,4.60276205 C18.7429257,4.76977732 18.8053642,4.99692421 18.7724532,5.24267961 L18.4173536,7.90677287 L14.3991449,7.90677287 L14.6365957,4.34378075 L17.985513,4.34378075 C18.2335753,4.34378075 18.4505721,4.43574681 18.596672,4.60276205 L18.596672,4.60276205 Z M10.2100763,12.6508674 L9.97247169,9.08787524 L13.136688,9.08787524 L12.8990834,12.6508674 L10.2100763,12.6508674 Z M9.89373154,7.90677287 L9.65628075,4.34378075 L13.4528789,4.34378075 L13.2154281,7.90677287 L9.89373154,7.90677287 Z M8.47256398,4.34378075 L8.71001476,7.90677287 L4.27026945,7.90677287 L3.79521409,4.34378075 L8.47256398,4.34378075 Z M4.42774976,9.08787524 L8.78875492,9.08787524 L9.02635949,12.6508674 L4.90280512,12.6508674 L4.42774976,9.08787524 Z M16.7204417,12.6508674 L14.0828002,12.6508674 L14.3204048,9.08787524 L18.2598733,9.08787524 L17.9255352,11.5958723 C17.8492557,12.167815 17.2973056,12.6508674 16.7204417,12.6508674 Z" id="Shape"></path>
            </g>
        </g>
    </g>
</svg>