<?xml version="1.0" encoding="UTF-8"?>
<svg width="78px" height="78px" viewBox="0 0 78 78" version="1.1" xmlns="http://www.w3.org/2000/svg" xmlns:xlink="http://www.w3.org/1999/xlink">
    <title>Icon</title>
    <defs>
        <rect id="path-1" x="0" y="0" width="40" height="40" rx="20"></rect>
        <filter x="-87.5%" y="-62.5%" width="275.0%" height="275.0%" filterUnits="objectBoundingBox" id="filter-2">
            <feOffset dx="0" dy="10" in="SourceAlpha" result="shadowOffsetOuter1"></feOffset>
            <feGaussianBlur stdDeviation="10" in="shadowOffsetOuter1" result="shadowBlurOuter1"></feGaussianBlur>
            <feColorMatrix values="0 0 0 0 0   0 0 0 0 0   0 0 0 0 0  0 0 0 0.3 0" type="matrix" in="shadowBlurOuter1"></feColorMatrix>
        </filter>
    </defs>
    <g id="Symbols" stroke="none" stroke-width="1" fill="none" fill-rule="evenodd">
        <g id="Footer" transform="translate(-1119.000000, -204.000000)">
            <g id="Icon" transform="translate(1148.000000, 243.000000) rotate(-90.000000) translate(-1148.000000, -243.000000) translate(1128.000000, 223.000000)">
                <g id="Bg">
                    <use fill="black" fill-opacity="1" filter="url(#filter-2)" xlink:href="#path-1"></use>
                    <use fill="#F7444F" fill-rule="evenodd" xlink:href="#path-1"></use>
                </g>
                <path d="M23.7121709,20.6904679 L17.6776986,26.708021 C17.2938333,27.0910077 16.6714615,27.0910077 16.2877825,26.708021 C15.9040725,26.325375 15.9040725,25.70476 16.2877825,25.3221449 L21.6273588,19.9975299 L16.2879378,14.6731007 C15.9042278,14.2902998 15.9042278,13.6697467 16.2879378,13.2871007 C16.6716478,12.9042998 17.2939886,12.9042998 17.6778539,13.2871007 L23.7123262,19.3047467 C23.9041812,19.4961626 24,19.7467688 24,19.9974989 C24,20.2483529 23.9039948,20.4991449 23.7121709,20.6904679 Z" id="Shape" fill="#FFFFFF" fill-rule="nonzero"></path>
            </g>
        </g>
    </g>
</svg>