<?xml version="1.0" encoding="UTF-8"?>
<svg width="157px" height="40px" viewBox="0 0 157 40" version="1.1" xmlns="http://www.w3.org/2000/svg" xmlns:xlink="http://www.w3.org/1999/xlink">
    <title>pasted-svg-7937x20</title>
    <g id="Symbols" stroke="none" stroke-width="1" fill="none" fill-rule="evenodd">
        <g id="Footer" transform="translate(-259.000000, -91.000000)" fill="#FFFFFF" fill-rule="nonzero">
            <g id="pasted-svg-7937x20" transform="translate(259.000000, 91.000000)">
                <path d="M44.4214107,18.2640394 L34.8234873,1.63152709 C34.3055854,0.734975369 33.0354458,0 31.999642,0 L12.8097028,0 C11.773899,0 10.5017902,0.734975369 9.98782671,1.63152709 L0.38990333,18.2640394 C-0.129967777,19.1605911 -0.129967777,20.6285714 0.38990333,21.5251232 L9.98782671,38.1576355 C10.5037594,39.0541872 11.773899,39.7891626 12.811672,39.7891626 L32.0016112,39.7891626 C33.0354458,39.7891626 34.3075546,39.0541872 34.8254565,38.1576355 L44.4233799,21.5251232 C44.9393126,20.6285714 44.9393126,19.1605911 44.4214107,18.2640394 Z M38.3188328,20.5714286 L30.971715,33.3438424 C30.755102,33.7182266 30.2273541,34.0256158 29.7960974,34.0256158 L28.2679914,34.0256158 C27.8367347,34.0256158 27.6614751,33.720197 27.8741497,33.3438424 L35.217329,20.5714286 C35.4319728,20.2009852 35.4319728,19.5862069 35.217329,19.2118227 L29.4002864,9.12906404 C29.1856427,8.75270936 28.6519871,8.44729064 28.2226996,8.44729064 L24.5304332,8.44729064 C24.0972073,8.44729064 23.7466881,8.80197044 23.7466881,9.23152709 L23.7466881,33.2413793 C23.7466881,33.6729064 23.3941998,34.0275862 22.9609739,34.0275862 L21.8464017,34.0275862 C21.4131758,34.0275862 21.0646259,33.6729064 21.0646259,33.2413793 L21.0646259,9.23349754 C21.0646259,8.80394089 20.7101683,8.44926108 20.2789116,8.44926108 L16.584676,8.44926108 C16.1534193,8.44926108 15.6256713,8.7546798 15.4070892,9.13103448 L9.59201575,19.2118227 C9.377372,19.5862069 9.377372,20.2009852 9.59201575,20.5714286 L16.9607948,33.3458128 C17.1774078,33.720197 16.9982098,34.0256158 16.5689223,34.0256158 L15.0388471,34.0256158 C14.6075904,34.0256158 14.0798425,33.720197 13.8612603,33.3458128 L6.49051199,20.5714286 C6.27586824,20.2009852 6.27586824,19.5862069 6.49051199,19.2118227 L13.8573219,6.44334975 C14.0739348,6.07093596 14.603652,5.7635468 15.0368779,5.7635468 L29.7704977,5.7635468 C30.2037236,5.7635468 30.7334407,6.06896552 30.9500537,6.44334975 L38.3168636,19.2118227 C38.5334765,19.5862069 38.5334765,20.2009852 38.3188328,20.5714286 Z" id="Shape"></path>
                <path d="M85.3002148,23.879803 L85.3002148,16.9576355 L76.7184032,16.9576355 L76.7184032,23.879803 L73.8650197,23.879803 L73.8650197,8.74679803 C73.8650197,8.6364532 74.6999642,7.57241379 76.604189,5.7773399 L85.1860007,5.7773399 C85.2962764,5.7773399 86.3616183,6.84334975 88.1535983,8.74679803 L88.1535983,23.879803 L85.3002148,23.879803 Z M76.7164339,8.8729064 L76.7164339,14.08867 L85.2982456,14.08867 L85.2982456,8.8729064 L76.7164339,8.8729064 Z" id="Shape"></path>
                <path d="M144.532044,5.7635468 L153.507698,5.7635468 C153.62585,5.7635468 154.555317,6.73497537 156.296097,8.59507389 L156.296097,21.1231527 C156.296097,21.2413793 155.366631,22.1359606 153.507698,23.8778325 L144.532044,23.8778325 C144.413892,23.8778325 143.486395,22.9832512 141.741676,21.1231527 L141.741676,8.59507389 C141.741676,8.47881773 142.673111,7.50738916 144.532044,5.7635468 Z M144.658074,8.72118227 L144.658074,21.1231527 L153.456498,21.1231527 L153.456498,8.72118227 L144.658074,8.72118227 Z" id="Shape"></path>
                <polygon id="Path" points="105.075009 5.7635468 107.778733 8.52019704 113.723774 8.52019704 113.723774 23.879803 116.323129 23.879803 116.323129 8.55763547 122.274078 8.55763547 125.099893 5.7635468"></polygon>
                <path d="M90.7982456,5.7773399 L90.7982456,6.02955665 L90.7982456,23.879803 L93.5748299,23.879803 L93.5748299,16.7034483 L102.420516,16.7034483 C104.273541,14.9694581 105.199069,14.0433498 105.199069,13.9231527 L105.199069,8.74679803 C103.371643,6.81182266 102.404762,5.7773399 102.294486,5.7773399 L91.0463659,5.7773399 L90.7982456,5.7773399 Z M102.420516,13.9231527 L93.4468314,13.9231527 L93.4468314,8.74679803 L102.420516,8.74679803 L102.420516,13.9231527 Z" id="Shape"></path>
                <polygon id="Path" points="139.134443 21.1625616 127.563373 21.1625616 127.563373 8.56945813 139.134443 8.56945813 139.134443 5.7635468 127.563373 5.7635468 124.824203 8.56945813 124.824203 21.1743842 127.563373 23.879803 139.134443 23.879803"></polygon>
                <polygon id="Path" points="68.5580021 5.76551724 62.1738274 14.5576355 55.848729 5.80492611 53.2375582 5.80492611 53.2375582 23.8778325 53.3025421 23.879803 55.82116 23.879803 55.82116 9.85812808 60.7323666 16.6285714 63.2943072 16.6285714 68.5324024 9.63152709 68.5324024 23.8778325 71.273541 23.8778325 71.273541 5.76551724"></polygon>
                <polygon id="Path" points="57.802184 27.791133 54.1276405 27.791133 54.1276405 30.0236453 57.3512352 30.0236453 57.3512352 30.8098522 54.1276405 30.8098522 54.1276405 34.0256158 53.1942356 34.0256158 53.1942356 27.0049261 57.802184 27.0049261"></polygon>
                <path d="M70.0388471,34.0275862 L69.0069817,34.0275862 L68.2389903,31.9133005 L65.2713928,31.9133005 L64.4856785,34.0275862 L63.5345507,34.0275862 L66.2678124,27.0068966 L67.2937701,27.0068966 L70.0388471,34.0275862 Z M66.773899,27.8482759 L66.7561762,27.8482759 L65.5667741,31.1231527 L67.943609,31.1231527 L66.773899,27.8482759 Z" id="Shape"></path>
                <path d="M80.3043323,27.964532 C79.9912281,27.737931 79.5954171,27.6256158 79.1090226,27.6256158 C78.9121017,27.6256158 78.7191192,27.6453202 78.528106,27.6827586 C78.3390619,27.7221675 78.16971,27.7871921 78.0239885,27.879803 C77.8762979,27.9724138 77.7581454,28.0945813 77.6675618,28.2502463 C77.5789474,28.4039409 77.537594,28.5970443 77.537594,28.8236453 C77.537594,29.0384236 77.6025779,29.2157635 77.7305764,29.3517241 C77.8566058,29.4857143 78.027927,29.5960591 78.2406015,29.6807882 C78.453276,29.7674877 78.6974579,29.8364532 78.9633011,29.8916256 C79.2330827,29.946798 79.5028643,30.0078818 79.7824919,30.0748768 C80.0621196,30.1399015 80.3358396,30.2167488 80.6056212,30.3054187 C80.8734336,30.3940887 81.113677,30.5142857 81.3263516,30.6640394 C81.5370569,30.8137931 81.7103473,31.0049261 81.8363767,31.2334975 C81.9643752,31.4640394 82.0293591,31.7536946 82.0293591,32.1004926 C82.0293591,32.4729064 81.9466523,32.7940887 81.7792696,33.0581281 C81.6099177,33.3241379 81.3992123,33.5389163 81.1353383,33.7083744 C80.8734336,33.8738916 80.5819907,33.9960591 80.2570712,34.070936 C79.9321518,34.1477833 79.6092016,34.1871921 79.2901898,34.1871921 C78.8983172,34.1871921 78.5221984,34.137931 78.1736484,34.0394089 C77.8231293,33.9408867 77.5139635,33.7931034 77.2500895,33.5901478 C76.9842463,33.3891626 76.7755102,33.1369458 76.6219119,32.8236453 C76.4683136,32.5123153 76.3895453,32.1418719 76.3895453,31.7162562 L77.2756892,31.7162562 C77.2756892,32.0098522 77.3327963,32.2640394 77.4470104,32.4788177 C77.5631937,32.6916256 77.7148228,32.8669951 77.8999284,33.0049261 C78.0870032,33.1428571 78.3055854,33.2433498 78.5537057,33.3083744 C78.801826,33.3753695 79.0578231,33.408867 79.3216971,33.408867 C79.528464,33.408867 79.7411386,33.3891626 79.9538131,33.3497537 C80.1664876,33.3083744 80.3594701,33.2433498 80.5307913,33.1487685 C80.698174,33.0541872 80.8379878,32.9261084 80.9423559,32.7605911 C81.0486932,32.5970443 81.1018618,32.3881773 81.1018618,32.1339901 C81.1018618,31.8916256 81.0349087,31.6926108 80.9069101,31.5408867 C80.7789116,31.391133 80.6095596,31.2669951 80.3968851,31.1724138 C80.1842105,31.0778325 79.9419979,31.0009852 79.6741855,30.9438424 C79.4044039,30.8827586 79.1326531,30.8216749 78.8549946,30.7586207 C78.575367,30.6975369 78.301647,30.6246305 78.0318654,30.5438424 C77.7620838,30.4630542 77.5238095,30.3546798 77.311135,30.2206897 C77.0984604,30.0866995 76.9271393,29.9133005 76.7991407,29.6985222 C76.6711421,29.4857143 76.6081275,29.2197044 76.6081275,28.8965517 C76.6081275,28.5418719 76.6770498,28.2364532 76.820802,27.9763547 C76.9665235,27.7182266 77.1575367,27.5073892 77.3977802,27.337931 C77.6360544,27.1724138 77.9078052,27.0463054 78.2130326,26.9655172 C78.5162907,26.8847291 78.8293949,26.8433498 79.1503759,26.8433498 C79.5127103,26.8433498 79.8455066,26.8847291 80.1546724,26.9694581 C80.4638382,27.0541872 80.7316506,27.1881773 80.9659864,27.373399 C81.1963838,27.5586207 81.3814894,27.7891626 81.5134264,28.0650246 C81.6473326,28.346798 81.7241318,28.6778325 81.7339778,29.0660099 L80.8517723,29.0660099 C80.7946652,28.5536946 80.613498,28.191133 80.3043323,27.964532 Z" id="Path"></path>
                <polygon id="Path" points="88.4745793 27.0068966 94.0887934 27.0068966 94.0887934 27.791133 91.745435 27.791133 91.745435 34.0256158 90.8139993 34.0256158 90.8139993 27.791133 88.4745793 27.791133"></polygon>
                <polygon id="Path" points="105.77014 27.791133 101.857322 27.791133 101.857322 30.0236453 105.504296 30.0236453 105.504296 30.8098522 101.857322 30.8098522 101.857322 33.2394089 105.799678 33.2394089 105.799678 34.0256158 100.925886 34.0256158 100.925886 27.0049261 105.77014 27.0049261"></polygon>
                <polygon id="Path" points="117.670068 32.6995074 117.68976 32.6995074 117.68976 27.0068966 118.573935 27.0068966 118.573935 34.0275862 117.553885 34.0275862 113.887218 28.3940887 113.869495 28.3940887 113.869495 34.0275862 112.98532 34.0275862 112.98532 27.0068966 113.975832 27.0068966"></polygon>
                <polygon id="Path" points="130.997673 27.791133 127.086824 27.791133 127.086824 30.0236453 130.733799 30.0236453 130.733799 30.8098522 127.086824 30.8098522 127.086824 33.2394089 131.025242 33.2394089 131.025242 34.0256158 126.15145 34.0256158 126.15145 27.0049261 130.997673 27.0049261"></polygon>
                <path d="M143.090584,27.4955665 C143.466702,27.8246305 143.655747,28.2738916 143.655747,28.8453202 C143.655747,29.270936 143.559255,29.6433498 143.366273,29.9665025 C143.17329,30.2857143 142.862155,30.5044335 142.438776,30.6246305 L142.438776,30.644335 C142.641604,30.6817734 142.808987,30.7487685 142.933047,30.8413793 C143.061045,30.9339901 143.163444,31.0423645 143.238274,31.1704433 C143.313104,31.2985222 143.368242,31.4423645 143.405657,31.6 C143.443072,31.7576355 143.468672,31.9192118 143.486395,32.0926108 C143.502148,32.262069 143.511994,32.435468 143.519871,32.6128079 C143.525779,32.7901478 143.541532,32.9635468 143.565163,33.1349754 C143.592732,33.3064039 143.630147,33.4679803 143.679377,33.6216749 C143.728607,33.7753695 143.803437,33.9093596 143.899928,34.0295567 L142.862155,34.0295567 C142.797172,33.9566502 142.74991,33.8600985 142.728249,33.7339901 C142.706588,33.6118227 142.690834,33.4719212 142.684927,33.3182266 C142.679019,33.1625616 142.671142,32.9990148 142.663265,32.8216749 C142.657358,32.6423645 142.639635,32.4689655 142.606158,32.2975369 C142.580559,32.1280788 142.549051,31.9665025 142.507698,31.8128079 C142.468314,31.6591133 142.405299,31.5231527 142.318654,31.408867 C142.235947,31.2926108 142.123702,31.2019704 141.985858,31.1330049 C141.848013,31.0660099 141.666846,31.0305419 141.436448,31.0305419 L139.158074,31.0305419 L139.158074,34.0295567 L138.218761,34.0295567 L138.218761,27.0088492 L141.523093,27.0088492 C142.192624,27.0068966 142.714465,27.1684729 143.090584,27.4955665 Z M141.718045,30.1891626 C141.914966,30.1576355 142.088256,30.0926108 142.235947,29.9980296 C142.381668,29.9034483 142.50179,29.7773399 142.590405,29.6157635 C142.679019,29.4541872 142.720372,29.2453202 142.720372,28.9931034 C142.720372,28.6364532 142.623881,28.3507389 142.424991,28.1280788 C142.230039,27.9054187 141.912997,27.7931034 141.475832,27.7931034 L139.156105,27.7931034 L139.156105,30.2403941 L141.099714,30.2403941 C141.316327,30.2384236 141.523093,30.2226601 141.718045,30.1891626 Z" id="Shape"></path>
                <path d="M154.529717,27.964532 C154.216613,27.737931 153.818833,27.6256158 153.334407,27.6256158 C153.137487,27.6256158 152.946473,27.6453202 152.75546,27.6827586 C152.564447,27.7221675 152.395095,27.7871921 152.249373,27.879803 C152.101683,27.9724138 151.981561,28.0945813 151.894916,28.2502463 C151.804332,28.4039409 151.76101,28.5970443 151.76101,28.8236453 C151.76101,29.0384236 151.825994,29.2157635 151.953992,29.3517241 C152.08396,29.4857143 152.251343,29.5960591 152.465986,29.6807882 C152.678661,29.7674877 152.918904,29.8364532 153.188686,29.8916256 C153.458468,29.946798 153.730218,30.0078818 154.007877,30.0748768 C154.287504,30.1399015 154.561224,30.2167488 154.831006,30.3054187 C155.100788,30.3940887 155.339062,30.5142857 155.551736,30.6640394 C155.762442,30.8137931 155.933763,31.0049261 156.063731,31.2334975 C156.18976,31.4640394 156.254744,31.7536946 156.254744,32.1004926 C156.254744,32.4729064 156.172037,32.7940887 156.004654,33.0581281 C155.837272,33.3241379 155.622628,33.5389163 155.358754,33.7083744 C155.100788,33.8738916 154.805406,33.9960591 154.482456,34.070936 C154.157537,34.1477833 153.836556,34.1871921 153.513605,34.1871921 C153.121733,34.1871921 152.747583,34.137931 152.399033,34.0394089 C152.048514,33.9408867 151.741318,33.7931034 151.473505,33.5901478 C151.209631,33.3891626 151.000895,33.1369458 150.849266,32.8236453 C150.693699,32.5123153 150.616899,32.1418719 150.616899,31.7162562 L151.501074,31.7162562 C151.501074,32.0098522 151.558181,32.2640394 151.672395,32.4788177 C151.786609,32.6916256 151.938238,32.8669951 152.123344,33.0049261 C152.310419,33.1428571 152.529001,33.2433498 152.779091,33.3083744 C153.025242,33.3753695 153.281239,33.408867 153.545113,33.408867 C153.753849,33.408867 153.964554,33.3891626 154.177229,33.3497537 C154.389903,33.3083744 154.580917,33.2433498 154.752238,33.1487685 C154.923559,33.0541872 155.059434,32.9261084 155.165772,32.7605911 C155.27014,32.5970443 155.323308,32.3881773 155.323308,32.1339901 C155.323308,31.8916256 155.258324,31.6926108 155.130326,31.5408867 C155.004296,31.391133 154.832975,31.2669951 154.620301,31.1724138 C154.407626,31.0778325 154.163444,31.0009852 153.895632,30.9438424 C153.62585,30.8827586 153.356069,30.8216749 153.076441,30.7586207 C152.796813,30.6975369 152.525063,30.6246305 152.255281,30.5438424 C151.987469,30.4630542 151.745256,30.3546798 151.534551,30.2206897 C151.321876,30.0866995 151.150555,29.9133005 151.024526,29.6985222 C150.894558,29.4857143 150.829574,29.2197044 150.829574,28.8965517 C150.829574,28.5418719 150.900465,28.2364532 151.044218,27.9763547 C151.189939,27.7182266 151.380952,27.5073892 151.621196,27.337931 C151.85947,27.1724138 152.131221,27.0463054 152.436448,26.9655172 C152.739706,26.8847291 153.052811,26.8433498 153.375761,26.8433498 C153.738095,26.8433498 154.070892,26.8847291 154.378088,26.9694581 C154.685285,27.0541872 154.955066,27.1881773 155.189402,27.373399 C155.421769,27.5586207 155.604905,27.7891626 155.738811,28.0650246 C155.870748,28.346798 155.945578,28.6778325 155.957393,29.0660099 L155.075188,29.0660099 C155.02005,28.5536946 154.838883,28.191133 154.529717,27.964532 Z" id="Path"></path>
            </g>
        </g>
    </g>
</svg>