<?xml version="1.0" encoding="UTF-8"?>
<svg width="133px" height="40px" viewBox="0 0 133 40" version="1.1" xmlns="http://www.w3.org/2000/svg" xmlns:xlink="http://www.w3.org/1999/xlink">
    <title>pasted-svg-69826x20</title>
    <g id="Symbols" stroke="none" stroke-width="1" fill="none" fill-rule="evenodd">
        <g id="Footer" transform="translate(-259.000000, -154.000000)" fill="#FFFFFF" fill-rule="nonzero">
            <g id="pasted-svg-69826x20" transform="translate(259.000000, 154.000000)">
                <path d="M28.9561905,2.4247619 C28.9561905,2.4247619 30.24,4.6152381 30.9485714,6.31047619 C31.6895238,6.78857143 33.7961905,8.40190476 34.472381,9.24190476 C34.7847619,8.73142857 35.2952381,8.02285714 35.2952381,8.02285714 C35.2952381,8.02285714 33.1371429,4.68190476 28.9561905,2.4247619 Z" id="Path"></path>
                <path d="M26.2552381,1.19047619 C26.2552381,1.19047619 27.8685714,3.48 29.2514286,6.39428571 C28.6247619,8.51809524 27.752381,11.4647619 27.752381,11.4647619 L24.6095238,9.01142857 C24.6095238,9.01142857 22.6838095,3.92380952 18.3028571,0.0380952381 C18.3028571,0.0380952381 22.6990476,-0.323809524 26.2552381,1.19047619 Z" id="Path"></path>
                <path d="M16.08,0.367619048 C16.08,0.367619048 20.2628571,3.39619048 22.847619,9.14285714 L21.6780952,13.0285714 L18.9619048,10.9866667 C18.9619048,10.9866667 16.64,5.28952381 11.0590476,1.96380952 C11.552381,1.71809524 13.312381,0.811428571 16.08,0.367619048 Z" id="Path"></path>
                <path d="M9.39428571,2.83619048 C9.39428571,2.83619048 7.92952381,3.79047619 6.43047619,5.07619048 C7.00761905,5.28952381 11.6495238,7.2 14.3009524,12.7161905 C14.7466667,13.0628571 16.7714286,14.6095238 16.7714286,14.6095238 L17.5619048,11.8933333 C17.5619048,11.8933333 15.6342857,6.52571429 9.39428571,2.83619048 Z" id="Path"></path>
                <path d="M5.22857143,6.26095238 L3.97714286,7.6952381 C3.97714286,7.6952381 9.09714286,9.01333333 11.5847619,14.8914286 C11.9638095,15.2533333 12.6228571,15.7961905 12.6228571,15.7961905 L13.1485714,14 C13.1485714,14 11.1885714,8.64952381 5.22857143,6.26095238 Z" id="Path"></path>
                <path d="M3.02285714,9.12761905 C3.02285714,9.12761905 7.6,10.1638095 9.9047619,15.087619 L9.47619048,16.552381 L8.42285714,15.7961905 C8.42285714,15.7961905 6.94095238,11.7942857 2.2152381,10.592381 L3.02285714,9.12761905 Z" id="Path"></path>
                <path d="M1.50666667,12.1066667 L1.08,13.1447619 C1.08,13.1447619 4.60380952,13.4419048 6.21714286,17.4742857 C6.4152381,16.847619 6.67809524,15.8933333 6.67809524,15.8933333 C6.67809524,15.8933333 5.40952381,13.0285714 1.50666667,12.1066667 Z" id="Path"></path>
                <path d="M28.9561905,36.7028571 C28.9561905,36.7028571 30.24,34.512381 30.9485714,32.8171429 C31.6895238,32.3390476 33.7961905,30.7257143 34.472381,29.8857143 C34.7847619,30.3961905 35.2952381,31.1047619 35.2952381,31.1047619 C35.2952381,31.1047619 33.1371429,34.447619 28.9561905,36.7028571 Z" id="Path"></path>
                <path d="M26.2552381,37.9390476 C26.2552381,37.9390476 27.8685714,35.6495238 29.2514286,32.7352381 C28.6247619,30.6114286 27.752381,27.6628571 27.752381,27.6628571 L24.607619,30.1161905 C24.607619,30.1161905 22.6819048,35.2038095 18.3009524,39.0895238 C18.3028571,39.0914286 22.6990476,39.4533333 26.2552381,37.9390476 Z" id="Path"></path>
                <path d="M16.08,38.7619048 C16.08,38.7619048 20.2628571,35.7314286 22.847619,29.9866667 L21.6780952,26.1009524 L18.9619048,28.1428571 C18.9619048,28.1428571 16.64,33.84 11.0590476,37.1657143 C11.552381,37.4114286 13.312381,38.3161905 16.08,38.7619048 Z" id="Path"></path>
                <path d="M9.39428571,36.2914286 C9.39428571,36.2914286 7.92952381,35.3371429 6.43047619,34.0514286 C7.00761905,33.8380952 11.6495238,31.927619 14.3009524,26.4114286 C14.7447619,26.0647619 16.7714286,24.5180952 16.7714286,24.5180952 L17.5619048,27.2342857 C17.5619048,27.2361905 15.6342857,32.6038095 9.39428571,36.2914286 Z" id="Path"></path>
                <path d="M5.22857143,32.8666667 L3.97714286,31.4342857 C3.97714286,31.4342857 9.09714286,30.1161905 11.5847619,24.2380952 C11.9638095,23.8761905 12.6228571,23.3314286 12.6228571,23.3314286 L13.1504762,25.1257143 C13.1485714,25.127619 11.1885714,30.48 5.22857143,32.8666667 Z" id="Path"></path>
                <path d="M3.02285714,30.0019048 C3.02285714,30.0019048 7.6,28.9638095 9.9047619,24.0419048 L9.47619048,22.5771429 L8.42285714,23.3333333 C8.42285714,23.3333333 6.94095238,27.3352381 2.2152381,28.5371429 L3.02285714,30.0019048 Z" id="Path"></path>
                <path d="M1.50666667,27.0209524 L1.07809524,25.9828571 C1.07809524,25.9828571 4.60190476,25.6857143 6.2152381,21.6514286 C6.41333333,22.2761905 6.67619048,23.232381 6.67619048,23.232381 C6.67619048,23.232381 5.40952381,26.0990476 1.50666667,27.0209524 Z" id="Path"></path>
                <path d="M0.584761905,14.7085714 C0.584761905,14.7085714 -0.731428571,19.1371429 0.584761905,24.44 C0.651428571,24.5885714 4.32190476,23.2552381 4.22285714,21.5257143 C4.12380952,19.7961905 1.93333333,19.5809524 1.93333333,19.5809524 C1.93333333,19.5809524 4.30857143,19.0247619 4.2247619,17.4761905 C4.14285714,15.927619 1.45904762,14.84 0.584761905,14.7085714 Z" id="Path"></path>
                <path d="M35.8057143,37.7980952 C34.7047619,37.7980952 33.807619,36.9028571 33.807619,35.8 C33.807619,34.6990476 34.7028571,33.8019048 35.8057143,33.8019048 C36.9066667,33.8019048 37.8038095,34.6990476 37.8038095,35.8 C37.8019048,36.9009524 36.9066667,37.7980952 35.8057143,37.7980952 Z M35.8057143,34.1314286 C34.8857143,34.1314286 34.1371429,34.88 34.1371429,35.8 C34.1371429,36.72 34.8857143,37.4685714 35.8057143,37.4685714 C36.7257143,37.4685714 37.4742857,36.72 37.4742857,35.8 C37.4742857,34.88 36.7257143,34.1314286 35.8057143,34.1314286 Z" id="Shape"></path>
                <path d="M34.792381,34.6095238 L35.8552381,34.6095238 C36.1542857,34.6095238 36.3904762,34.6971429 36.5428571,34.847619 C36.6685714,34.9771429 36.7409524,35.1542857 36.7409524,35.3619048 L36.7409524,35.3695238 C36.7409524,35.76 36.5047619,35.9961905 36.1752381,36.0914286 L36.8190476,36.9942857 L36.3219048,36.9942857 L35.7371429,36.1638095 L35.2133333,36.1638095 L35.2133333,36.9942857 L34.7942857,36.9942857 L34.7942857,34.6095238 L34.792381,34.6095238 Z M35.8247619,35.7904762 C36.1238095,35.7904762 36.3142857,35.6342857 36.3142857,35.392381 L36.3142857,35.3866667 C36.3142857,35.1314286 36.1314286,34.992381 35.8209524,34.992381 L35.2114286,34.992381 L35.2114286,35.792381 L35.8247619,35.792381 L35.8247619,35.7904762 Z" id="Shape"></path>
                <path d="M52.887619,15.1466667 L52.887619,13.2133333 L57.8857143,13.2133333 L57.8857143,17.7885714 C57.4,18.2590476 56.6971429,18.672381 55.7752381,19.032381 C54.8533333,19.3885714 53.92,19.567619 52.9752381,19.567619 C51.7733333,19.567619 50.727619,19.3161905 49.8342857,18.8133333 C48.9409524,18.3085714 48.2704762,17.5885714 47.8228571,16.6514286 C47.3733333,15.7142857 47.1485714,14.6952381 47.1485714,13.592381 C47.1485714,12.3961905 47.3980952,11.3333333 47.9009524,10.4038095 C48.4019048,9.47428571 49.1352381,8.76 50.1028571,8.2647619 C50.8380952,7.88380952 51.7561905,7.69333333 52.8514286,7.69333333 C54.2761905,7.69333333 55.3904762,7.99238095 56.192381,8.59047619 C56.9942857,9.18857143 57.5085714,10.0152381 57.7390476,11.0704762 L55.4361905,11.5009524 C55.2742857,10.9371429 54.9695238,10.4914286 54.5238095,10.1657143 C54.0780952,9.83809524 53.52,9.67619048 52.8514286,9.67619048 C51.8380952,9.67619048 51.032381,9.99619048 50.4342857,10.64 C49.8361905,11.2819048 49.5371429,12.2342857 49.5371429,13.4990476 C49.5371429,14.8628571 49.84,15.8838095 50.4457143,16.5657143 C51.0514286,17.247619 51.8457143,17.5866667 52.8266667,17.5866667 C53.312381,17.5866667 53.7980952,17.4933333 54.287619,17.3009524 C54.7752381,17.1104762 55.1942857,16.88 55.5447619,16.607619 L55.5447619,15.1466667 L52.887619,15.1466667 Z" id="Path"></path>
                <polygon id="Path" points="60.0247619 19.3695238 60.0247619 7.88571429 68.5390476 7.88571429 68.5390476 9.82857143 62.3428571 9.82857143 62.3428571 12.3752381 68.1066667 12.3752381 68.1066667 14.3104762 62.3428571 14.3104762 62.3428571 17.4361905 68.7580952 17.4361905 68.7580952 19.3714286 60.0247619 19.3714286"></polygon>
                <polygon id="Path" points="70.6933333 19.3695238 70.6933333 7.88571429 74.1638095 7.88571429 76.247619 15.72 78.3085714 7.88571429 81.7847619 7.88571429 81.7847619 19.3695238 79.6304762 19.3695238 79.6304762 10.3295238 77.3504762 19.3695238 75.1180952 19.3695238 72.847619 10.3295238 72.847619 19.3695238"></polygon>
                <polygon id="Path" points="83.8228571 16.3066667 83.8228571 14.1047619 88.1466667 14.1047619 88.1466667 16.3066667"></polygon>
                <polygon id="Path" points="92.447619 19.3695238 92.447619 14.5371429 88.2419048 7.88571429 90.96 7.88571429 93.6628571 12.4285714 96.3104762 7.88571429 98.9809524 7.88571429 94.7580952 14.552381 94.7580952 19.3695238"></polygon>
                <polygon id="Path" points="100.131429 19.3695238 100.131429 7.88571429 108.645714 7.88571429 108.645714 9.82857143 102.449524 9.82857143 102.449524 12.3752381 108.215238 12.3752381 108.215238 14.3104762 102.449524 14.3104762 102.449524 17.4361905 108.864762 17.4361905 108.864762 19.3714286 100.131429 19.3714286"></polygon>
                <path d="M121.188571,19.3695238 L118.666667,19.3695238 L117.662857,16.7619048 L113.072381,16.7619048 L112.12381,19.3695238 L109.664762,19.3695238 L114.137143,7.88571429 L116.588571,7.88571429 L121.188571,19.3695238 Z M116.918095,14.8266667 L115.335238,10.5657143 L113.784762,14.8266667 L116.918095,14.8266667 Z" id="Shape"></path>
                <path d="M122.426667,19.3695238 L122.426667,7.88571429 L127.306667,7.88571429 C128.533333,7.88571429 129.424762,7.98857143 129.980952,8.19428571 C130.537143,8.4 130.982857,8.76761905 131.31619,9.2952381 C131.649524,9.82285714 131.817143,10.4266667 131.817143,11.1047619 C131.817143,11.9657143 131.56381,12.6780952 131.057143,13.24 C130.550476,13.8 129.792381,14.1542857 128.784762,14.3009524 C129.285714,14.5942857 129.700952,14.9142857 130.026667,15.2647619 C130.354286,15.6152381 130.792381,16.2361905 131.346667,17.1295238 L132.748571,19.3695238 L129.975238,19.3695238 L128.299048,16.8704762 C127.704762,15.9771429 127.297143,15.4133333 127.078095,15.1809524 C126.859048,14.9485714 126.626667,14.7885714 126.380952,14.7028571 C126.135238,14.6171429 125.746667,14.5733333 125.215238,14.5733333 L124.744762,14.5733333 L124.744762,19.367619 L122.426667,19.367619 L122.426667,19.3695238 Z M124.744762,12.7428571 L126.460952,12.7428571 C127.573333,12.7428571 128.268571,12.6952381 128.544762,12.6019048 C128.820952,12.5085714 129.038095,12.3447619 129.19619,12.1161905 C129.352381,11.8857143 129.430476,11.5980952 129.430476,11.2552381 C129.430476,10.8685714 129.327619,10.5561905 129.121905,10.32 C128.914286,10.0819048 128.624762,9.93142857 128.247619,9.86857143 C128.059048,9.84190476 127.495238,9.82857143 126.554286,9.82857143 L124.744762,9.82857143 L124.744762,12.7428571 L124.744762,12.7428571 Z" id="Shape"></path>
                <polygon id="Path" points="51.92 25.8285714 51.92 26.2761905 48.952381 26.2761905 48.952381 28.2628571 51.5885714 28.2628571 51.5885714 28.7104762 48.952381 28.7104762 48.952381 31.3295238 48.4304762 31.3295238 48.4304762 25.8285714"></polygon>
                <path d="M59.7314286,25.8285714 L61.887619,31.3295238 L61.3238095,31.3295238 L60.6552381,29.6190476 L58.152381,29.6190476 L57.4895238,31.3295238 L56.9333333,31.3295238 L59.1447619,25.8285714 L59.7314286,25.8285714 Z M60.4780952,29.1733333 L59.4152381,26.3542857 L58.312381,29.1733333 L60.4780952,29.1733333 Z" id="Shape"></path>
                <path d="M68.16,30.2304762 C68.2533333,30.4190476 68.3790476,30.5714286 68.5409524,30.6838095 C68.7028571,30.7961905 68.8952381,30.8780952 69.1161905,30.927619 C69.3371429,30.9771429 69.5733333,31 69.8247619,31 C69.9695238,31 70.1257143,30.9790476 70.2952381,30.9371429 C70.4647619,30.8971429 70.6228571,30.8304762 70.7695238,30.7409524 C70.9161905,30.6514286 71.0380952,30.5352381 71.1352381,30.3942857 C71.232381,30.2533333 71.28,30.0819048 71.28,29.8819048 C71.28,29.727619 71.2457143,29.5942857 71.1771429,29.4819048 C71.1066667,29.3695238 71.0190476,29.2742857 70.9085714,29.1961905 C70.7961905,29.12 70.6742857,29.0571429 70.5409524,29.007619 C70.407619,28.9580952 70.2761905,28.9180952 70.1466667,28.887619 L68.92,28.5866667 C68.7619048,28.5466667 68.6057143,28.4952381 68.4552381,28.4342857 C68.3047619,28.3714286 68.1714286,28.2895238 68.0571429,28.1866667 C67.9447619,28.0838095 67.8533333,27.9580952 67.7828571,27.8095238 C67.7142857,27.6609524 67.6780952,27.4780952 67.6780952,27.2628571 C67.6780952,27.1295238 67.7047619,26.9733333 67.7561905,26.792381 C67.807619,26.6133333 67.9028571,26.4438095 68.0438095,26.2838095 C68.1866667,26.1257143 68.3790476,25.9904762 68.6247619,25.88 C68.872381,25.7695238 69.1866667,25.7142857 69.5733333,25.7142857 C69.8457143,25.7142857 70.1047619,25.7504762 70.3504762,25.8228571 C70.5980952,25.8952381 70.8133333,26.0038095 70.9980952,26.1466667 C71.1847619,26.2914286 71.3295238,26.4685714 71.4419048,26.6819048 C71.552381,26.8952381 71.607619,27.1428571 71.607619,27.4247619 L71.0838095,27.4247619 C71.0742857,27.2133333 71.0266667,27.0304762 70.9409524,26.8742857 C70.8571429,26.7180952 70.7466667,26.5866667 70.6095238,26.4819048 C70.472381,26.3771429 70.3180952,26.2971429 70.1390476,26.2438095 C69.9619048,26.1904762 69.7752381,26.1638095 69.5809524,26.1638095 C69.4,26.1638095 69.2266667,26.1828571 69.0609524,26.2209524 C68.8933333,26.2590476 68.7466667,26.3219048 68.6228571,26.4057143 C68.4952381,26.4914286 68.3961905,26.6019048 68.3180952,26.7409524 C68.2419048,26.88 68.2019048,27.0514286 68.2019048,27.2571429 C68.2019048,27.3866667 68.2228571,27.4971429 68.2666667,27.592381 C68.3104762,27.687619 68.3714286,27.7695238 68.4495238,27.8342857 C68.5257143,27.9009524 68.6152381,27.9561905 68.7161905,27.9961905 C68.8152381,28.0380952 68.9219048,28.0704762 69.0361905,28.0952381 L70.3771429,28.4266667 C70.5714286,28.4780952 70.7561905,28.5409524 70.927619,28.6152381 C71.0990476,28.6895238 71.2514286,28.7828571 71.3809524,28.8933333 C71.512381,29.0038095 71.6152381,29.1371429 71.6895238,29.2971429 C71.7638095,29.4571429 71.8,29.6495238 71.8,29.8761905 C71.8,29.9371429 71.7942857,30.0190476 71.7809524,30.1219048 C71.767619,30.2247619 71.7371429,30.3333333 71.687619,30.4495238 C71.6380952,30.5638095 71.5695238,30.6819048 71.48,30.8 C71.3904762,30.9180952 71.2666667,31.0247619 71.1104762,31.12 C70.9542857,31.2152381 70.76,31.2933333 70.5295238,31.352381 C70.2971429,31.4114286 70.0209524,31.44 69.6971429,31.44 C69.3733333,31.44 69.072381,31.4038095 68.7961905,31.3295238 C68.5180952,31.2552381 68.2819048,31.1409524 68.087619,30.9866667 C67.8914286,30.832381 67.7428571,30.6342857 67.6361905,30.392381 C67.5314286,30.152381 67.487619,29.8609524 67.5009524,29.5219048 L68.0247619,29.5219048 C68.0247619,29.8038095 68.0666667,30.04 68.16,30.2304762 Z" id="Path"></path>
                <polygon id="Path" points="81.7961905 25.8285714 81.7961905 26.2761905 79.8780952 26.2761905 79.8780952 31.3295238 79.3542857 31.3295238 79.3542857 26.2761905 77.4457143 26.2761905 77.4457143 25.8285714"></polygon>
                <polygon id="Path" points="91.5047619 25.8285714 91.5047619 26.2761905 88.2304762 26.2761905 88.2304762 28.2628571 91.2971429 28.2628571 91.2971429 28.7104762 88.2304762 28.7104762 88.2304762 30.8838095 91.5447619 30.8838095 91.5447619 31.3295238 87.7085714 31.3295238 87.7085714 25.8285714"></polygon>
                <polygon id="Path" points="98.2457143 25.8285714 101.451429 30.4819048 101.466667 30.4819048 101.466667 25.8285714 101.990476 25.8285714 101.990476 31.3295238 101.405714 31.3295238 98.2 26.6761905 98.1847619 26.6761905 98.1847619 31.3295238 97.6609524 31.3295238 97.6609524 25.8285714"></polygon>
                <polygon id="Path" points="112.28381 25.8285714 112.28381 26.2761905 109.009524 26.2761905 109.009524 28.2628571 112.07619 28.2628571 112.07619 28.7104762 109.009524 28.7104762 109.009524 30.8838095 112.321905 30.8838095 112.321905 31.3295238 108.485714 31.3295238 108.485714 25.8285714"></polygon>
                <path d="M120.967619,25.8285714 C121.194286,25.8285714 121.407619,25.8571429 121.611429,25.9142857 C121.813333,25.9695238 121.992381,26.0571429 122.142857,26.1714286 C122.293333,26.287619 122.415238,26.4361905 122.504762,26.6171429 C122.59619,26.8 122.64,27.0152381 122.64,27.2609524 C122.64,27.6095238 122.550476,27.912381 122.371429,28.1695238 C122.190476,28.4266667 121.92381,28.5904762 121.569524,28.6628571 L121.569524,28.6780952 C121.748571,28.7028571 121.899048,28.7504762 122.017143,28.8209524 C122.135238,28.8895238 122.232381,28.9790476 122.306667,29.0857143 C122.380952,29.1942857 122.434286,29.3180952 122.468571,29.4590476 C122.500952,29.6 122.52381,29.7542857 122.535238,29.9180952 C122.539048,30.0114286 122.546667,30.1238095 122.550476,30.2571429 C122.55619,30.3904762 122.565714,30.5257143 122.580952,30.6609524 C122.59619,30.7980952 122.620952,30.9257143 122.655238,31.0457143 C122.687619,31.167619 122.733333,31.2609524 122.790476,31.327619 L122.211429,31.327619 C122.180952,31.2761905 122.15619,31.2133333 122.139048,31.1390476 C122.12,31.0647619 122.108571,30.9866667 122.100952,30.9066667 C122.093333,30.8266667 122.085714,30.7485714 122.081905,30.672381 C122.07619,30.5942857 122.072381,30.527619 122.066667,30.472381 C122.055238,30.2780952 122.04,30.0838095 122.017143,29.8895238 C121.994286,29.6971429 121.944762,29.5257143 121.870476,29.3733333 C121.79619,29.2209524 121.689524,29.0990476 121.546667,29.007619 C121.405714,28.9142857 121.211429,28.8742857 120.965714,28.8838095 L118.971429,28.8838095 L118.971429,31.3257143 L118.447619,31.3257143 L118.447619,25.8285714 L120.967619,25.8285714 Z M120.927619,28.4419048 C121.087619,28.4419048 121.238095,28.4171429 121.382857,28.3695238 C121.527619,28.3219048 121.653333,28.2495238 121.76,28.1580952 C121.866667,28.0666667 121.954286,27.9542857 122.017143,27.8228571 C122.081905,27.6914286 122.114286,27.5409524 122.114286,27.3714286 C122.114286,27.032381 122.017143,26.7657143 121.820952,26.5714286 C121.624762,26.3771429 121.327619,26.2780952 120.927619,26.2780952 L118.971429,26.2780952 L118.971429,28.4438095 L120.927619,28.4438095 L120.927619,28.4419048 Z" id="Shape"></path>
                <path d="M129.35619,30.2304762 C129.447619,30.4190476 129.575238,30.5714286 129.737143,30.6838095 C129.899048,30.7961905 130.089524,30.8780952 130.312381,30.927619 C130.533333,30.9771429 130.769524,31 131.020952,31 C131.16381,31 131.321905,30.9790476 131.491429,30.9371429 C131.660952,30.8971429 131.819048,30.8304762 131.96381,30.7409524 C132.110476,30.6514286 132.232381,30.5352381 132.329524,30.3942857 C132.428571,30.2533333 132.47619,30.0819048 132.47619,29.8819048 C132.47619,29.727619 132.441905,29.5942857 132.373333,29.4819048 C132.302857,29.3695238 132.213333,29.2742857 132.102857,29.1961905 C131.992381,29.12 131.870476,29.0571429 131.737143,29.007619 C131.60381,28.9580952 131.472381,28.9180952 131.344762,28.887619 L130.12,28.5866667 C129.961905,28.5466667 129.805714,28.4952381 129.655238,28.4342857 C129.502857,28.3714286 129.371429,28.2895238 129.259048,28.1866667 C129.146667,28.0838095 129.055238,27.9580952 128.984762,27.8095238 C128.914286,27.6609524 128.88,27.4780952 128.88,27.2628571 C128.88,27.1295238 128.904762,26.9733333 128.95619,26.792381 C129.007619,26.6133333 129.102857,26.4438095 129.245714,26.2838095 C129.386667,26.1257143 129.580952,25.9904762 129.826667,25.88 C130.074286,25.7695238 130.388571,25.7142857 130.775238,25.7142857 C131.047619,25.7142857 131.306667,25.7504762 131.552381,25.8228571 C131.798095,25.8952381 132.015238,26.0038095 132.2,26.1466667 C132.384762,26.2914286 132.531429,26.4685714 132.64381,26.6819048 C132.754286,26.8952381 132.809524,27.1428571 132.809524,27.4247619 L132.285714,27.4247619 C132.27619,27.2133333 132.228571,27.0304762 132.142857,26.8742857 C132.059048,26.7180952 131.948571,26.5866667 131.811429,26.4819048 C131.674286,26.3771429 131.518095,26.2971429 131.340952,26.2438095 C131.16381,26.1904762 130.977143,26.1638095 130.782857,26.1638095 C130.60381,26.1638095 130.430476,26.1828571 130.262857,26.2209524 C130.095238,26.2590476 129.950476,26.3219048 129.822857,26.4057143 C129.697143,26.4914286 129.59619,26.6019048 129.518095,26.7409524 C129.441905,26.88 129.40381,27.0514286 129.40381,27.2571429 C129.40381,27.3866667 129.424762,27.4971429 129.468571,27.592381 C129.512381,27.687619 129.573333,27.7695238 129.649524,27.8342857 C129.725714,27.9009524 129.815238,27.9561905 129.91619,27.9961905 C130.015238,28.0380952 130.121905,28.0704762 130.23619,28.0952381 L131.577143,28.4266667 C131.771429,28.4780952 131.95619,28.5409524 132.127619,28.6152381 C132.299048,28.6895238 132.451429,28.7828571 132.582857,28.8933333 C132.714286,29.0038095 132.817143,29.1371429 132.891429,29.2971429 C132.965714,29.4571429 133.00381,29.6495238 133.00381,29.8761905 C133.00381,29.9371429 132.998095,30.0190476 132.984762,30.1219048 C132.971429,30.2247619 132.940952,30.3333333 132.891429,30.4495238 C132.84381,30.5638095 132.773333,30.6819048 132.68381,30.8 C132.594286,30.9180952 132.470476,31.0247619 132.314286,31.12 C132.158095,31.2152381 131.96381,31.2933333 131.733333,31.352381 C131.502857,31.4114286 131.224762,31.44 130.900952,31.44 C130.577143,31.44 130.27619,31.4038095 130,31.3295238 C129.721905,31.2552381 129.485714,31.1409524 129.291429,30.9866667 C129.097143,30.832381 128.946667,30.6342857 128.84,30.392381 C128.735238,30.152381 128.691429,29.8609524 128.704762,29.5219048 L129.228571,29.5219048 C129.220952,29.8038095 129.264762,30.04 129.35619,30.2304762 Z" id="Path"></path>
            </g>
        </g>
    </g>
</svg>