<?xml version="1.0" encoding="UTF-8"?>
<svg width="16px" height="20px" viewBox="0 0 16 20" version="1.1" xmlns="http://www.w3.org/2000/svg" xmlns:xlink="http://www.w3.org/1999/xlink">
    <title>Shape 4</title>
    <g id="Page-1" stroke="none" stroke-width="1" fill="none" fill-rule="evenodd">
        <g id="maptco_homepage_pc" transform="translate(-949.000000, -31.000000)" fill="#4B4B4B" fill-rule="nonzero">
            <g id="Shape-4" transform="translate(949.000000, 31.000000)">
                <path d="M16.00409,17.2883436 L14.8588957,4.39263804 C14.8343558,4.10633947 14.593047,3.88957055 14.3108384,3.88957055 L11.9550102,3.88957055 C11.9222904,1.73824131 10.1635992,0 8.00408998,0 C5.84458078,0 4.08588957,1.73824131 4.05316973,3.88957055 L1.69734151,3.88957055 C1.41104294,3.88957055 1.17382413,4.10633947 1.14928425,4.39263804 L0.00408997955,17.2883436 C0.00408997955,17.3047035 4.4408921e-14,17.3210634 4.4408921e-14,17.3374233 C4.4408921e-14,18.805726 1.34560327,20 3.00204499,20 L13.006135,20 C14.6625767,20 16.00818,18.805726 16.00818,17.3374233 C16.00818,17.3210634 16.00818,17.3047035 16.00409,17.2883436 Z M8.00408998,1.10429448 C9.55419223,1.10429448 10.8179959,2.34764826 10.8507157,3.88957055 L5.15746421,3.88957055 C5.19018405,2.34764826 6.45398773,1.10429448 8.00408998,1.10429448 Z M13.006135,18.8957055 L3.00204499,18.8957055 C1.96319018,18.8957055 1.1206544,18.208589 1.10429448,17.3619632 L2.200409,4.99795501 L4.04907975,4.99795501 L4.04907975,6.67484663 C4.04907975,6.98159509 4.29447853,7.22699387 4.60122699,7.22699387 C4.90797546,7.22699387 5.15337423,6.98159509 5.15337423,6.67484663 L5.15337423,4.99795501 L10.8507157,4.99795501 L10.8507157,6.67484663 C10.8507157,6.98159509 11.0961145,7.22699387 11.402863,7.22699387 C11.7096115,7.22699387 11.9550102,6.98159509 11.9550102,6.67484663 L11.9550102,4.99795501 L13.803681,4.99795501 L14.9038855,17.3619632 C14.8875256,18.208589 14.0408998,18.8957055 13.006135,18.8957055 Z" id="Shape"></path>
            </g>
        </g>
    </g>
</svg>