<?xml version="1.0" encoding="UTF-8"?>
<svg width="20px" height="18px" viewBox="0 0 20 18" version="1.1" xmlns="http://www.w3.org/2000/svg" xmlns:xlink="http://www.w3.org/1999/xlink">
    <title>Shape 3</title>
    <g id="Page-1" stroke="none" stroke-width="1" fill="none" fill-rule="evenodd">
        <g id="maptco_homepage_pc" transform="translate(-900.000000, -32.000000)" fill="#4B4B4B" fill-rule="nonzero">
            <g id="Shape-3" transform="translate(900.000000, 32.000000)">
                <path d="M10,17.7935791 C9.71527102,17.7935791 9.44076539,17.6904297 9.22683715,17.5030518 C8.4188843,16.7965698 7.63992309,16.1326599 6.95266723,15.5470276 L6.94915773,15.5439758 C4.93423461,13.8269043 3.19427492,12.3440552 1.98364258,10.8833313 C0.630340586,9.2503357 0,7.70202637 0,6.01058961 C0,4.36721801 0.56350707,2.85110473 1.58660891,1.74133301 C2.62191773,0.618438711 4.04251098,0 5.5871582,0 C6.7416382,0 7.79891969,0.364990234 8.7295532,1.0847473 C9.19921875,1.44805906 9.62493898,1.8927002 10,2.41134645 C10.3752136,1.8927002 10.8007812,1.44805906 11.2705994,1.0847473 C12.2012329,0.364990234 13.2585144,0 14.4129944,0 C15.957489,0 17.3782348,0.618438711 18.4135437,1.74133301 C19.4366455,2.85110473 20,4.36721801 20,6.01058961 C20,7.70202637 19.369812,9.2503357 18.01651,10.8831787 C16.8058777,12.3440552 15.0660705,13.8267517 13.0514527,15.5436707 C12.3629761,16.1302185 11.5827942,16.7951965 10.7730102,17.503357 C10.5592346,17.6904297 10.2845764,17.7935791 10,17.7935791 L10,17.7935791 Z M5.5871582,1.17156984 C4.37362672,1.17156984 3.25881957,1.65588379 2.44781492,2.53540039 C1.62475586,3.42819215 1.17141723,4.66232301 1.17141723,6.01058961 C1.17141723,7.43316648 1.7001343,8.70544434 2.88558961,10.1358032 C4.03137207,11.5184021 5.73562621,12.9707336 7.70889281,14.6524048 L7.71255492,14.6554566 C8.40240477,15.2433777 9.18441773,15.9098816 9.99832152,16.6215515 C10.8171082,15.9085083 11.6003418,15.2409363 12.2915649,14.6520996 C14.2646789,12.9704285 15.9687805,11.5184021 17.114563,10.1358032 C18.2998657,8.70544434 18.8285828,7.43316648 18.8285828,6.01058961 C18.8285828,4.66232301 18.3752441,3.42819215 17.5521851,2.53540039 C16.741333,1.65588379 15.6263733,1.17156984 14.4129944,1.17156984 C13.5240173,1.17156984 12.7078247,1.45416258 11.9871521,2.01141359 C11.3449097,2.50823977 10.897522,3.13629148 10.6352234,3.57574461 C10.5003357,3.8017273 10.2629089,3.936615 10,3.936615 C9.73709105,3.936615 9.4996643,3.8017273 9.3647766,3.57574461 C9.10263062,3.13629148 8.65524293,2.50823977 8.01284789,2.01141359 C7.29217531,1.45416258 6.47598266,1.17156984 5.5871582,1.17156984 Z" id="Shape"></path>
            </g>
        </g>
    </g>
</svg>