<?xml version="1.0" encoding="UTF-8"?>
<svg width="18px" height="19px" viewBox="0 0 18 19" version="1.1" xmlns="http://www.w3.org/2000/svg" xmlns:xlink="http://www.w3.org/1999/xlink">
    <title>Combined Shape 2</title>
    <g id="Page-1" stroke="none" stroke-width="1" fill="none" fill-rule="evenodd">
        <g id="maptco_homepage_pc" transform="translate(-995.000000, -32.000000)" fill="#4B4B4B" fill-rule="nonzero">
            <g id="Combined-Shape-2" transform="translate(995.000000, 32.000000)">
                <path d="M9,-1.81188398e-13 C11.8776942,-1.81188398e-13 14.2105263,2.33931218 14.2105263,5.225 C14.2105263,7.22358379 13.0915278,8.96008548 11.447521,9.83886493 C15.228799,10.9069678 18,14.3914606 18,18.525 L18,18.525 L16.9411765,18.525 C16.9411765,14.1270266 13.3857907,10.5617647 9,10.5617647 C4.61420934,10.5617647 1.05882353,14.1270266 1.05882353,18.525 L1.05882353,18.525 L0,18.525 C0,14.3914606 2.77120104,10.9069678 6.55220881,9.83780871 C4.9084722,8.96008548 3.78947368,7.22358379 3.78947368,5.225 C3.78947368,2.33931218 6.12230578,-1.81188398e-13 9,-1.81188398e-13 Z M9,0.995238095 C6.67043801,0.995238095 4.78195489,2.888967 4.78195489,5.225 C4.78195489,7.561033 6.67043801,9.4547619 9,9.4547619 C11.329562,9.4547619 13.2180451,7.561033 13.2180451,5.225 C13.2180451,2.888967 11.329562,0.995238095 9,0.995238095 Z" id="Combined-Shape"></path>
            </g>
        </g>
    </g>
</svg>