<?xml version="1.0" encoding="UTF-8"?>
<svg width="18px" height="18px" viewBox="0 0 18 18" version="1.1" xmlns="http://www.w3.org/2000/svg" xmlns:xlink="http://www.w3.org/1999/xlink">
    <title>Shape 2</title>
    <g id="Page-1" stroke="none" stroke-width="1" fill="none" fill-rule="evenodd">
        <g id="maptco_homepage_pc" transform="translate(-389.000000, -31.000000)" fill="#4B4B4B" fill-rule="nonzero">
            <g id="Group-3" transform="translate(199.000000, 29.000000)">
                <g id="Shape-2" transform="translate(190.000000, 2.000000)">
                    <path d="M17.8403548,17.0820399 L13.4660754,12.7077605 C14.6394678,11.3587583 15.3498891,9.59866962 15.3498891,7.67494457 C15.3498891,3.44035477 11.9055432,0 7.67494457,0 C3.44035477,0 1.77635684e-15,3.4443459 1.77635684e-15,7.67494457 C1.77635684e-15,11.9055432 3.4443459,15.3498891 7.67494457,15.3498891 C9.59866962,15.3498891 11.3587583,14.6394678 12.7077605,13.4660754 L17.0820399,17.8403548 C17.1858093,17.9441242 17.3254989,18 17.4611973,18 C17.5968958,18 17.7365854,17.9481153 17.8403548,17.8403548 C18.0478936,17.632816 18.0478936,17.2895787 17.8403548,17.0820399 Z M1.07361419,7.67494457 C1.07361419,4.03503326 4.03503326,1.07760532 7.67095344,1.07760532 C11.3108647,1.07760532 14.2682927,4.03902439 14.2682927,7.67494457 C14.2682927,11.3108647 11.3108647,14.2762749 7.67095344,14.2762749 C4.03503326,14.2762749 1.07361419,11.3148559 1.07361419,7.67494457 Z" id="Shape"></path>
                </g>
            </g>
        </g>
    </g>
</svg>