<?xml version="1.0" encoding="UTF-8"?>
<svg width="392px" height="57px" viewBox="0 0 392 57" version="1.1" xmlns="http://www.w3.org/2000/svg" xmlns:xlink="http://www.w3.org/1999/xlink">
    <title>Group 4</title>
    <g id="Page-1" stroke="none" stroke-width="1" fill="none" fill-rule="evenodd">
        <g id="maptco_homepage_pc" transform="translate(-201.000000, -599.000000)">
            <g id="Group-4" transform="translate(199.000000, 600.000000)">
                <text id="G5" font-family=".AppleSystemUIFont" font-size="12" font-weight="normal" fill="#FFFFFF">
                    <tspan x="21" y="31">G5</tspan>
                </text>
                <path d="M31.6579628,1.29285951 L52.0101581,12.3310628 C53.622314,13.2054306 54.6263888,14.8922444 54.6263888,16.726247 L54.6263888,38.273753 C54.6263888,40.1077556 53.622314,41.7945694 52.0101581,42.6689372 L31.6579628,53.7071405 C30.1710869,54.5135615 28.3773002,54.5135615 26.8904243,53.7071405 L6.53822903,42.6689372 C4.92607315,41.7945694 3.92199826,40.1077556 3.92199826,38.273753 L3.92199826,16.726247 C3.92199826,14.8922444 4.92607315,13.2054306 6.53822903,12.3310628 L26.8904243,1.29285951 C28.3773002,0.486438465 30.1710869,0.486438465 31.6579628,1.29285951 Z" id="Polygon" stroke="#FFFFFF" stroke-width="2"></path>
                <line x1="29.2741935" y1="1" x2="29.2741935" y2="19" id="Path-4" stroke="#FFFFFF" stroke-width="2"></line>
                <line x1="4.52419355" y1="40.75" x2="20.0241935" y2="32.25" id="Path-4-Copy" stroke="#FFFFFF" stroke-width="2"></line>
                <line x1="38.5241935" y1="40.75" x2="54.0241935" y2="32.25" id="Path-4-Copy-2" stroke="#FFFFFF" stroke-width="2" transform="translate(46.024194, 36.250000) scale(1, -1) translate(-46.024194, -36.250000) "></line>
                <text id="G8" font-family=".AppleSystemUIFont" font-size="12" font-weight="normal" fill="#FFFFFF">
                    <tspan x="89" y="31">G8</tspan>
                </text>
                <path d="M99.6579628,1.29285951 L120.010158,12.3310628 C121.622314,13.2054306 122.626389,14.8922444 122.626389,16.726247 L122.626389,38.273753 C122.626389,40.1077556 121.622314,41.7945694 120.010158,42.6689372 L99.6579628,53.7071405 C98.1710869,54.5135615 96.3773002,54.5135615 94.8904243,53.7071405 L74.538229,42.6689372 C72.9260731,41.7945694 71.9219983,40.1077556 71.9219983,38.273753 L71.9219983,16.726247 C71.9219983,14.8922444 72.9260731,13.2054306 74.538229,12.3310628 L94.8904243,1.29285951 C96.3773002,0.486438465 98.1710869,0.486438465 99.6579628,1.29285951 Z" id="Polygon-Copy" stroke="#FFFFFF" stroke-width="2"></path>
                <line x1="97.2741935" y1="1" x2="97.2741935" y2="19" id="Path-4-Copy-3" stroke="#FFFFFF" stroke-width="2"></line>
                <line x1="106.524194" y1="40.75" x2="122.024194" y2="32.25" id="Path-4-Copy-5" stroke="#FFFFFF" stroke-width="2" transform="translate(114.024194, 36.250000) scale(1, -1) translate(-114.024194, -36.250000) "></line>
                <line x1="72.5241935" y1="40.75" x2="88.0241935" y2="32.25" id="Path-4-Copy-4" stroke="#FFFFFF" stroke-width="2"></line>
                <text id="G4.6" font-family=".AppleSystemUIFont" font-size="12" font-weight="normal" fill="#FFFFFF">
                    <tspan x="151" y="31">G4.6</tspan>
                </text>
                <path d="M166.657963,1.29285951 L187.010158,12.3310628 C188.622314,13.2054306 189.626389,14.8922444 189.626389,16.726247 L189.626389,38.273753 C189.626389,40.1077556 188.622314,41.7945694 187.010158,42.6689372 L166.657963,53.7071405 C165.171087,54.5135615 163.3773,54.5135615 161.890424,53.7071405 L141.538229,42.6689372 C139.926073,41.7945694 138.921998,40.1077556 138.921998,38.273753 L138.921998,16.726247 C138.921998,14.8922444 139.926073,13.2054306 141.538229,12.3310628 L161.890424,1.29285951 C163.3773,0.486438465 165.171087,0.486438465 166.657963,1.29285951 Z" id="Polygon-Copy-2" stroke="#FFFFFF" stroke-width="2"></path>
                <text id="G8.8" font-family=".AppleSystemUIFont" font-size="12" font-weight="normal" fill="#FFFFFF">
                    <tspan x="219" y="31">G8.8</tspan>
                </text>
                <path d="M234.657963,1.29285951 L255.010158,12.3310628 C256.622314,13.2054306 257.626389,14.8922444 257.626389,16.726247 L257.626389,38.273753 C257.626389,40.1077556 256.622314,41.7945694 255.010158,42.6689372 L234.657963,53.7071405 C233.171087,54.5135615 231.3773,54.5135615 229.890424,53.7071405 L209.538229,42.6689372 C207.926073,41.7945694 206.921998,40.1077556 206.921998,38.273753 L206.921998,16.726247 C206.921998,14.8922444 207.926073,13.2054306 209.538229,12.3310628 L229.890424,1.29285951 C231.3773,0.486438465 233.171087,0.486438465 234.657963,1.29285951 Z" id="Polygon-Copy-3" stroke="#FFFFFF" stroke-width="2"></path>
                <text id="G10.9" font-family=".AppleSystemUIFont" font-size="12" font-weight="normal" fill="#FFFFFF">
                    <tspan x="285" y="31">G10.9</tspan>
                </text>
                <path d="M301.657963,1.29285951 L322.010158,12.3310628 C323.622314,13.2054306 324.626389,14.8922444 324.626389,16.726247 L324.626389,38.273753 C324.626389,40.1077556 323.622314,41.7945694 322.010158,42.6689372 L301.657963,53.7071405 C300.171087,54.5135615 298.3773,54.5135615 296.890424,53.7071405 L276.538229,42.6689372 C274.926073,41.7945694 273.921998,40.1077556 273.921998,38.273753 L273.921998,16.726247 C273.921998,14.8922444 274.926073,13.2054306 276.538229,12.3310628 L296.890424,1.29285951 C298.3773,0.486438465 300.171087,0.486438465 301.657963,1.29285951 Z" id="Polygon-Copy-4" stroke="#FFFFFF" stroke-width="2"></path>
                <text id="G12.9" font-family=".AppleSystemUIFont" font-size="12" font-weight="normal" fill="#FFFFFF">
                    <tspan x="352" y="31">G12.9</tspan>
                </text>
                <path d="M369.657963,1.29285951 L390.010158,12.3310628 C391.622314,13.2054306 392.626389,14.8922444 392.626389,16.726247 L392.626389,38.273753 C392.626389,40.1077556 391.622314,41.7945694 390.010158,42.6689372 L369.657963,53.7071405 C368.171087,54.5135615 366.3773,54.5135615 364.890424,53.7071405 L344.538229,42.6689372 C342.926073,41.7945694 341.921998,40.1077556 341.921998,38.273753 L341.921998,16.726247 C341.921998,14.8922444 342.926073,13.2054306 344.538229,12.3310628 L364.890424,1.29285951 C366.3773,0.486438465 368.171087,0.486438465 369.657963,1.29285951 Z" id="Polygon-Copy-5" stroke="#FFFFFF" stroke-width="2"></path>
            </g>
        </g>
    </g>
</svg>