<?xml version="1.0" encoding="UTF-8"?>
<svg width="274px" height="70px" viewBox="0 0 274 70" version="1.1" xmlns="http://www.w3.org/2000/svg" xmlns:xlink="http://www.w3.org/1999/xlink">
    <title>pasted-svg-7937x20</title>
    <g id="Page-1" stroke="none" stroke-width="1" fill="none" fill-rule="evenodd">
        <g id="maptco_homepage_pc" transform="translate(-199.000000, -103.000000)" fill="#00783E" fill-rule="nonzero">
            <g id="pasted-svg-7937x20" transform="translate(199.000000, 103.000000)">
                <path d="M77.7374687,31.962069 L60.9411028,2.85517241 C60.0347744,1.2862069 57.8120301,0 55.9993734,0 L22.4169799,0 C20.6043233,0 18.3781328,1.2862069 17.4786967,2.85517241 L0.682330827,31.962069 C-0.227443609,33.5310345 -0.227443609,36.1 0.682330827,37.6689655 L17.4786967,66.7758621 C18.3815789,68.3448276 20.6043233,69.6310345 22.4204261,69.6310345 L56.0028195,69.6310345 C57.8120301,69.6310345 60.0382206,68.3448276 60.9445489,66.7758621 L77.7409148,37.6689655 C78.643797,36.1 78.643797,33.5310345 77.7374687,31.962069 Z M67.0579574,36 L54.2005013,58.3517241 C53.8214286,59.0068966 52.8978697,59.5448276 52.1431704,59.5448276 L49.468985,59.5448276 C48.7142857,59.5448276 48.4075815,59.0103448 48.7797619,58.3517241 L61.6303258,36 C62.0059524,35.3517241 62.0059524,34.2758621 61.6303258,33.6206897 L51.4505013,15.9758621 C51.0748747,15.3172414 50.1409774,14.7827586 49.3897243,14.7827586 L42.9282581,14.7827586 C42.1701128,14.7827586 41.5567043,15.4034483 41.5567043,16.1551724 L41.5567043,58.1724138 C41.5567043,58.9275862 40.9398496,59.5482759 40.1817043,59.5482759 L38.231203,59.5482759 C37.4730576,59.5482759 36.8630952,58.9275862 36.8630952,58.1724138 L36.8630952,16.1586207 C36.8630952,15.4068966 36.2427945,14.7862069 35.4880952,14.7862069 L29.023183,14.7862069 C28.2684837,14.7862069 27.3449248,15.3206897 26.962406,15.9793103 L16.7860276,33.6206897 C16.410401,34.2758621 16.410401,35.3517241 16.7860276,36 L29.681391,58.3551724 C30.0604637,59.0103448 29.7468672,59.5448276 28.995614,59.5448276 L26.3179825,59.5448276 C25.5632832,59.5448276 24.6397243,59.0103448 24.2572055,58.3551724 L11.358396,36 C10.9827694,35.3517241 10.9827694,34.2758621 11.358396,33.6206897 L24.2503133,11.2758621 C24.629386,10.6241379 25.556391,10.0862069 26.3145363,10.0862069 L52.0983709,10.0862069 C52.8565163,10.0862069 53.7835213,10.6206897 54.162594,11.2758621 L67.0545113,33.6206897 C67.433584,34.2758621 67.433584,35.3517241 67.0579574,36 Z" id="Shape"></path>
                <g id="Group" transform="translate(93.045113, 9.310345)">
                    <path d="M56.2302632,32.4793103 L56.2302632,20.3655172 L41.2120927,20.3655172 L41.2120927,32.4793103 L36.2186717,32.4793103 L36.2186717,5.99655172 C36.2186717,5.80344828 37.6798246,3.94137931 41.012218,0.8 L56.0303885,0.8 C56.2233709,0.8 58.0877193,2.66551724 61.2236842,5.99655172 L61.2236842,32.4793103 L56.2302632,32.4793103 Z M41.2086466,6.21724138 L41.2086466,15.3448276 L56.226817,15.3448276 L56.226817,6.21724138 L41.2086466,6.21724138 Z" id="Shape"></path>
                    <path d="M159.885965,0.775862069 L175.593358,0.775862069 C175.800125,0.775862069 177.426692,2.47586207 180.473058,5.73103448 L180.473058,27.6551724 C180.473058,27.862069 178.846491,29.4275862 175.593358,32.4758621 L159.885965,32.4758621 C159.679198,32.4758621 158.056078,30.9103448 155.00282,27.6551724 L155.00282,5.73103448 C155.00282,5.52758621 156.632832,3.82758621 159.885965,0.775862069 Z M160.106516,5.95172414 L160.106516,27.6551724 L175.503759,27.6551724 L175.503759,5.95172414 L160.106516,5.95172414 Z" id="Shape"></path>
                    <polygon id="Path" points="90.8361529 0.775862069 95.5676692 5.6 105.971491 5.6 105.971491 32.4793103 110.520363 32.4793103 110.520363 5.66551724 120.934524 5.66551724 125.879699 0.775862069"></polygon>
                    <path d="M65.851817,0.8 L65.851817,1.24137931 L65.851817,32.4793103 L70.7108396,32.4793103 L70.7108396,19.9206897 L86.1907895,19.9206897 C89.433584,16.8862069 91.0532581,15.2655172 91.0532581,15.0551724 L91.0532581,5.99655172 C87.8552632,2.61034483 86.1632206,0.8 85.9702381,0.8 L66.2860276,0.8 L65.851817,0.8 Z M86.1907895,15.0551724 L70.4868421,15.0551724 L70.4868421,5.99655172 L86.1907895,5.99655172 L86.1907895,15.0551724 Z" id="Shape"></path>
                    <polygon id="Path" points="150.440163 27.7241379 130.190789 27.7241379 130.190789 5.6862069 150.440163 5.6862069 150.440163 0.775862069 130.190789 0.775862069 125.397243 5.6862069 125.397243 27.7448276 130.190789 32.4793103 150.440163 32.4793103"></polygon>
                    <polygon id="Path" points="26.931391 0.779310345 15.7590852 16.1655172 4.69016291 0.848275862 0.120614035 0.848275862 0.120614035 32.4758621 0.23433584 32.4793103 4.64191729 32.4793103 4.64191729 7.94137931 13.2365288 19.7896552 17.7199248 19.7896552 26.8865915 7.54482759 26.8865915 32.4758621 31.683584 32.4758621 31.683584 0.779310345"></polygon>
                </g>
                <g id="Group" transform="translate(93.045113, 46.034483)">
                    <polygon id="Path" points="8.10870927 1.22758621 8.10870927 2.6 1.67825815 2.6 1.67825815 6.50689655 7.31954887 6.50689655 7.31954887 7.88275862 1.67825815 7.88275862 1.67825815 13.5103448 0.0447994987 13.5103448 0.0447994987 1.22413793 8.10870927 1.22413793"></polygon>
                    <path d="M24.718985,1.22758621 L29.5228697,13.5137931 L27.7171053,13.5137931 L26.3731203,9.8137931 L21.1798246,9.8137931 L19.8048246,13.5137931 L18.1403509,13.5137931 L22.9235589,1.22758621 L24.718985,1.22758621 L24.718985,1.22758621 Z M25.856203,8.43103448 L23.8092105,2.7 L23.7781955,2.7 L21.6967419,8.43103448 L25.856203,8.43103448 L25.856203,8.43103448 Z" id="Shape"></path>
                    <path d="M47.4874687,2.90344828 C46.9395363,2.50689655 46.2468672,2.31034483 45.3956767,2.31034483 C45.0510652,2.31034483 44.7133459,2.34482759 44.3790727,2.41034483 C44.0482456,2.47931034 43.7518797,2.59310345 43.4968672,2.75517241 C43.2384085,2.91724138 43.0316416,3.13103448 42.8731203,3.40344828 C42.7180451,3.67241379 42.6456767,4.01034483 42.6456767,4.40689655 C42.6456767,4.78275862 42.7593985,5.09310345 42.983396,5.33103448 C43.2039474,5.56551724 43.5037594,5.75862069 43.8759398,5.90689655 C44.2481203,6.05862069 44.6754386,6.17931034 45.1406642,6.27586207 C45.612782,6.37241379 46.0848997,6.47931034 46.5742481,6.59655172 C47.0635965,6.71034483 47.5426065,6.84482759 48.0147243,7 C48.483396,7.15517241 48.9038221,7.36551724 49.2760025,7.62758621 C49.6447368,7.88965517 49.947995,8.22413793 50.1685464,8.62413793 C50.3925439,9.02758621 50.5062657,9.53448276 50.5062657,10.1413793 C50.5062657,10.7931034 50.3615288,11.3551724 50.068609,11.8172414 C49.7722431,12.2827586 49.4035088,12.6586207 48.9417293,12.9551724 C48.483396,13.2448276 47.9733709,13.4586207 47.4047619,13.5896552 C46.8361529,13.7241379 46.27099,13.7931034 45.7127193,13.7931034 C45.0269424,13.7931034 44.3687343,13.7068966 43.7587719,13.5344828 C43.1453634,13.362069 42.6043233,13.1034483 42.1425439,12.7482759 C41.6773183,12.3965517 41.3120301,11.9551724 41.0432331,11.4068966 C40.7744361,10.862069 40.6365915,10.2137931 40.6365915,9.46896552 L42.1873434,9.46896552 C42.1873434,9.98275862 42.2872807,10.4275862 42.4871554,10.8034483 C42.6904762,11.1758621 42.9558271,11.4827586 43.2797619,11.7241379 C43.6071429,11.9655172 43.9896617,12.1413793 44.4238722,12.2551724 C44.8580827,12.3724138 45.3060777,12.4310345 45.7678571,12.4310345 C46.1296992,12.4310345 46.5018797,12.3965517 46.8740602,12.3275862 C47.2462406,12.2551724 47.5839599,12.1413793 47.8837719,11.9758621 C48.1766917,11.8103448 48.4213659,11.5862069 48.60401,11.2965517 C48.7901003,11.0103448 48.8831454,10.6448276 48.8831454,10.2 C48.8831454,9.77586207 48.7659774,9.42758621 48.5419799,9.16206897 C48.3179825,8.9 48.0216165,8.68275862 47.6494361,8.51724138 C47.2772556,8.35172414 46.8533835,8.21724138 46.3847118,8.11724138 C45.912594,8.01034483 45.4370301,7.90344828 44.9511278,7.79310345 C44.4617794,7.6862069 43.9827694,7.55862069 43.5106516,7.41724138 C43.0385338,7.27586207 42.6215539,7.0862069 42.2493734,6.85172414 C41.877193,6.61724138 41.577381,6.3137931 41.3533835,5.93793103 C41.129386,5.56551724 41.0191103,5.1 41.0191103,4.53448276 C41.0191103,3.9137931 41.1397243,3.37931034 41.3912907,2.92413793 C41.6463033,2.47241379 41.9805764,2.10344828 42.4010025,1.80689655 C42.8179825,1.51724138 43.2935464,1.29655172 43.8276942,1.15517241 C44.358396,1.0137931 44.9063283,0.94137931 45.4680451,0.94137931 C46.1021303,0.94137931 46.6845238,1.0137931 47.2255639,1.16206897 C47.766604,1.31034483 48.2352757,1.54482759 48.6453634,1.86896552 C49.0485589,2.19310345 49.3724937,2.59655172 49.6033835,3.07931034 C49.8377193,3.57241379 49.9721178,4.15172414 49.9893484,4.83103448 L48.4454887,4.83103448 C48.3455514,3.93448276 48.0285088,3.3 47.4874687,2.90344828 Z" id="Path"></path>
                    <polygon id="Path" points="61.785401 2.6 61.785401 1.22758621 71.6102757 1.22758621 71.6102757 2.6 67.5093985 2.6 67.5093985 13.5103448 65.879386 13.5103448 65.879386 2.6 61.785401 2.6"></polygon>
                    <polygon id="Path" points="92.0526316 1.22758621 92.0526316 2.6 85.2052005 2.6 85.2052005 6.50689655 91.587406 6.50689655 91.587406 7.88275862 85.2052005 7.88275862 85.2052005 12.1344828 92.1043233 12.1344828 92.1043233 13.5103448 83.575188 13.5103448 83.575188 1.22413793 92.0526316 1.22413793"></polygon>
                    <polygon id="Path" points="106.412594 1.22758621 112.877506 11.1896552 112.911967 11.1896552 112.911967 1.22758621 114.459273 1.22758621 114.459273 13.5137931 112.674185 13.5137931 106.257519 3.65517241 106.226504 3.65517241 106.226504 13.5137931 104.679198 13.5137931 104.679198 1.22758621 106.412594 1.22758621"></polygon>
                    <polygon id="Path" points="136.200815 1.22758621 136.200815 2.6 129.35683 2.6 129.35683 6.50689655 135.739035 6.50689655 135.739035 7.88275862 129.35683 7.88275862 129.35683 12.1344828 136.24906 12.1344828 136.24906 13.5103448 127.719925 13.5103448 127.719925 1.22413793 136.200815 1.22413793"></polygon>
                    <path d="M154.620301,1.22758621 C155.79198,1.22758621 156.705201,1.51034483 157.363409,2.08275862 C158.021617,2.65862069 158.352444,3.44482759 158.352444,4.44482759 C158.352444,5.18965517 158.183584,5.84137931 157.845865,6.40689655 C157.508145,6.96551724 156.963659,7.34827586 156.222744,7.55862069 L156.222744,7.59310345 C156.577694,7.65862069 156.870614,7.77586207 157.087719,7.93793103 C157.311717,8.1 157.490915,8.28965517 157.621867,8.5137931 C157.75282,8.73793103 157.849311,8.98965517 157.914787,9.26551724 C157.980263,9.54137931 158.025063,9.82413793 158.056078,10.1275862 C158.083647,10.4241379 158.100877,10.7275862 158.114662,11.037931 C158.125,11.3482759 158.152569,11.6517241 158.193922,11.9517241 C158.242168,12.2517241 158.307644,12.5344828 158.393797,12.8034483 C158.47995,13.0724138 158.610902,13.3068966 158.779762,13.5172414 L156.963659,13.5172414 C156.849937,13.3896552 156.767231,13.2206897 156.729323,13 C156.691416,12.7862069 156.663847,12.5413793 156.653509,12.2724138 C156.64317,12 156.629386,11.7137931 156.615602,11.4034483 C156.605263,11.0896552 156.574248,10.7862069 156.515664,10.4862069 C156.470865,10.1896552 156.415727,9.90689655 156.343358,9.63793103 C156.274436,9.36896552 156.16416,9.13103448 156.012531,8.93103448 C155.867794,8.72758621 155.671366,8.56896552 155.430138,8.44827586 C155.18891,8.33103448 154.871867,8.26896552 154.468672,8.26896552 L150.481516,8.26896552 L150.481516,13.5172414 L148.837719,13.5172414 L148.837719,1.23103448 L154.620301,1.23103448 L154.620301,1.22758621 Z M154.961466,6.79655172 C155.306078,6.74137931 155.609336,6.62758621 155.867794,6.46206897 C156.122807,6.29655172 156.33302,6.07586207 156.488095,5.79310345 C156.64317,5.51034483 156.715539,5.14482759 156.715539,4.70344828 C156.715539,4.07931034 156.546679,3.57931034 156.198622,3.18965517 C155.857456,2.8 155.302632,2.60344828 154.537594,2.60344828 L150.47807,2.60344828 L150.47807,6.8862069 L153.879386,6.8862069 C154.258459,6.88275862 154.620301,6.85517241 154.961466,6.79655172 Z" id="Shape"></path>
                    <path d="M177.381892,2.90344828 C176.83396,2.50689655 176.137845,2.31034483 175.2901,2.31034483 C174.945489,2.31034483 174.611216,2.34482759 174.276942,2.41034483 C173.942669,2.47931034 173.646303,2.59310345 173.391291,2.75517241 C173.132832,2.91724138 172.922619,3.13103448 172.77099,3.40344828 C172.612469,3.67241379 172.536654,4.01034483 172.536654,4.40689655 C172.536654,4.78275862 172.650376,5.09310345 172.874373,5.33103448 C173.101817,5.56551724 173.394737,5.75862069 173.770363,5.90689655 C174.142544,6.05862069 174.56297,6.17931034 175.035088,6.27586207 C175.507206,6.37241379 175.982769,6.47931034 176.468672,6.59655172 C176.95802,6.71034483 177.43703,6.84482759 177.909148,7 C178.381266,7.15517241 178.798246,7.36551724 179.170426,7.62758621 C179.53916,7.88965517 179.838972,8.22413793 180.066416,8.62413793 C180.286967,9.02758621 180.400689,9.53448276 180.400689,10.1413793 C180.400689,10.7931034 180.255952,11.3551724 179.963033,11.8172414 C179.670113,12.2827586 179.294486,12.6586207 178.832707,12.9551724 C178.381266,13.2448276 177.864348,13.4586207 177.299185,13.5896552 C176.730576,13.7241379 176.16886,13.7931034 175.603697,13.7931034 C174.91792,13.7931034 174.263158,13.7068966 173.653195,13.5344828 C173.039787,13.362069 172.502193,13.1034483 172.033521,12.7482759 C171.571742,12.3965517 171.206454,11.9551724 170.941103,11.4068966 C170.66886,10.862069 170.534461,10.2137931 170.534461,9.46896552 L172.081767,9.46896552 C172.081767,9.98275862 172.181704,10.4275862 172.381579,10.8034483 C172.581454,11.1758621 172.846805,11.4827586 173.170739,11.7241379 C173.49812,11.9655172 173.880639,12.1413793 174.318296,12.2551724 C174.74906,12.3724138 175.197055,12.4310345 175.658835,12.4310345 C176.024123,12.4310345 176.392857,12.3965517 176.765038,12.3275862 C177.137218,12.2551724 177.471491,12.1413793 177.771303,11.9758621 C178.071115,11.8103448 178.308897,11.5862069 178.494987,11.2965517 C178.677632,11.0103448 178.770677,10.6448276 178.770677,10.2 C178.770677,9.77586207 178.656955,9.42758621 178.432957,9.16206897 C178.212406,8.9 177.912594,8.68275862 177.540414,8.51724138 C177.168233,8.35172414 176.740915,8.21724138 176.272243,8.11724138 C175.800125,8.01034483 175.328008,7.90344828 174.838659,7.79310345 C174.349311,7.6862069 173.873747,7.55862069 173.401629,7.41724138 C172.932957,7.27586207 172.509085,7.0862069 172.140351,6.85172414 C171.76817,6.61724138 171.468358,6.3137931 171.247807,5.93793103 C171.020363,5.56551724 170.906642,5.1 170.906642,4.53448276 C170.906642,3.9137931 171.030702,3.37931034 171.282268,2.92413793 C171.537281,2.47241379 171.871554,2.10344828 172.29198,1.80689655 C172.70896,1.51724138 173.184524,1.29655172 173.718672,1.15517241 C174.249373,1.0137931 174.797306,0.94137931 175.362469,0.94137931 C175.996554,0.94137931 176.578947,1.0137931 177.116541,1.16206897 C177.654135,1.31034483 178.126253,1.54482759 178.536341,1.86896552 C178.942982,2.19310345 179.263471,2.59655172 179.497807,3.07931034 C179.728697,3.57241379 179.859649,4.15172414 179.880326,4.83103448 L178.336466,4.83103448 C178.239975,3.93448276 177.922932,3.3 177.381892,2.90344828 Z" id="Path"></path>
                </g>
            </g>
        </g>
    </g>
</svg>